{
.appVersion = "895";
customParameters = (
{
name = preferredSubfamilyName;
value = Regular;
},
{
name = description;
value = "VIC WA NT School Handwriting Font (Print)";
},
{
name = sampleText;
value = "ABCDEFGHIJKLMNOPQRSTUVWXYZ abcdefghijklmnopqrstuvwxyz";
},
{
name = postscriptFontName;
value = "VICWANTBeginner-Regular";
},
{
name = styleMapStyleName;
value = regular;
},
{
name = weightClass;
value = 400;
},
{
name = widthClass;
value = 5;
},
{
name = glyphOrder;
value = (
A,
B,
C,
D,
E,
F,
G,
H,
I,
J,
K,
L,
M,
N,
O,
P,
Q,
R,
S,
T,
U,
V,
W,
X,
Y,
Z,
a,
b,
c,
d,
e,
f,
g,
h,
i,
j,
k,
l,
m,
n,
o,
p,
q,
r,
s,
t,
u,
v,
w,
x,
y,
z,
zero,
one,
two,
three,
four,
five,
six,
seven,
eight,
nine,
.notdef,
.null,
space,
period,
comma,
colon,
semicolon,
ellipsis,
exclam,
exclamdown,
question,
questiondown,
periodcentered,
bullet,
asterisk,
numbersign,
slash,
backslash,
hyphen,
endash,
emdash,
underscore,
parenleft,
parenright,
braceleft,
braceright,
bracketleft,
bracketright,
quotedbl,
quotesingle,
at,
ampersand,
degree,
bar,
brokenbar,
dollar,
plus,
minus,
multiply,
divide,
equal,
notequal,
greater,
less,
greaterequal,
lessequal,
plusminus,
approxequal,
asciicircum,
"infinity",
percent
);
},
{
name = "Disable Last Change";
value = 1;
},
{
name = Axes;
value = (
{
Name = wght;
Tag = wght;
}
);
}
);
date = "2022-03-16 02:33:55 +0000";
designer = "Tina & Corey Anderson";
familyName = "VIC WA NT Beginner";
fontMaster = (
{
alignmentZones = (
"{700, 4}",
"{650, 4}",
"{350, 4}",
"{0, -4}",
"{-300, -4}"
);
ascender = 700;
capHeight = 650;
customParameters = (
{
name = "UFO Filename";
value = "VIC-WA-NT-Beginner-Regular.ufo";
},
{
name = "Master Name";
value = Regular;
},
{
name = preferredSubfamilyName;
value = Regular;
},
{
name = description;
value = "VIC WA NT School Handwriting Font (Print)";
},
{
name = sampleText;
value = "ABCDEFGHIJKLMNOPQRSTUVWXYZ abcdefghijklmnopqrstuvwxyz";
},
{
name = postscriptFontName;
value = "VICWANTBeginner-Regular";
},
{
name = styleMapStyleName;

glyphs = (
{
glyphname = A;
layers = (
{
layerId = m01;
paths = (
{
closed = 1;
nodes = (
"28 0 OFFCURVE",
"33 7 OFFCURVE",
"42 25 CURVE SMOOTH",
"287 504 LINE",
"319 576 LINE",
"319 500 LINE",
"357 24 LINE SMOOTH",
"358 14 OFFCURVE",
"361 0 OFFCURVE",
"383 0 CURVE",
"401 0 OFFCURVE",
"407 11 OFFCURVE",
"406 26 CURVE",
"354 631 LINE SMOOTH",
"353 641 OFFCURVE",
"347 650 OFFCURVE",
"330 650 CURVE SMOOTH",
"308 650 OFFCURVE",
"307 639 OFFCURVE",
"300 625 CURVE SMOOTH",
"-9 32 LINE SMOOTH",
"-19 12 OFFCURVE",
"-7 0 OFFCURVE",
"8 0 CURVE SMOOTH"
);
},
{
closed = 1;
nodes = (
"358 304 LINE",
"353 347 LINE",
"184 347 LINE",
"162 304 LINE"
);
}
);
vertWidth = 0;
width = 450;
},
{
layerId = "140DECC1-64C4-40C0-9C07-503DBC3F4160";
paths = (
{
closed = 1;
nodes = (
"62 0 OFFCURVE",
"77 8 OFFCURVE",
"90 33 CURVE SMOOTH",
"301 449 LINE",
"330 523 LINE",
"327 448 LINE",
"361 40 LINE SMOOTH",
"363 16 OFFCURVE",
"379 0 OFFCURVE",
"410 0 CURVE SMOOTH",
"438 0 OFFCURVE",
"458 15 OFFCURVE",
"455 46 CURVE",
"407 603 LINE SMOOTH",
"404 634 OFFCURVE",
"382 650 OFFCURVE",
"351 650 CURVE SMOOTH",
"318 650 OFFCURVE",
"298 635 OFFCURVE",
"288 616 CURVE SMOOTH",
"-2 60 LINE SMOOTH",
"-21 24 OFFCURVE",
"5 0 OFFCURVE",
"35 0 CURVE SMOOTH"
);
},
{
closed = 1;
nodes = (
"388 244 LINE",
"380 334 LINE",
"182 334 LINE",
"139 244 LINE"
);
}
);
vertWidth = 0;
width = 495;
}
);
note = "";
unicode = 0041;
},
{
glyphname = B;
layers = (
{
layerId = m01;
leftMetricsKey = N;
rightMetricsKey = O;
paths = (
{
closed = 1;
nodes = (
"337 0 OFFCURVE",
"418 53 OFFCURVE",
"434 163 CURVE SMOOTH",
"451 279 OFFCURVE",
"340 359 OFFCURVE",
"117 359 CURVE",
"109 320 LINE",
"316 320 OFFCURVE",
"396 248 OFFCURVE",
"385 169 CURVE SMOOTH",
"372 73 OFFCURVE",
"266 47 OFFCURVE",
"89 46 CURVE",
"187 604 LINE",
"340 603 OFFCURVE",
"432 568 OFFCURVE",
"421 479 CURVE SMOOTH",
"411 399 OFFCURVE",
"375 359 OFFCURVE",
"121 359 CURVE",
"115 327 LINE",
"404 327 OFFCURVE",
"457 373 OFFCURVE",
"471 477 CURVE SMOOTH",
"487 595 OFFCURVE",
"384 650 OFFCURVE",
"169 650 CURVE",
"152 650 OFFCURVE",
"144 643 OFFCURVE",
"140 623 CURVE SMOOTH",
"36 31 LINE SMOOTH",
"33 16 OFFCURVE",
"41 0 OFFCURVE",
"55 0 CURVE SMOOTH"
);
}
);
vertWidth = 0;
width = 485;
},
{
layerId = "140DECC1-64C4-40C0-9C07-503DBC3F4160";
leftMetricsKey = N;
rightMetricsKey = O;
paths = (
{
closed = 1;
nodes = (
"374 0 OFFCURVE",
"476 26 OFFCURVE",
"493 151 CURVE SMOOTH",
"512 292 OFFCURVE",
"361 358 OFFCURVE",
"142 358 CURVE",
"128 277 LINE",
"337 277 OFFCURVE",
"404 241 OFFCURVE",
"394 168 CURVE SMOOTH",
"387 115 OFFCURVE",
"325 94 OFFCURVE",
"147 90 CURVE",
"230 559 LINE",
"410 554 OFFCURVE",
"448 523 OFFCURVE",
"441 467 CURVE SMOOTH",
"434 413 OFFCURVE",
"423 358 OFFCURVE",
"147 358 CURVE",
"134 295 LINE",
"407 295 OFFCURVE",
"525 344 OFFCURVE",
"541 462 CURVE SMOOTH",
"559 597 OFFCURVE",
"443 650 OFFCURVE",
"186 650 CURVE SMOOTH",
"163 650 OFFCURVE",
"143 642 OFFCURVE",
"137 609 CURVE SMOOTH",
"39 53 LINE SMOOTH",
"34 23 OFFCURVE",
"55 0 OFFCURVE",
"81 0 CURVE SMOOTH"
);
}
);
vertWidth = 0;
width = 547;
}
);
leftKerningGroup = H_left;
note = "";
unicode = 0042;
},
{
glyphname = C;
layers = (
{
layerId = m01;
leftMetricsKey = O;
rightMetricsKey = N;
paths = (
{
closed = 1;
nodes = (
"316 0 OFFCURVE",
"383 45 OFFCURVE",
"440 108 CURVE SMOOTH",
"465 135 OFFCURVE",
"467 147 OFFCURVE",
"466 154 CURVE SMOOTH",
"464 166 OFFCURVE",
"455 172 OFFCURVE",
"443 172 CURVE SMOOTH",
"427 172 OFFCURVE",
"421 155 OFFCURVE",
"401 137 CURVE SMOOTH",
"346 85 OFFCURVE",
"296 46 OFFCURVE",
"231 46 CURVE SMOOTH",
"159 46 OFFCURVE",
"85 136 OFFCURVE",
"114 304 CURVE SMOOTH",
"134 419 OFFCURVE",
"182 604 OFFCURVE",
"357 604 CURVE SMOOTH",
"403 604 OFFCURVE",
"452 583 OFFCURVE",
"497 536 CURVE SMOOTH",
"510 523 OFFCURVE",
"524 526 OFFCURVE",
"532 535 CURVE SMOOTH",
"540 544 OFFCURVE",
"538 560 OFFCURVE",
"529 569 CURVE SMOOTH",
"480 620 OFFCURVE",
"420 650 OFFCURVE",
"358 650 CURVE SMOOTH",
"146 650 OFFCURVE",
"89 447 OFFCURVE",
"64 305 CURVE SMOOTH",
"29 108 OFFCURVE",
"134 0 OFFCURVE",
"230 0 CURVE SMOOTH"
);
}
);
vertWidth = 0;
width = 521;
},
{
layerId = "140DECC1-64C4-40C0-9C07-503DBC3F4160";
leftMetricsKey = O;
rightMetricsKey = N;
paths = (
{
closed = 1;
nodes = (
"336 0 OFFCURVE",
"422 39 OFFCURVE",
"480 103 CURVE SMOOTH",
"505 130 OFFCURVE",
"514 143 OFFCURVE",
"514 162 CURVE SMOOTH",
"514 180 OFFCURVE",
"500 196 OFFCURVE",
"474 196 CURVE SMOOTH",
"458 196 OFFCURVE",
"438 190 OFFCURVE",
"414 164 CURVE SMOOTH",
"373 118 OFFCURVE",
"313 90 OFFCURVE",
"256 90 CURVE SMOOTH",
"182 90 OFFCURVE",
"143 181 OFFCURVE",
"164 304 CURVE SMOOTH",
"193 474 OFFCURVE",
"266 560 OFFCURVE",
"382 560 CURVE SMOOTH",
"428 560 OFFCURVE",
"460 550 OFFCURVE",
"492 520 CURVE SMOOTH",
"516 498 OFFCURVE",
"546 489 OFFCURVE",
"568 511 CURVE SMOOTH",
"591 534 OFFCURVE",
"578 563 OFFCURVE",
"553 586 CURVE SMOOTH",
"500 634 OFFCURVE",
"445 650 OFFCURVE",
"383 650 CURVE SMOOTH",
"211 650 OFFCURVE",
"104 534 OFFCURVE",
"64 305 CURVE SMOOTH",
"34 130 OFFCURVE",
"115 0 OFFCURVE",
"255 0 CURVE SMOOTH"
);
}
);
vertWidth = 0;
width = 566;
}
);
leftKerningGroup = O_left;
note = "";
unicode = 0043;
},
{
glyphname = D;
lastChange = "2022-03-24 05:38:38 +0000";
layers = (
{
layerId = m01;
leftMetricsKey = N;
rightMetricsKey = O;
paths = (
{
closed = 1;
nodes = (
"122 0 LINE SMOOTH",
"314 0 OFFCURVE",
"476 122 OFFCURVE",
"505 344 CURVE SMOOTH",
"531 543 OFFCURVE",
"390 650 OFFCURVE",
"205 650 CURVE SMOOTH",
"169 650 LINE SMOOTH",
"148 650 OFFCURVE",
"143 639 OFFCURVE",
"140 623 CURVE SMOOTH",
"35 27 LINE SMOOTH",
"32 12 OFFCURVE",
"40 0 OFFCURVE",
"58 0 CURVE SMOOTH"
);
},
{
closed = 1;
nodes = (
"187 604 LINE",
"209 604 LINE SMOOTH",
"362 604 OFFCURVE",
"474 512 OFFCURVE",
"455 351 CURVE SMOOTH",
"431 149 OFFCURVE",
"284 46 OFFCURVE",
"122 46 CURVE SMOOTH",
"90 46 LINE"
);
}
);
vertWidth = 0;
width = 525;
},
{
layerId = "140DECC1-64C4-40C0-9C07-503DBC3F4160";
leftMetricsKey = N;
rightMetricsKey = O;
paths = (
{
closed = 1;
nodes = (
"162 0 LINE SMOOTH",
"363 0 OFFCURVE",
"532 150 OFFCURVE",
"559 351 CURVE SMOOTH",
"584 536 OFFCURVE",
"462 650 OFFCURVE",
"239 650 CURVE SMOOTH",
"189 650 LINE SMOOTH",
"158 650 OFFCURVE",
"143 636 OFFCURVE",
"138 609 CURVE SMOOTH",
"39 49 LINE SMOOTH",
"34 22 OFFCURVE",
"53 0 OFFCURVE",
"84 0 CURVE SMOOTH"
);
},
{
closed = 1;
nodes = (
"231 561 LINE",
"244 561 LINE SMOOTH",
"396 561 OFFCURVE",
"479 480 OFFCURVE",
"462 350 CURVE SMOOTH",
"443 201 OFFCURVE",
"314 89 OFFCURVE",
"162 89 CURVE SMOOTH",
"148 89 LINE"
);
}
);
vertWidth = 0;
width = 577;
}
);
leftKerningGroup = H_left;
note = "";
rightKerningGroup = O_right;
unicode = 0044;
},
{
glyphname = E;
lastChange = "2022-03-24 05:39:37 +0000";
layers = (
{
layerId = m01;
leftMetricsKey = N;
rightMetricsKey = N;
paths = (
{
closed = 1;
nodes = (
"393 0 LINE SMOOTH",
"413 0 OFFCURVE",
"419 14 OFFCURVE",
"419 26 CURVE SMOOTH",
"419 38 OFFCURVE",
"413 46 OFFCURVE",
"393 46 CURVE SMOOTH",
"90 46 LINE",
"187 604 LINE",
"491 604 LINE SMOOTH",
"511 604 OFFCURVE",
"517 613 OFFCURVE",
"517 625 CURVE SMOOTH",
"517 637 OFFCURVE",
"511 650 OFFCURVE",
"491 650 CURVE SMOOTH",
"170 650 LINE SMOOTH",
"148 650 OFFCURVE",
"143 639 OFFCURVE",
"140 623 CURVE SMOOTH",
"35 27 LINE SMOOTH",
"32 12 OFFCURVE",
"40 0 OFFCURVE",
"58 0 CURVE SMOOTH"
);
},
{
closed = 1;
nodes = (
"399 304 LINE SMOOTH",
"419 304 OFFCURVE",
"425 315 OFFCURVE",
"425 327 CURVE SMOOTH",
"425 339 OFFCURVE",
"419 350 OFFCURVE",
"399 350 CURVE SMOOTH",
"118 350 LINE",
"110 304 LINE"
);
}
);
vertWidth = 0;
width = 495;
},
{
layerId = "140DECC1-64C4-40C0-9C07-503DBC3F4160";
leftMetricsKey = N;
rightMetricsKey = N;
paths = (
{
closed = 1;
nodes = (
"423 0 LINE SMOOTH",
"453 0 OFFCURVE",
"473 16 OFFCURVE",
"473 42 CURVE SMOOTH",
"473 66 OFFCURVE",
"457 89 OFFCURVE",
"425 89 CURVE SMOOTH",
"149 89 LINE",
"232 561 LINE",
"522 561 LINE SMOOTH",
"552 561 OFFCURVE",
"573 580 OFFCURVE",
"573 606 CURVE SMOOTH",
"573 631 OFFCURVE",
"555 650 OFFCURVE",
"524 650 CURVE SMOOTH",
"191 650 LINE SMOOTH",
"160 650 OFFCURVE",
"143 639 OFFCURVE",
"138 611 CURVE SMOOTH",
"39 50 LINE SMOOTH",
"34 22 OFFCURVE",
"46 0 OFFCURVE",
"76 0 CURVE"
);
},
{
closed = 1;
nodes = (
"441 283 LINE SMOOTH",
"473 283 OFFCURVE",
"495 302 OFFCURVE",
"495 326 CURVE SMOOTH",
"495 352 OFFCURVE",
"476 368 OFFCURVE",
"446 368 CURVE SMOOTH",
"148 368 LINE",
"132 283 LINE"
);
}
);
vertWidth = 0;
width = 547;
}
);
leftKerningGroup = H_left;
note = "";
unicode = 0045;
},
{
glyphname = F;
layers = (
{
layerId = m01;
leftMetricsKey = N;
rightMetricsKey = N;
paths = (
{
closed = 1;
nodes = (
"80 0 OFFCURVE",
"84 15 OFFCURVE",
"86 25 CURVE SMOOTH",
"187 604 LINE",
"481 604 LINE SMOOTH",
"501 604 OFFCURVE",
"507 613 OFFCURVE",
"507 625 CURVE SMOOTH",
"507 637 OFFCURVE",
"501 650 OFFCURVE",
"481 650 CURVE SMOOTH",
"170 650 LINE SMOOTH",
"148 650 OFFCURVE",
"143 639 OFFCURVE",
"140 623 CURVE SMOOTH",
"35 27 LINE SMOOTH",
"32 12 OFFCURVE",
"40 0 OFFCURVE",
"58 0 CURVE SMOOTH"
);
},
{
closed = 1;
nodes = (
"388 304 LINE SMOOTH",
"408 304 OFFCURVE",
"414 315 OFFCURVE",
"414 327 CURVE SMOOTH",
"414 339 OFFCURVE",
"408 350 OFFCURVE",
"388 350 CURVE SMOOTH",
"115 350 LINE",
"108 304 LINE"
);
}
);
vertWidth = 0;
width = 477;
},
{
layerId = "140DECC1-64C4-40C0-9C07-503DBC3F4160";
leftMetricsKey = N;
rightMetricsKey = N;
paths = (
{
closed = 1;
nodes = (
"115 0 OFFCURVE",
"137 21 OFFCURVE",
"142 51 CURVE SMOOTH",
"232 561 LINE",
"511 561 LINE SMOOTH",
"544 561 OFFCURVE",
"563 583 OFFCURVE",
"563 604 CURVE SMOOTH",
"563 632 OFFCURVE",
"545 650 OFFCURVE",
"514 650 CURVE SMOOTH",
"189 650 LINE SMOOTH",
"158 650 OFFCURVE",
"143 638 OFFCURVE",
"138 610 CURVE SMOOTH",
"40 54 LINE SMOOTH",
"35 27 OFFCURVE",
"45 0 OFFCURVE",
"84 0 CURVE SMOOTH"
);
},
{
closed = 1;
nodes = (
"436 279 LINE SMOOTH",
"468 279 OFFCURVE",
"485 298 OFFCURVE",
"485 322 CURVE SMOOTH",
"485 348 OFFCURVE",
"467 364 OFFCURVE",
"437 364 CURVE SMOOTH",
"142 364 LINE",
"127 279 LINE"
);
}
);
vertWidth = 0;
width = 537;
}
);
leftKerningGroup = H_left;
note = "";
unicode = 0046;
},
{
glyphname = G;
layers = (
{
layerId = m01;
leftMetricsKey = O;
rightMetricsKey = N;
paths = (
{
closed = 1;
nodes = (
"292 0 OFFCURVE",
"355 42 OFFCURVE",
"435 169 CURVE",
"416 176 LINE",
"391 27 LINE SMOOTH",
"389 15 OFFCURVE",
"392 1 OFFCURVE",
"412 0 CURVE SMOOTH",
"435 -1 OFFCURVE",
"440 16 OFFCURVE",
"442 27 CURVE SMOOTH",
"481 253 LINE SMOOTH",
"484 270 OFFCURVE",
"480 280 OFFCURVE",
"461 280 CURVE",
"441 280 OFFCURVE",
"431 266 OFFCURVE",
"420 240 CURVE SMOOTH",
"367 119 OFFCURVE",
"296 46 OFFCURVE",
"225 46 CURVE SMOOTH",
"135 46 OFFCURVE",
"88 156 OFFCURVE",
"114 304 CURVE SMOOTH",
"148 503 OFFCURVE",
"230 604 OFFCURVE",
"357 604 CURVE SMOOTH",
"403 604 OFFCURVE",
"449 584 OFFCURVE",
"494 537 CURVE SMOOTH",
"507 524 OFFCURVE",
"521 527 OFFCURVE",
"529 536 CURVE SMOOTH",
"537 545 OFFCURVE",
"535 561 OFFCURVE",
"526 570 CURVE SMOOTH",
"477 621 OFFCURVE",
"420 650 OFFCURVE",
"358 650 CURVE SMOOTH",
"204 650 OFFCURVE",
"105 534 OFFCURVE",
"64 305 CURVE SMOOTH",
"34 130 OFFCURVE",
"102 0 OFFCURVE",
"224 0 CURVE SMOOTH"
);
}
);
vertWidth = 0;
width = 517;
},
{
layerId = "140DECC1-64C4-40C0-9C07-503DBC3F4160";
leftMetricsKey = O;
rightMetricsKey = N;
paths = (
{
closed = 1;
nodes = (
"318 0 OFFCURVE",
"370 51 OFFCURVE",
"425 141 CURVE",
"407 145 LINE",
"390 49 LINE SMOOTH",
"384 18 OFFCURVE",
"405 0 OFFCURVE",
"439 0 CURVE SMOOTH",
"474 0 OFFCURVE",
"483 18 OFFCURVE",
"487 42 CURVE SMOOTH",
"527 267 LINE SMOOTH",
"532 298 OFFCURVE",
"516 317 OFFCURVE",
"485 317 CURVE SMOOTH",
"465 317 OFFCURVE",
"444 312 OFFCURVE",
"418 266 CURVE SMOOTH",
"368 178 OFFCURVE",
"303 90 OFFCURVE",
"235 90 CURVE SMOOTH",
"176 90 OFFCURVE",
"141 172 OFFCURVE",
"164 304 CURVE SMOOTH",
"193 474 OFFCURVE",
"266 560 OFFCURVE",
"382 560 CURVE SMOOTH",
"428 560 OFFCURVE",
"460 550 OFFCURVE",
"492 520 CURVE SMOOTH",
"516 498 OFFCURVE",
"546 489 OFFCURVE",
"568 511 CURVE SMOOTH",
"591 534 OFFCURVE",
"578 563 OFFCURVE",
"553 586 CURVE SMOOTH",
"500 634 OFFCURVE",
"445 650 OFFCURVE",
"383 650 CURVE SMOOTH",
"211 650 OFFCURVE",
"104 534 OFFCURVE",
"64 305 CURVE SMOOTH",
"31 116 OFFCURVE",
"104 0 OFFCURVE",
"234 0 CURVE SMOOTH"
);
}
);
vertWidth = 0;
width = 566;
}
);
leftKerningGroup = O_left;
note = "";
unicode = 0047;
},
{
glyphname = H;
layers = (
{
layerId = m01;
leftMetricsKey = N;
rightMetricsKey = N;
paths = (
{
closed = 1;
nodes = (
"80 0 OFFCURVE",
"84 15 OFFCURVE",
"86 25 CURVE SMOOTH",
"190 619 LINE SMOOTH",
"193 637 OFFCURVE",
"187 650 OFFCURVE",
"170 650 CURVE SMOOTH",
"151 650 OFFCURVE",
"143 639 OFFCURVE",
"140 623 CURVE SMOOTH",
"35 27 LINE SMOOTH",
"32 12 OFFCURVE",
"40 0 OFFCURVE",
"58 0 CURVE SMOOTH"
);
},
{
closed = 1;
nodes = (
"428 304 LINE",
"436 350 LINE",
"134 350 LINE",
"126 304 LINE"
);
},
{
closed = 1;
nodes = (
"413 0 OFFCURVE",
"419 13 OFFCURVE",
"421 22 CURVE SMOOTH",
"526 621 LINE SMOOTH",
"529 638 OFFCURVE",
"523 650 OFFCURVE",
"503 650 CURVE SMOOTH",
"485 650 OFFCURVE",
"478 638 OFFCURVE",
"476 628 CURVE SMOOTH",
"371 27 LINE SMOOTH",
"369 15 OFFCURVE",
"371 0 OFFCURVE",
"394 0 CURVE SMOOTH"
);
}
);
vertWidth = 0;
width = 517;
},
{
layerId = "140DECC1-64C4-40C0-9C07-503DBC3F4160";
leftMetricsKey = N;
rightMetricsKey = N;
paths = (
{
closed = 1;
nodes = (
"120 0 OFFCURVE",
"136 20 OFFCURVE",
"139 40 CURVE SMOOTH",
"236 597 LINE SMOOTH",
"242 632 OFFCURVE",
"224 650 OFFCURVE",
"195 650 CURVE SMOOTH",
"168 650 OFFCURVE",
"142 637 OFFCURVE",
"137 609 CURVE SMOOTH",
"39 49 LINE SMOOTH",
"34 21 OFFCURVE",
"54 0 OFFCURVE",
"86 0 CURVE SMOOTH"
);
},
{
closed = 1;
nodes = (
"465 282 LINE",
"479 372 LINE",
"146 372 LINE",
"132 282 LINE"
);
},
{
closed = 1;
nodes = (
"448 0 OFFCURVE",
"469 17 OFFCURVE",
"473 37 CURVE SMOOTH",
"571 599 LINE SMOOTH",
"577 631 OFFCURVE",
"556 650 OFFCURVE",
"525 650 CURVE SMOOTH",
"497 650 OFFCURVE",
"476 635 OFFCURVE",
"472 613 CURVE SMOOTH",
"374 49 LINE SMOOTH",
"369 20 OFFCURVE",
"386 0 OFFCURVE",
"419 0 CURVE SMOOTH"
);
}
);
vertWidth = 0;
width = 566;
}
);
leftKerningGroup = H_left;
note = "";
rightKerningGroup = H_right;
unicode = 0048;
},
{
glyphname = I;
layers = (
{
layerId = m01;
leftMetricsKey = N;
rightMetricsKey = N;
paths = (
{
closed = 1;
nodes = (
"133 24 LINE",
"239 629 LINE",
"188 630 LINE",
"82 24 LINE"
);
},
{
closed = 1;
nodes = (
"154 0 LINE SMOOTH",
"174 0 OFFCURVE",
"180 11 OFFCURVE",
"180 23 CURVE SMOOTH",
"180 35 OFFCURVE",
"174 46 OFFCURVE",
"154 46 CURVE SMOOTH",
"61 46 LINE SMOOTH",
"41 46 OFFCURVE",
"35 35 OFFCURVE",
"35 23 CURVE SMOOTH",
"35 11 OFFCURVE",
"41 0 OFFCURVE",
"61 0 CURVE SMOOTH"
);
},
{
closed = 1;
nodes = (
"258 604 LINE SMOOTH",
"278 604 OFFCURVE",
"284 616 OFFCURVE",
"284 628 CURVE SMOOTH",
"284 640 OFFCURVE",
"278 650 OFFCURVE",
"258 650 CURVE SMOOTH",
"169 650 LINE SMOOTH",
"149 650 OFFCURVE",
"143 640 OFFCURVE",
"143 628 CURVE SMOOTH",
"143 616 OFFCURVE",
"149 604 OFFCURVE",
"169 604 CURVE SMOOTH"
);
}
);
vertWidth = 0;
width = 276;
},
{
layerId = "140DECC1-64C4-40C0-9C07-503DBC3F4160";
leftMetricsKey = N;
rightMetricsKey = N;
paths = (
{
closed = 1;
nodes = (
"219 39 LINE",
"318 612 LINE",
"217 612 LINE",
"118 39 LINE"
);
},
{
closed = 1;
nodes = (
"252 0 LINE SMOOTH",
"285 0 OFFCURVE",
"296 20 OFFCURVE",
"300 44 CURVE SMOOTH",
"304 68 OFFCURVE",
"291 90 OFFCURVE",
"266 90 CURVE SMOOTH",
"88 90 LINE SMOOTH",
"56 90 OFFCURVE",
"41 68 OFFCURVE",
"37 44 CURVE SMOOTH",
"33 20 OFFCURVE",
"49 0 OFFCURVE",
"74 0 CURVE SMOOTH"
);
},
{
closed = 1;
nodes = (
"352 560 LINE SMOOTH",
"384 560 OFFCURVE",
"398 583 OFFCURVE",
"402 607 CURVE SMOOTH",
"406 631 OFFCURVE",
"389 650 OFFCURVE",
"366 650 CURVE SMOOTH",
"188 650 LINE SMOOTH",
"157 650 OFFCURVE",
"143 631 OFFCURVE",
"139 607 CURVE SMOOTH",
"135 583 OFFCURVE",
"151 560 OFFCURVE",
"174 560 CURVE SMOOTH"
);
}
);
vertWidth = 0;
width = 394;
}
);
note = "";
unicode = 0049;
},
{
glyphname = J;
layers = (
{
layerId = m01;
leftMetricsKey = N;
rightMetricsKey = N;
paths = (
{
closed = 1;
nodes = (
"71 0 OFFCURVE",
"161 4 OFFCURVE",
"180 7 CURVE SMOOTH",
"316 27 OFFCURVE",
"342.91202 148.16812 OFFCURVE",
"369 296 CURVE SMOOTH",
"428 625 LINE",
"377 625 LINE",
"319 301 LINE SMOOTH",
"299.32952 187.89475 OFFCURVE",
"282 71 OFFCURVE",
"184 54 CURVE SMOOTH",
"157 49 OFFCURVE",
"64 46 OFFCURVE",
"40 46 CURVE SMOOTH",
"28 46 OFFCURVE",
"15 38 OFFCURVE",
"15 24 CURVE SMOOTH",
"15 9 OFFCURVE",
"28 0 OFFCURVE",
"40 0 CURVE SMOOTH"
);
},
{
closed = 1;
nodes = (
"554 604 LINE SMOOTH",
"574 604 OFFCURVE",
"580 615 OFFCURVE",
"580 627 CURVE SMOOTH",
"580 639 OFFCURVE",
"574 650 OFFCURVE",
"554 650 CURVE SMOOTH",
"250 650 LINE SMOOTH",
"230 650 OFFCURVE",
"224 639 OFFCURVE",
"224 627 CURVE SMOOTH",
"224 615 OFFCURVE",
"230 604 OFFCURVE",
"250 604 CURVE SMOOTH"
);
}
);
vertWidth = 0;
width = 570;
},
{
layerId = "140DECC1-64C4-40C0-9C07-503DBC3F4160";
leftMetricsKey = N;
rightMetricsKey = N;
paths = (
{
closed = 1;
nodes = (
"98 0 OFFCURVE",
"184 2 OFFCURVE",
"202 4 CURVE SMOOTH",
"384 26 OFFCURVE",
"382 158 OFFCURVE",
"407 294 CURVE SMOOTH",
"462 602 LINE",
"360 602 LINE",
"308 306 LINE SMOOTH",
"290 200 OFFCURVE",
"280 105 OFFCURVE",
"200 95 CURVE SMOOTH",
"176 92 OFFCURVE",
"89 90 OFFCURVE",
"68 90 CURVE SMOOTH",
"44 90 OFFCURVE",
"19 71 OFFCURVE",
"19 45 CURVE SMOOTH",
"19 18 OFFCURVE",
"44 0 OFFCURVE",
"68 0 CURVE SMOOTH"
);
},
{
closed = 1;
nodes = (
"556 560 LINE SMOOTH",
"588 560 OFFCURVE",
"606 580 OFFCURVE",
"606 606 CURVE SMOOTH",
"606 634 OFFCURVE",
"587 650 OFFCURVE",
"557 650 CURVE SMOOTH",
"269 650 LINE SMOOTH",
"238 650 OFFCURVE",
"219 633 OFFCURVE",
"219 606 CURVE SMOOTH",
"219 578 OFFCURVE",
"238 560 OFFCURVE",
"268 560 CURVE SMOOTH"
);
}
);
vertWidth = 0;
width = 601;
}
);
note = "";
rightKerningGroup = H_right;
unicode = 004A;
},
{
glyphname = K;
layers = (
{
layerId = m01;
leftMetricsKey = N;
paths = (
{
closed = 1;
nodes = (
"409 0 OFFCURVE",
"422 10 OFFCURVE",
"422 23 CURVE SMOOTH",
"422 30 OFFCURVE",
"418 37 OFFCURVE",
"410 48 CURVE SMOOTH",
"168 369 LINE",
"160 331 LINE",
"509 603 LINE SMOOTH",
"521 613 OFFCURVE",
"528 619 OFFCURVE",
"528 631 CURVE SMOOTH",
"528 640 OFFCURVE",
"521 650 OFFCURVE",
"508 650 CURVE SMOOTH",
"500 651 OFFCURVE",
"489 647 OFFCURVE",
"477 637 CURVE SMOOTH",
"125 360 LINE",
"126 345 LINE",
"368 19 LINE SMOOTH",
"375 9 OFFCURVE",
"384 0 OFFCURVE",
"397 0 CURVE SMOOTH"
);
},
{
closed = 1;
nodes = (
"80 0 OFFCURVE",
"85 18 OFFCURVE",
"87 31 CURVE SMOOTH",
"191 619 LINE SMOOTH",
"194 637 OFFCURVE",
"190 650 OFFCURVE",
"171 650 CURVE SMOOTH",
"151 650 OFFCURVE",
"144 639 OFFCURVE",
"141 623 CURVE SMOOTH",
"36 32 LINE SMOOTH",
"33 17 OFFCURVE",
"41 0 OFFCURVE",
"59 0 CURVE SMOOTH"
);
}
);
vertWidth = 0;
width = 468;
},
{
layerId = "140DECC1-64C4-40C0-9C07-503DBC3F4160";
leftMetricsKey = N;
paths = (
{
closed = 1;
nodes = (
"449 0 OFFCURVE",
"469 22 OFFCURVE",
"469 47 CURVE SMOOTH",
"469 61 OFFCURVE",
"464 75 OFFCURVE",
"457 85 CURVE SMOOTH",
"257 370 LINE",
"248 321 LINE",
"548 566 LINE SMOOTH",
"562 578 OFFCURVE",
"573 593 OFFCURVE",
"573 611 CURVE SMOOTH",
"573 631 OFFCURVE",
"558 650 OFFCURVE",
"529 650 CURVE SMOOTH",
"513 650 OFFCURVE",
"493 644 OFFCURVE",
"477 631 CURVE SMOOTH",
"156 369 LINE",
"155 339 LINE",
"373 25 LINE SMOOTH",
"384 9 OFFCURVE",
"403 0 OFFCURVE",
"422 0 CURVE SMOOTH"
);
},
{
closed = 1;
nodes = (
"119 0 OFFCURVE",
"135 19 OFFCURVE",
"140 45 CURVE SMOOTH",
"238 597 LINE SMOOTH",
"245 636 OFFCURVE",
"218 650 OFFCURVE",
"194 650 CURVE SMOOTH",
"168 650 OFFCURVE",
"144 637 OFFCURVE",
"139 609 CURVE SMOOTH",
"40 54 LINE SMOOTH",
"35 24 OFFCURVE",
"56 0 OFFCURVE",
"88 0 CURVE SMOOTH"
);
}
);
vertWidth = 0;
width = 516;
}
);
leftKerningGroup = H_left;
note = "";
unicode = 004B;
},
{
glyphname = L;
layers = (
{
layerId = m01;
leftMetricsKey = N;
rightMetricsKey = K;
paths = (
{
closed = 1;
nodes = (
"395 0 LINE SMOOTH",
"413 0 OFFCURVE",
"421 14 OFFCURVE",
"421 26 CURVE SMOOTH",
"421 38 OFFCURVE",
"413 46 OFFCURVE",
"395 46 CURVE SMOOTH",
"89 46 LINE",
"190 619 LINE SMOOTH",
"193 637 OFFCURVE",
"190 650 OFFCURVE",
"170 650 CURVE SMOOTH",
"150 650 OFFCURVE",
"143 639 OFFCURVE",
"140 623 CURVE SMOOTH",
"35 27 LINE SMOOTH",
"32 12 OFFCURVE",
"40 0 OFFCURVE",
"58 0 CURVE SMOOTH"
);
}
);
vertWidth = 0;
width = 467;
},
{
layerId = "140DECC1-64C4-40C0-9C07-503DBC3F4160";
leftMetricsKey = N;
rightMetricsKey = K;
paths = (
{
closed = 1;
nodes = (
"428 0 LINE SMOOTH",
"458 0 OFFCURVE",
"478 22 OFFCURVE",
"478 46 CURVE SMOOTH",
"478 70 OFFCURVE",
"458 90 OFFCURVE",
"428 90 CURVE SMOOTH",
"148 90 LINE",
"238 597 LINE SMOOTH",
"245 639 OFFCURVE",
"221 650 OFFCURVE",
"196 650 CURVE SMOOTH",
"167 650 OFFCURVE",
"143 637 OFFCURVE",
"138 609 CURVE SMOOTH",
"39 49 LINE SMOOTH",
"34 21 OFFCURVE",
"52 0 OFFCURVE",
"82 0 CURVE SMOOTH"
);
}
);
vertWidth = 0;
width = 521;
}
);
leftKerningGroup = H_left;
note = "";
unicode = 004C;
},
{
glyphname = M;
layers = (
{
layerId = m01;
leftMetricsKey = A;
rightMetricsKey = A;
paths = (
{
closed = 1;
nodes = (
"12 0 OFFCURVE",
"25 7 OFFCURVE",
"34 25 CURVE SMOOTH",
"314 569 LINE",
"304 572 LINE",
"345 24 LINE SMOOTH",
"346 14 OFFCURVE",
"350 0 OFFCURVE",
"373 0 CURVE SMOOTH",
"392 0 OFFCURVE",
"400 17 OFFCURVE",
"404 24 CURVE SMOOTH",
"686 571 LINE",
"676 574 LINE",
"718 24 LINE SMOOTH",
"719 14 OFFCURVE",
"724 0 OFFCURVE",
"745 0 CURVE SMOOTH",
"761 0 OFFCURVE",
"769 11 OFFCURVE",
"768 26 CURVE SMOOTH",
"719 622 LINE SMOOTH",
"718 638 OFFCURVE",
"715 650 OFFCURVE",
"694 650 CURVE SMOOTH",
"672 650 OFFCURVE",
"666 635 OFFCURVE",
"660 624 CURVE SMOOTH",
"378 76 LINE",
"388 73 LINE",
"346 631 LINE SMOOTH",
"345 639 OFFCURVE",
"339 650 OFFCURVE",
"321 650 CURVE SMOOTH",
"304 650 OFFCURVE",
"297 639 OFFCURVE",
"290 625 CURVE SMOOTH",
"-16 38 LINE SMOOTH",
"-28 14 OFFCURVE",
"-15 0 OFFCURVE",
"1 0 CURVE SMOOTH"
);
}
);
vertWidth = 0;
width = 814;
},
{
layerId = "140DECC1-64C4-40C0-9C07-503DBC3F4160";
leftMetricsKey = A;
rightMetricsKey = A;
paths = (
{
closed = 1;
nodes = (
"51 0 OFFCURVE",
"79 9 OFFCURVE",
"91 33 CURVE SMOOTH",
"309 459 LINE",
"300 462 LINE",
"332 40 LINE SMOOTH",
"334 18 OFFCURVE",
"351 0 OFFCURVE",
"381 0 CURVE SMOOTH",
"421 0 OFFCURVE",
"431 19 OFFCURVE",
"437 31 CURVE SMOOTH",
"657 459 LINE",
"649 462 LINE",
"679 40 LINE SMOOTH",
"680 19 OFFCURVE",
"702 0 OFFCURVE",
"733 0 CURVE SMOOTH",
"762 0 OFFCURVE",
"781 20 OFFCURVE",
"779 46 CURVE SMOOTH",
"733 606 LINE SMOOTH",
"731 635 OFFCURVE",
"725 650 OFFCURVE",
"689 650 CURVE SMOOTH",
"660 650 OFFCURVE",
"642 638 OFFCURVE",
"631 616 CURVE SMOOTH",
"408 184 LINE",
"416 181 LINE",
"385 606 LINE SMOOTH",
"383 635 OFFCURVE",
"371 650 OFFCURVE",
"330 650 CURVE SMOOTH",
"303 650 OFFCURVE",
"294 638 OFFCURVE",
"283 617 CURVE SMOOTH",
"-6 64 LINE SMOOTH",
"-24 30 OFFCURVE",
"3 0 OFFCURVE",
"33 0 CURVE SMOOTH"
);
}
);
vertWidth = 0;
width = 822;
}
);
leftKerningGroup = H_left;
note = "";
rightKerningGroup = H_right;
unicode = 004D;
},
{
glyphname = N;
layers = (
{
layerId = m01;
paths = (
{
closed = 1;
nodes = (
"80 0 OFFCURVE",
"84 16 OFFCURVE",
"86 28 CURVE SMOOTH",
"182 577 LINE",
"167 575 LINE",
"370 18 LINE SMOOTH",
"374 8 OFFCURVE",
"383 0 OFFCURVE",
"397 0 CURVE SMOOTH",
"418 0 OFFCURVE",
"420 15 OFFCURVE",
"422 25 CURVE SMOOTH",
"526 619 LINE SMOOTH",
"529 637 OFFCURVE",
"526 650 OFFCURVE",
"507 650 CURVE SMOOTH",
"487 650 OFFCURVE",
"480 639 OFFCURVE",
"477 623 CURVE SMOOTH",
"381 83 LINE",
"396 85 LINE",
"200 630 LINE SMOOTH",
"197 639 OFFCURVE",
"187 650 OFFCURVE",
"169 650 CURVE SMOOTH",
"148 650 OFFCURVE",
"143 639 OFFCURVE",
"140 623 CURVE SMOOTH",
"35 27 LINE SMOOTH",
"32 12 OFFCURVE",
"40 0 OFFCURVE",
"58 0 CURVE SMOOTH"
);
}
);
vertWidth = 0;
width = 518;
},
{
layerId = "140DECC1-64C4-40C0-9C07-503DBC3F4160";
paths = (
{
closed = 1;
nodes = (
"115 0 OFFCURVE",
"135 19 OFFCURVE",
"139 42 CURVE SMOOTH",
"209 463 LINE",
"197 460 LINE",
"378 28 LINE SMOOTH",
"386 10 OFFCURVE",
"401 0 OFFCURVE",
"426 0 CURVE",
"460 0 OFFCURVE",
"469 19 OFFCURVE",
"473 40 CURVE SMOOTH",
"571 597 LINE SMOOTH",
"577 629 OFFCURVE",
"561 653 OFFCURVE",
"528 653 CURVE SMOOTH",
"500 653 OFFCURVE",
"477 637 OFFCURVE",
"472 609 CURVE SMOOTH",
"402 184 LINE",
"414 187 LINE",
"232 620 LINE SMOOTH",
"223 641 OFFCURVE",
"205 650 OFFCURVE",
"185 650 CURVE",
"160 650 OFFCURVE",
"143 636 OFFCURVE",
"138 609 CURVE SMOOTH",
"39 49 LINE SMOOTH",
"34 21 OFFCURVE",
"53 0 OFFCURVE",
"82 0 CURVE SMOOTH"
);
}
);
vertWidth = 0;
width = 566;
}
);
leftKerningGroup = H_left;
note = "";
rightKerningGroup = H_right;
unicode = 004E;
},
{
glyphname = O;
layers = (
{
layerId = m01;
paths = (
{
closed = 1;
nodes = (
"412 0 OFFCURVE",
"489 256 OFFCURVE",
"512 387 CURVE SMOOTH",
"541 551 OFFCURVE",
"488 650 OFFCURVE",
"346 650 CURVE SMOOTH",
"168 650 OFFCURVE",
"92 467 OFFCURVE",
"68 329 CURVE SMOOTH",
"40 167 OFFCURVE",
"67 0 OFFCURVE",
"240 0 CURVE SMOOTH"
);
},
{
closed = 1;
nodes = (
"106 46 OFFCURVE",
"96 202 OFFCURVE",
"117 319 CURVE SMOOTH",
"133 406 OFFCURVE",
"195 604 OFFCURVE",
"341 604 CURVE SMOOTH",
"474 604 OFFCURVE",
"482 495 OFFCURVE",
"462 381 CURVE SMOOTH",
"443 271 OFFCURVE",
"355 46 OFFCURVE",
"239 46 CURVE SMOOTH"
);
}
);
vertWidth = 0;
width = 524;
},
{
layerId = "140DECC1-64C4-40C0-9C07-503DBC3F4160";
paths = (
{
closed = 1;
nodes = (
"407 0 OFFCURVE",
"520 148 OFFCURVE",
"562 387 CURVE SMOOTH",
"591 551 OFFCURVE",
"538 650 OFFCURVE",
"371 650 CURVE SMOOTH",
"208 650 OFFCURVE",
"106 542 OFFCURVE",
"68 329 CURVE SMOOTH",
"33 126 OFFCURVE",
"108 0 OFFCURVE",
"265 0 CURVE SMOOTH"
);
},
{
closed = 1;
nodes = (
"179 90 OFFCURVE",
"142 177 OFFCURVE",
"167 319 CURVE SMOOTH",
"196 479 OFFCURVE",
"263 560 OFFCURVE",
"366 560 CURVE SMOOTH",
"474 560 OFFCURVE",
"482 495 OFFCURVE",
"462 381 CURVE SMOOTH",
"431 201 OFFCURVE",
"355 90 OFFCURVE",
"264 90 CURVE SMOOTH"
);
}
);
vertWidth = 0;
width = 574;
}
);
leftKerningGroup = O_left;
note = "";
rightKerningGroup = O_right;
unicode = 004F;
},
{
glyphname = P;
layers = (
{
layerId = m01;
leftMetricsKey = N;
paths = (
{
closed = 1;
nodes = (
"80 0 OFFCURVE",
"83 15 OFFCURVE",
"85 25 CURVE SMOOTH",
"187 604 LINE",
"384 602 OFFCURVE",
"461 556 OFFCURVE",
"451 481 CURVE SMOOTH",
"436 367 OFFCURVE",
"289 350 OFFCURVE",
"117 350 CURVE",
"110 304 LINE",
"318 304 OFFCURVE",
"479 321 OFFCURVE",
"501 476 CURVE SMOOTH",
"518 598 OFFCURVE",
"385 650 OFFCURVE",
"170 650 CURVE SMOOTH",
"148 650 OFFCURVE",
"143 639 OFFCURVE",
"140 623 CURVE SMOOTH",
"35 27 LINE SMOOTH",
"32 12 OFFCURVE",
"40 0 OFFCURVE",
"58 0 CURVE SMOOTH"
);
}
);
vertWidth = 0;
width = 497;
},
{
layerId = "140DECC1-64C4-40C0-9C07-503DBC3F4160";
leftMetricsKey = N;
paths = (
{
closed = 1;
nodes = (
"119 0 OFFCURVE",
"132 17 OFFCURVE",
"136 39 CURVE SMOOTH",
"228 562 LINE",
"433 562 OFFCURVE",
"459 533 OFFCURVE",
"451 472 CURVE SMOOTH",
"440 382 OFFCURVE",
"301 364 OFFCURVE",
"146 363 CURVE",
"134 273 LINE",
"330 274 OFFCURVE",
"523 289 OFFCURVE",
"548 467 CURVE SMOOTH",
"567 602 OFFCURVE",
"435 650 OFFCURVE",
"190 650 CURVE SMOOTH",
"160 650 OFFCURVE",
"142 637 OFFCURVE",
"137 609 CURVE SMOOTH",
"38 48 LINE SMOOTH",
"33 21 OFFCURVE",
"52 0 OFFCURVE",
"85 0 CURVE SMOOTH"
);
}
);
vertWidth = 0;
width = 546;
}
);
leftKerningGroup = H_left;
note = "";
unicode = 0050;
},
{
glyphname = Q;
layers = (
{
layerId = m01;
leftMetricsKey = O;
rightMetricsKey = O;
paths = (
{
closed = 1;
nodes = (
"412 0 OFFCURVE",
"489 256 OFFCURVE",
"512 387 CURVE SMOOTH",
"541 551 OFFCURVE",
"488 650 OFFCURVE",
"346 650 CURVE SMOOTH",
"168 650 OFFCURVE",
"92 467 OFFCURVE",
"68 329 CURVE SMOOTH",
"40 167 OFFCURVE",
"67 0 OFFCURVE",
"240 0 CURVE SMOOTH"
);
},
{
closed = 1;
nodes = (
"106 46 OFFCURVE",
"96 202 OFFCURVE",
"117 319 CURVE SMOOTH",
"133 406 OFFCURVE",
"195 604 OFFCURVE",
"341 604 CURVE SMOOTH",
"474 604 OFFCURVE",
"482 495 OFFCURVE",
"462 381 CURVE SMOOTH",
"443 271 OFFCURVE",
"355 46 OFFCURVE",
"239 46 CURVE SMOOTH"
);
},
{
closed = 1;
nodes = (
"424 -69 OFFCURVE",
"424 -50 OFFCURVE",
"416 -38 CURVE SMOOTH",
"308 119 LINE SMOOTH",
"298 133 OFFCURVE",
"280 140 OFFCURVE",
"266 128 CURVE SMOOTH",
"254 119 OFFCURVE",
"256 107 OFFCURVE",
"267 91 CURVE SMOOTH",
"371 -61 LINE SMOOTH",
"381 -76 OFFCURVE",
"397 -84 OFFCURVE",
"410 -77 CURVE SMOOTH"
);
}
);
vertWidth = 0;
width = 524;
},
{
layerId = "140DECC1-64C4-40C0-9C07-503DBC3F4160";
leftMetricsKey = O;
rightMetricsKey = O;
paths = (
{
closed = 1;
nodes = (
"407 0 OFFCURVE",
"520 148 OFFCURVE",
"562 387 CURVE SMOOTH",
"591 551 OFFCURVE",
"538 650 OFFCURVE",
"371 650 CURVE SMOOTH",
"208 650 OFFCURVE",
"106 542 OFFCURVE",
"68 329 CURVE SMOOTH",
"33 126 OFFCURVE",
"108 0 OFFCURVE",
"265 0 CURVE SMOOTH"
);
},
{
closed = 1;
nodes = (
"179 90 OFFCURVE",
"142 177 OFFCURVE",
"167 319 CURVE SMOOTH",
"196 479 OFFCURVE",
"263 560 OFFCURVE",
"366 560 CURVE SMOOTH",
"474 560 OFFCURVE",
"482 495 OFFCURVE",
"462 381 CURVE SMOOTH",
"431 201 OFFCURVE",
"355 90 OFFCURVE",
"264 90 CURVE SMOOTH"
);
},
{
closed = 1;
nodes = (
"465 -56 OFFCURVE",
"470 -28 OFFCURVE",
"454 -4 CURVE SMOOTH",
"347 154 LINE SMOOTH",
"329 181 OFFCURVE",
"298 189 OFFCURVE",
"276 173 CURVE SMOOTH",
"254 158 OFFCURVE",
"250 128 OFFCURVE",
"266 104 CURVE SMOOTH",
"371 -50 LINE SMOOTH",
"389 -77 OFFCURVE",
"420 -85 OFFCURVE",
"442 -71 CURVE SMOOTH"
);
}
);
vertWidth = 0;
width = 574;
}
);
leftKerningGroup = O_left;
note = "";
rightKerningGroup = O_right;
unicode = 0051;
},
{
glyphname = R;
layers = (
{
layerId = m01;
leftMetricsKey = N;
rightMetricsKey = K;
paths = (
{
closed = 1;
nodes = (
"80 0 OFFCURVE",
"84 16 OFFCURVE",
"87 31 CURVE SMOOTH",
"187 604 LINE",
"371 602 OFFCURVE",
"462 558 OFFCURVE",
"451 481 CURVE SMOOTH",
"435 368 OFFCURVE",
"287 350 OFFCURVE",
"116 350 CURVE",
"109 304 LINE",
"311 304 OFFCURVE",
"479 321 OFFCURVE",
"501 476 CURVE SMOOTH",
"518 598 OFFCURVE",
"388 650 OFFCURVE",
"170 650 CURVE SMOOTH",
"148 650 OFFCURVE",
"143 639 OFFCURVE",
"140 623 CURVE SMOOTH",
"36 33 LINE SMOOTH",
"33 16 OFFCURVE",
"40 0 OFFCURVE",
"58 0 CURVE SMOOTH"
);
},
{
closed = 1;
nodes = (
"420 0 OFFCURVE",
"431 24 OFFCURVE",
"408 50 CURVE SMOOTH",
"172 321 LINE",
"108 321 LINE",
"371 18 LINE SMOOTH",
"382 5 OFFCURVE",
"391 0 OFFCURVE",
"399 0 CURVE SMOOTH"
);
}
);
vertWidth = 0;
width = 497;
},
{
layerId = "140DECC1-64C4-40C0-9C07-503DBC3F4160";
leftMetricsKey = N;
rightMetricsKey = K;
paths = (
{
closed = 1;
nodes = (
"110 0 OFFCURVE",
"136 23 OFFCURVE",
"141 53 CURVE SMOOTH",
"231 560 LINE",
"409 561 OFFCURVE",
"463 531 OFFCURVE",
"452 470 CURVE SMOOTH",
"437 382 OFFCURVE",
"304 363 OFFCURVE",
"142 363 CURVE",
"128 273 LINE",
"328 273 OFFCURVE",
"517 289 OFFCURVE",
"549 467 CURVE SMOOTH",
"573 602 OFFCURVE",
"436 650 OFFCURVE",
"193 650 CURVE SMOOTH",
"162 650 OFFCURVE",
"143 637 OFFCURVE",
"138 609 CURVE SMOOTH",
"40 54 LINE SMOOTH",
"35 24 OFFCURVE",
"47 0 OFFCURVE",
"79 0 CURVE SMOOTH"
);
},
{
closed = 1;
nodes = (
"459 0 OFFCURVE",
"493 41 OFFCURVE",
"451 89 CURVE SMOOTH",
"250 318 LINE",
"121 318 LINE",
"375 23 LINE SMOOTH",
"393 3 OFFCURVE",
"414 0 OFFCURVE",
"427 0 CURVE SMOOTH"
);
}
);
vertWidth = 0;
width = 547;
}
);
leftKerningGroup = H_left;
note = "";
unicode = 0052;
},
{
glyphname = S;
layers = (
{
layerId = m01;
paths = (
{
closed = 1;
nodes = (
"293 0 OFFCURVE",
"375 75 OFFCURVE",
"375 196 CURVE SMOOTH",
"375 259 OFFCURVE",
"329 318 OFFCURVE",
"258 368 CURVE SMOOTH",
"184 419 OFFCURVE",
"139 450 OFFCURVE",
"139 497 CURVE SMOOTH",
"139 563 OFFCURVE",
"202 604 OFFCURVE",
"303 604 CURVE SMOOTH",
"372 604 OFFCURVE",
"388 584 OFFCURVE",
"394 547 CURVE SMOOTH",
"396 534 OFFCURVE",
"416 531 OFFCURVE",
"428 534 CURVE SMOOTH",
"443 538 OFFCURVE",
"443 552 OFFCURVE",
"441 562 CURVE SMOOTH",
"429 626 OFFCURVE",
"389 650 OFFCURVE",
"304 650 CURVE SMOOTH",
"172 650 OFFCURVE",
"90 590 OFFCURVE",
"90 494 CURVE SMOOTH",
"90 424 OFFCURVE",
"147 386 OFFCURVE",
"218 335 CURVE SMOOTH",
"297 279 OFFCURVE",
"325 237 OFFCURVE",
"325 189 CURVE SMOOTH",
"325 101 OFFCURVE",
"262 46 OFFCURVE",
"160 46 CURVE SMOOTH",
"102 46 OFFCURVE",
"72 66 OFFCURVE",
"64 103 CURVE SMOOTH",
"61 116 OFFCURVE",
"47 121 OFFCURVE",
"35 118 CURVE SMOOTH",
"20 114 OFFCURVE",
"15 98 OFFCURVE",
"17 88 CURVE SMOOTH",
"27 30 OFFCURVE",
"81 0 OFFCURVE",
"160 0 CURVE SMOOTH"
);
}
);
vertWidth = 0;
width = 425;
},
{
layerId = "140DECC1-64C4-40C0-9C07-503DBC3F4160";
paths = (
{
closed = 1;
nodes = (
"331 0 OFFCURVE",
"435 91 OFFCURVE",
"435 212 CURVE SMOOTH",
"435 269 OFFCURVE",
"413 312 OFFCURVE",
"311 385 CURVE SMOOTH",
"260 421 OFFCURVE",
"196 456 OFFCURVE",
"196 487 CURVE SMOOTH",
"196 535 OFFCURVE",
"244 560 OFFCURVE",
"339 560 CURVE SMOOTH",
"383 560 OFFCURVE",
"406 549 OFFCURVE",
"410 526 CURVE SMOOTH",
"415 496 OFFCURVE",
"445 489 OFFCURVE",
"467 495 CURVE SMOOTH",
"492 503 OFFCURVE",
"501 524 OFFCURVE",
"497 548 CURVE SMOOTH",
"483 621 OFFCURVE",
"434 650 OFFCURVE",
"354 650 CURVE SMOOTH",
"185 650 OFFCURVE",
"99 595 OFFCURVE",
"99 487 CURVE SMOOTH",
"99 392 OFFCURVE",
"190 352 OFFCURVE",
"244 313 CURVE SMOOTH",
"318 259 OFFCURVE",
"340 239 OFFCURVE",
"340 201 CURVE SMOOTH",
"340 139 OFFCURVE",
"284 90 OFFCURVE",
"209 90 CURVE SMOOTH",
"158 90 OFFCURVE",
"125 104 OFFCURVE",
"121 124 CURVE SMOOTH",
"115 153 OFFCURVE",
"86 158 OFFCURVE",
"65 154 CURVE SMOOTH",
"39 149 OFFCURVE",
"29 126 OFFCURVE",
"34 102 CURVE SMOOTH",
"45 39 OFFCURVE",
"105 0 OFFCURVE",
"192 0 CURVE SMOOTH"
);
}
);
vertWidth = 0;
width = 484;
}
);
note = "";
unicode = 0053;
},
{
glyphname = T;
layers = (
{
layerId = m01;
leftMetricsKey = O;
paths = (
{
closed = 1;
nodes = (
"250 0 OFFCURVE",
"253 15 OFFCURVE",
"255 25 CURVE SMOOTH",
"359 619 LINE",
"308 619 LINE",
"205 27 LINE SMOOTH",
"202 12 OFFCURVE",
"210 0 OFFCURVE",
"228 0 CURVE SMOOTH"
);
},
{
closed = 1;
nodes = (
"524 604 LINE SMOOTH",
"544 604 OFFCURVE",
"550 615 OFFCURVE",
"550 627 CURVE SMOOTH",
"550 639 OFFCURVE",
"544 650 OFFCURVE",
"524 650 CURVE SMOOTH",
"137 650 LINE SMOOTH",
"117 650 OFFCURVE",
"111 639 OFFCURVE",
"111 627 CURVE SMOOTH",
"111 615 OFFCURVE",
"117 604 OFFCURVE",
"137 604 CURVE SMOOTH"
);
}
);
vertWidth = 0;
width = 510;
},
{
layerId = "140DECC1-64C4-40C0-9C07-503DBC3F4160";
leftMetricsKey = O;
paths = (
{
closed = 1;
nodes = (
"249 -1 OFFCURVE",
"266 18 OFFCURVE",
"270 39 CURVE SMOOTH",
"371 617 LINE",
"270 617 LINE",
"170 49 LINE SMOOTH",
"165 21 OFFCURVE",
"185 -1 OFFCURVE",
"216 -1 CURVE SMOOTH"
);
},
{
closed = 1;
nodes = (
"500 563 LINE SMOOTH",
"532 563 OFFCURVE",
"550 583 OFFCURVE",
"550 607 CURVE SMOOTH",
"550 633 OFFCURVE",
"530 653 OFFCURVE",
"500 653 CURVE SMOOTH",
"138 653 LINE SMOOTH",
"108 653 OFFCURVE",
"88 633 OFFCURVE",
"88 607 CURVE SMOOTH",
"88 583 OFFCURVE",
"106 563 OFFCURVE",
"138 563 CURVE SMOOTH"
);
}
);
vertWidth = 0;
width = 494;
}
);
note = "";
unicode = 0054;
},
{
glyphname = U;
layers = (
{
layerId = m01;
leftMetricsKey = N;
rightMetricsKey = N;
paths = (
{
closed = 1;
nodes = (
"238 -4 OFFCURVE",
"385 174 OFFCURVE",
"459 417 CURVE",
"458 520 LINE",
"374 246 OFFCURVE",
"234 42 OFFCURVE",
"137 42 CURVE SMOOTH",
"90 42 OFFCURVE",
"100 116 OFFCURVE",
"112 180 CURVE SMOOTH",
"192 622 LINE SMOOTH",
"195 636 OFFCURVE",
"186 649 OFFCURVE",
"171 650 CURVE SMOOTH",
"155 650 OFFCURVE",
"144 636 OFFCURVE",
"141 620 CURVE SMOOTH",
"62 183 LINE SMOOTH",
"38 52 OFFCURVE",
"70 -4 OFFCURVE",
"129 -4 CURVE SMOOTH"
);
},
{
closed = 1;
nodes = (
"406 -1 OFFCURVE",
"418 7 OFFCURVE",
"421 22 CURVE SMOOTH",
"527 624 LINE SMOOTH",
"530 639 OFFCURVE",
"523 650 OFFCURVE",
"503 650 CURVE SMOOTH",
"485 650 OFFCURVE",
"478 638 OFFCURVE",
"476 626 CURVE SMOOTH",
"371 27 LINE SMOOTH",
"368 8 OFFCURVE",
"380 -1 OFFCURVE",
"394 -1 CURVE SMOOTH"
);
}
);
vertWidth = 0;
width = 517;
},
{
layerId = "140DECC1-64C4-40C0-9C07-503DBC3F4160";
leftMetricsKey = N;
rightMetricsKey = N;
paths = (
{
closed = 1;
nodes = (
"282 -4 OFFCURVE",
"415 146 OFFCURVE",
"483 389 CURVE",
"460 543 LINE",
"383 260 OFFCURVE",
"276 86 OFFCURVE",
"182 86 CURVE SMOOTH",
"151 86 OFFCURVE",
"153 125 OFFCURVE",
"164 185 CURVE SMOOTH",
"238 600 LINE SMOOTH",
"243 629 OFFCURVE",
"222 650 OFFCURVE",
"193 650 CURVE SMOOTH",
"161 651 OFFCURVE",
"141 624 OFFCURVE",
"138 606 CURVE SMOOTH",
"64 195 LINE SMOOTH",
"39 57 OFFCURVE",
"81 -4 OFFCURVE",
"154 -4 CURVE SMOOTH"
);
},
{
closed = 1;
nodes = (
"443 0 OFFCURVE",
"469 12 OFFCURVE",
"473 37 CURVE SMOOTH",
"572 602 LINE SMOOTH",
"577 630 OFFCURVE",
"559 650 OFFCURVE",
"525 650 CURVE SMOOTH",
"497 650 OFFCURVE",
"476 635 OFFCURVE",
"472 612 CURVE SMOOTH",
"374 49 LINE SMOOTH",
"368 16 OFFCURVE",
"392 0 OFFCURVE",
"420 0 CURVE SMOOTH"
);
}
);
vertWidth = 0;
width = 566;
}
);
leftKerningGroup = H_left;
note = "";
rightKerningGroup = H_right;
unicode = 0055;
},
{
glyphname = V;
layers = (
{
layerId = m01;
leftMetricsKey = A;
paths = (
{
closed = 1;
nodes = (
"170 0 OFFCURVE",
"174 11 OFFCURVE",
"181 25 CURVE SMOOTH",
"474 618 LINE SMOOTH",
"484 638 OFFCURVE",
"472 650 OFFCURVE",
"457 650 CURVE SMOOTH",
"438 650 OFFCURVE",
"430 642 OFFCURVE",
"422 625 CURVE SMOOTH",
"161 87 LINE",
"167 84 LINE",
"141 626 LINE SMOOTH",
"141 636 OFFCURVE",
"136 650 OFFCURVE",
"114 650 CURVE",
"96 650 OFFCURVE",
"90 639 OFFCURVE",
"91 624 CURVE SMOOTH",
"124 28 LINE SMOOTH",
"125 15 OFFCURVE",
"133 0 OFFCURVE",
"151 0 CURVE SMOOTH"
);
}
);
vertWidth = 0;
width = 417;
},
{
layerId = "140DECC1-64C4-40C0-9C07-503DBC3F4160";
leftMetricsKey = A;
paths = (
{
closed = 1;
nodes = (
"199 -2 OFFCURVE",
"211 15 OFFCURVE",
"221 34 CURVE SMOOTH",
"497 591 LINE SMOOTH",
"514 625 OFFCURVE",
"492 650 OFFCURVE",
"460 650 CURVE SMOOTH",
"431 650 OFFCURVE",
"412 638 OFFCURVE",
"402 618 CURVE SMOOTH",
"198 195 LINE",
"205 192 LINE",
"185 610 LINE SMOOTH",
"184 633 OFFCURVE",
"166 650 OFFCURVE",
"134 650 CURVE SMOOTH",
"105 650 OFFCURVE",
"86 634 OFFCURVE",
"88 604 CURVE SMOOTH",
"120 44 LINE SMOOTH",
"121 19 OFFCURVE",
"141 -2 OFFCURVE",
"170 -2 CURVE SMOOTH"
);
}
);
vertWidth = 0;
width = 445;
}
);
leftKerningGroup = V_left;
note = "";
rightKerningGroup = V_right;
unicode = 0056;
},
{
glyphname = W;
layers = (
{
layerId = m01;
leftMetricsKey = V;
rightMetricsKey = V;
paths = (
{
closed = 1;
nodes = (
"169 0 OFFCURVE",
"178 15 OFFCURVE",
"183 26 CURVE SMOOTH",
"446 570 LINE",
"439 573 LINE",
"467 19 LINE SMOOTH",
"468 6 OFFCURVE",
"476 0 OFFCURVE",
"493 0 CURVE SMOOTH",
"506 0 OFFCURVE",
"515 8 OFFCURVE",
"523 25 CURVE SMOOTH",
"815 618 LINE SMOOTH",
"825 638 OFFCURVE",
"813 650 OFFCURVE",
"795 650 CURVE SMOOTH",
"780 650 OFFCURVE",
"771 641 OFFCURVE",
"763 625 CURVE SMOOTH",
"503 89 LINE",
"510 86 LINE",
"482 626 LINE SMOOTH",
"481 636 OFFCURVE",
"476 650 OFFCURVE",
"452 650 CURVE SMOOTH",
"436 650 OFFCURVE",
"425 633 OFFCURVE",
"422 626 CURVE SMOOTH",
"161 85 LINE",
"168 82 LINE",
"141 626 LINE SMOOTH",
"141 636 OFFCURVE",
"136 650 OFFCURVE",
"114 650 CURVE",
"96 650 OFFCURVE",
"90 639 OFFCURVE",
"91 624 CURVE SMOOTH",
"124 28 LINE SMOOTH",
"125 12 OFFCURVE",
"135 0 OFFCURVE",
"152 0 CURVE SMOOTH"
);
}
);
vertWidth = 0;
width = 758;
},
{
layerId = "140DECC1-64C4-40C0-9C07-503DBC3F4160";
leftMetricsKey = V;
rightMetricsKey = V;
paths = (
{
closed = 1;
nodes = (
"191 0 OFFCURVE",
"209 13 OFFCURVE",
"220 34 CURVE SMOOTH",
"436 469 LINE",
"421 472 LINE",
"450 45 LINE SMOOTH",
"452 17 OFFCURVE",
"471 0 OFFCURVE",
"499 0 CURVE SMOOTH",
"521 0 OFFCURVE",
"541 13 OFFCURVE",
"551 35 CURVE SMOOTH",
"824 591 LINE SMOOTH",
"841 625 OFFCURVE",
"815 650 OFFCURVE",
"785 650 CURVE SMOOTH",
"754 650 OFFCURVE",
"737.09616 633.19232 OFFCURVE",
"728 615 CURVE SMOOTH",
"521 186 LINE",
"536 183 LINE",
"506 610 LINE SMOOTH",
"504 635 OFFCURVE",
"487 650 OFFCURVE",
"452 650 CURVE SMOOTH",
"419 650 OFFCURVE",
"410 631 OFFCURVE",
"404 619 CURVE SMOOTH",
"190 183 LINE",
"204 180 LINE",
"185 610 LINE SMOOTH",
"184 633 OFFCURVE",
"167 650 OFFCURVE",
"135 650 CURVE SMOOTH",
"106 650 OFFCURVE",
"86 634 OFFCURVE",
"88 604 CURVE SMOOTH",
"118 44 LINE SMOOTH",
"120 17 OFFCURVE",
"140 0 OFFCURVE",
"172 0 CURVE SMOOTH"
);
}
);
vertWidth = 0;
width = 772;
}
);
leftKerningGroup = V_left;
note = "";
rightKerningGroup = V_right;
unicode = 0057;
},
{
glyphname = X;
layers = (
{
layerId = m01;
leftMetricsKey = N;
paths = (
{
closed = 1;
nodes = (
"23 -3 OFFCURVE",
"42 -4 OFFCURVE",
"53 11 CURVE SMOOTH",
"487 609 LINE SMOOTH",
"498 624 OFFCURVE",
"496 638 OFFCURVE",
"487 645 CURVE SMOOTH",
"477 653 OFFCURVE",
"458 652 OFFCURVE",
"447 637 CURVE SMOOTH",
"10 38 LINE SMOOTH",
"1 26 OFFCURVE",
"3 13 OFFCURVE",
"12 6 CURVE SMOOTH"
);
},
{
closed = 1;
nodes = (
"388 8 OFFCURVE",
"392 20 OFFCURVE",
"386 35 CURVE SMOOTH",
"162 631 LINE SMOOTH",
"155 650 OFFCURVE",
"138 654 OFFCURVE",
"126 649 CURVE SMOOTH",
"114 645 OFFCURVE",
"109 631 OFFCURVE",
"116 613 CURVE SMOOTH",
"338 19 LINE SMOOTH",
"345 0 OFFCURVE",
"365 -3 OFFCURVE",
"378 3 CURVE SMOOTH"
);
}
);
vertWidth = 0;
width = 457;
},
{
layerId = "140DECC1-64C4-40C0-9C07-503DBC3F4160";
leftMetricsKey = N;
paths = (
{
closed = 1;
nodes = (
"42 -3 OFFCURVE",
"82 -8 OFFCURVE",
"99 16 CURVE SMOOTH",
"502 578 LINE SMOOTH",
"519 602 OFFCURVE",
"515 623 OFFCURVE",
"497 639 CURVE SMOOTH",
"479 655 OFFCURVE",
"443 656 OFFCURVE",
"425 631 CURVE SMOOTH",
"20 69 LINE SMOOTH",
"5 48 OFFCURVE",
"5 29 OFFCURVE",
"23 13 CURVE SMOOTH"
);
},
{
closed = 1;
nodes = (
"415 17 OFFCURVE",
"425 36 OFFCURVE",
"415 61 CURVE SMOOTH",
"203 623 LINE SMOOTH",
"192 651 OFFCURVE",
"160 655 OFFCURVE",
"137 647 CURVE SMOOTH",
"111 638 OFFCURVE",
"102 617 OFFCURVE",
"114 586 CURVE SMOOTH",
"322 28 LINE SMOOTH",
"333 -1 OFFCURVE",
"371 -6 OFFCURVE",
"394 6 CURVE SMOOTH"
);
}
);
vertWidth = 0;
width = 492;
}
);
note = "";
unicode = 0058;
},
{
glyphname = Y;
layers = (
{
layerId = m01;
leftMetricsKey = N;
paths = (
{
closed = 1;
nodes = (
"200 0 OFFCURVE",
"204 15 OFFCURVE",
"206 25 CURVE SMOOTH",
"258 322 LINE",
"469 609 LINE SMOOTH",
"474 616 OFFCURVE",
"477 623 OFFCURVE",
"477 629 CURVE SMOOTH",
"477 640 OFFCURVE",
"465 650 OFFCURVE",
"454 650 CURVE SMOOTH",
"444 650 OFFCURVE",
"435 647 OFFCURVE",
"428 637 CURVE SMOOTH",
"224 356 LINE",
"249 352 LINE",
"142 630 LINE SMOOTH",
"138 641 OFFCURVE",
"129 650 OFFCURVE",
"114 650 CURVE SMOOTH",
"102 650 OFFCURVE",
"91 640 OFFCURVE",
"91 630 CURVE SMOOTH",
"91 624 OFFCURVE",
"92 621 OFFCURVE",
"95 613 CURVE SMOOTH",
"207 323 LINE",
"155 27 LINE SMOOTH",
"152 12 OFFCURVE",
"160 0 OFFCURVE",
"178 0 CURVE SMOOTH"
);
}
);
vertWidth = 0;
width = 416;
},
{
layerId = "140DECC1-64C4-40C0-9C07-503DBC3F4160";
leftMetricsKey = N;
paths = (
{
closed = 1;
nodes = (
"232 -2 OFFCURVE",
"246 19 OFFCURVE",
"250 40 CURVE SMOOTH",
"298 316 LINE",
"493 575 LINE SMOOTH",
"501 586 OFFCURVE",
"505 596 OFFCURVE",
"505 608 CURVE SMOOTH",
"505 634 OFFCURVE",
"474 650 OFFCURVE",
"456 650 CURVE SMOOTH",
"440 650 OFFCURVE",
"424 642 OFFCURVE",
"415 629 CURVE SMOOTH",
"246 396 LINE",
"270 392 LINE",
"184 619 LINE SMOOTH",
"175 640 OFFCURVE",
"163 650 OFFCURVE",
"142 650 CURVE SMOOTH",
"113 650 OFFCURVE",
"89 634 OFFCURVE",
"89 613 CURVE SMOOTH",
"89 603 OFFCURVE",
"91 597 OFFCURVE",
"95 586 CURVE SMOOTH",
"197 322 LINE",
"150 49 LINE SMOOTH",
"145 21 OFFCURVE",
"166 -2 OFFCURVE",
"198 -2 CURVE SMOOTH"
);
}
);
vertWidth = 0;
width = 449;
}
);
note = "";
unicode = 0059;
},
{
glyphname = Z;
layers = (
{
layerId = m01;
leftMetricsKey = N;
rightMetricsKey = N;
paths = (
{
closed = 1;
nodes = (
"364 0 LINE SMOOTH",
"384 0 OFFCURVE",
"390 13 OFFCURVE",
"390 25 CURVE SMOOTH",
"390 37 OFFCURVE",
"384 46 OFFCURVE",
"364 46 CURVE SMOOTH",
"51 46 LINE",
"60 26 LINE",
"479 608 LINE SMOOTH",
"484 615 OFFCURVE",
"487 624 OFFCURVE",
"487 630 CURVE SMOOTH",
"487 643 OFFCURVE",
"480 650 OFFCURVE",
"462 650 CURVE SMOOTH",
"137 650 LINE SMOOTH",
"117 650 OFFCURVE",
"111 637 OFFCURVE",
"111 625 CURVE SMOOTH",
"111 613 OFFCURVE",
"117 604 OFFCURVE",
"137 604 CURVE SMOOTH",
"441 604 LINE",
"432 624 LINE",
"11 39 LINE SMOOTH",
"6 32 OFFCURVE",
"5 26 OFFCURVE",
"5 21 CURVE SMOOTH",
"5 11 OFFCURVE",
"13 0 OFFCURVE",
"31 0 CURVE SMOOTH"
);
}
);
vertWidth = 0;
width = 466;
},
{
layerId = "140DECC1-64C4-40C0-9C07-503DBC3F4160";
leftMetricsKey = N;
rightMetricsKey = N;
paths = (
{
closed = 1;
nodes = (
"376 0 LINE SMOOTH",
"408 0 OFFCURVE",
"426 19 OFFCURVE",
"426 43 CURVE SMOOTH",
"426 69 OFFCURVE",
"406 90 OFFCURVE",
"376 90 CURVE SMOOTH",
"126 90 LINE",
"133 66 LINE",
"505 577 LINE SMOOTH",
"514 589 OFFCURVE",
"518 600 OFFCURVE",
"518 610 CURVE SMOOTH",
"518 635 OFFCURVE",
"497 653 OFFCURVE",
"464 653 CURVE SMOOTH",
"160 653 LINE SMOOTH",
"130 653 OFFCURVE",
"110 633 OFFCURVE",
"110 607 CURVE SMOOTH",
"110 583 OFFCURVE",
"128 563 OFFCURVE",
"160 563 CURVE SMOOTH",
"401 563 LINE",
"394 587 LINE",
"17 70 LINE SMOOTH",
"11 62 OFFCURVE",
"8 53 OFFCURVE",
"8 44 CURVE SMOOTH",
"8 25 OFFCURVE",
"21 0 OFFCURVE",
"66 0 CURVE SMOOTH"
);
}
);
vertWidth = 0;
width = 501;
}
);
note = "";
unicode = 005A;
},
{
glyphname = a;
layers = (
{
layerId = m01;
paths = (
{
closed = 1;
nodes = (
"162 -4 OFFCURVE",
"221 49 OFFCURVE",
"261 158 CURVE",
"273 270 LINE",
"220 129 OFFCURVE",
"163 42 OFFCURVE",
"117 42 CURVE SMOOTH",
"84 42 OFFCURVE",
"66 82 OFFCURVE",
"77 147 CURVE SMOOTH",
"94 244 OFFCURVE",
"164 304 OFFCURVE",
"260 304 CURVE SMOOTH",
"301 304 LINE",
"309 350 LINE",
"257 350 LINE SMOOTH",
"137 350 OFFCURVE",
"49 272 OFFCURVE",
"26 147 CURVE SMOOTH",
"9 54 OFFCURVE",
"44 -4 OFFCURVE",
"109 -4 CURVE SMOOTH"
);
},
{
closed = 1;
nodes = (
"277 0 OFFCURVE",
"279 18 OFFCURVE",
"280 23 CURVE SMOOTH",
"332 316 LINE SMOOTH",
"335 334 OFFCURVE",
"333 350 OFFCURVE",
"317 350 CURVE SMOOTH",
"287 350 LINE",
"229 23 LINE SMOOTH",
"228 15 OFFCURVE",
"229 0 OFFCURVE",
"251 0 CURVE SMOOTH"
);
}
);
vertWidth = 0;
width = 356;
},
{
layerId = "140DECC1-64C4-40C0-9C07-503DBC3F4160";
paths = (
{
closed = 1;
nodes = (
"162 -4 OFFCURVE",
"206 39 OFFCURVE",
"250 123 CURVE",
"256 253 LINE",
"212 142 OFFCURVE",
"165 83 OFFCURVE",
"144 83 CURVE SMOOTH",
"128 83 OFFCURVE",
"121 109 OFFCURVE",
"127 147 CURVE SMOOTH",
"139 217 OFFCURVE",
"192 263 OFFCURVE",
"267 263 CURVE SMOOTH",
"276 263 LINE",
"288 350 LINE",
"264 350 LINE SMOOTH",
"139 350 OFFCURVE",
"48 272 OFFCURVE",
"26 147 CURVE SMOOTH",
"9 54 OFFCURVE",
"44 -4 OFFCURVE",
"117 -4 CURVE SMOOTH"
);
},
{
closed = 1;
nodes = (
"299 0 OFFCURVE",
"311 22 OFFCURVE",
"314 37 CURVE SMOOTH",
"359 295 LINE SMOOTH",
"365 328 OFFCURVE",
"353 350 OFFCURVE",
"321 350 CURVE SMOOTH",
"273 350 LINE",
"219 44 LINE SMOOTH",
"215 21 OFFCURVE",
"231 0 OFFCURVE",
"263 0 CURVE SMOOTH"
);
}
);
vertWidth = 0;
width = 387;
}
);
leftKerningGroup = o_left;
note = "";
rightKerningGroup = n_right;
unicode = 0061;
},
{
glyphname = b;
lastChange = "2022-03-24 05:40:34 +0000";
layers = (
{
layerId = m01;
leftMetricsKey = n;
paths = (
{
closed = 1;
nodes = (
"244 -4 OFFCURVE",
"318 82 OFFCURVE",
"318 198 CURVE SMOOTH",
"318 233 OFFCURVE",
"311 269 OFFCURVE",
"296 323 CURVE",
"274 303 LINE",
"373 286 LINE SMOOTH",
"396 282 OFFCURVE",
"415 287 OFFCURVE",
"415 308 CURVE SMOOTH",
"415 317 OFFCURVE",
"409 329 OFFCURVE",
"391 332 CURVE SMOOTH",
"277 350 LINE",
"246 357 OFFCURVE",
"248 330 OFFCURVE",
"252 319 CURVE SMOOTH",
"260 294 OFFCURVE",
"272 260 OFFCURVE",
"272 208 CURVE SMOOTH",
"272 115 OFFCURVE",
"221 42 OFFCURVE",
"161 42 CURVE SMOOTH",
"111 42 OFFCURVE",
"87 90 OFFCURVE",
"97 148 CURVE SMOOTH",
"181 623 LINE SMOOTH",
"184 642 OFFCURVE",
"174 650 OFFCURVE",
"161 650 CURVE SMOOTH",
"148 650 OFFCURVE",
"133 640 OFFCURVE",
"130 623 CURVE SMOOTH",
"46 148 LINE SMOOTH",
"31 61 OFFCURVE",
"73 -4 OFFCURVE",
"153 -4 CURVE SMOOTH"
);
}
);
vertWidth = 0;
width = 401;
},
{
layerId = "140DECC1-64C4-40C0-9C07-503DBC3F4160";
leftMetricsKey = n;
paths = (
{
closed = 1;
nodes = (
"277 -4 OFFCURVE",
"353 81 OFFCURVE",
"353 196 CURVE SMOOTH",
"353 215 OFFCURVE",
"343 249 OFFCURVE",
"326 286 CURVE",
"303 264 LINE",
"378 242 LINE SMOOTH",
"418 230 OFFCURVE",
"448 255 OFFCURVE",
"448 296 CURVE SMOOTH",
"448 319 OFFCURVE",
"430 334 OFFCURVE",
"406 338 CURVE SMOOTH",
"299 356 LINE SMOOTH",
"244 365 OFFCURVE",
"234 327 OFFCURVE",
"243 305 CURVE SMOOTH",
"254 277 OFFCURVE",
"261 250 OFFCURVE",
"261 233 CURVE SMOOTH",
"261 147 OFFCURVE",
"230 83 OFFCURVE",
"188 83 CURVE SMOOTH",
"156 83 OFFCURVE",
"143 116 OFFCURVE",
"152 170 CURVE SMOOTH",
"231 619 LINE SMOOTH",
"237 654 OFFCURVE",
"216 675 OFFCURVE",
"187 675 CURVE SMOOTH",
"162 675 OFFCURVE",
"136 656 OFFCURVE",
"131 627 CURVE SMOOTH",
"52 178 LINE SMOOTH",
"32 65 OFFCURVE",
"79 -4 OFFCURVE",
"174 -4 CURVE SMOOTH"
);
}
);
vertWidth = 0;
width = 457;
}
);
leftKerningGroup = h_left;
note = "";
rightKerningGroup = o_right;
unicode = 0062;
},
{
glyphname = c;
layers = (
{
layerId = m01;
paths = (
{
closed = 1;
nodes = (
"169 -4 OFFCURVE",
"230 48 OFFCURVE",
"272 131 CURVE SMOOTH",
"276 140 OFFCURVE",
"271 152 OFFCURVE",
"260 158 CURVE SMOOTH",
"247 165 OFFCURVE",
"233 164 OFFCURVE",
"228 154 CURVE SMOOTH",
"195 87 OFFCURVE",
"152 42 OFFCURVE",
"116 42 CURVE SMOOTH",
"89 42 OFFCURVE",
"73 69 OFFCURVE",
"74 105 CURVE SMOOTH",
"77 219 OFFCURVE",
"129 308 OFFCURVE",
"196 308 CURVE SMOOTH",
"219 308 OFFCURVE",
"250 304 OFFCURVE",
"269 297 CURVE SMOOTH",
"286 290 OFFCURVE",
"300 291 OFFCURVE",
"306 306 CURVE SMOOTH",
"313 321 OFFCURVE",
"307 335 OFFCURVE",
"290 341 CURVE SMOOTH",
"267 350 OFFCURVE",
"229 354 OFFCURVE",
"196 354 CURVE SMOOTH",
"97 354 OFFCURVE",
"23 243 OFFCURVE",
"23 95 CURVE SMOOTH",
"23 34 OFFCURVE",
"57 -4 OFFCURVE",
"112 -4 CURVE SMOOTH"
);
}
);
vertWidth = 0;
width = 323;
},
{
layerId = "140DECC1-64C4-40C0-9C07-503DBC3F4160";
paths = (
{
closed = 1;
nodes = (
"185 -4 OFFCURVE",
"250 44 OFFCURVE",
"292 121 CURVE SMOOTH",
"298 132 OFFCURVE",
"297 159 OFFCURVE",
"271 172 CURVE SMOOTH",
"245 185 OFFCURVE",
"219 179 OFFCURVE",
"211 164 CURVE SMOOTH",
"185 114 OFFCURVE",
"155 83 OFFCURVE",
"132 83 CURVE SMOOTH",
"119 83 OFFCURVE",
"112 96 OFFCURVE",
"114 118 CURVE SMOOTH",
"125 216 OFFCURVE",
"162 276 OFFCURVE",
"213 276 CURVE SMOOTH",
"228 276 OFFCURVE",
"244 273 OFFCURVE",
"263 265 CURVE SMOOTH",
"286 256 OFFCURVE",
"308 265 OFFCURVE",
"319 288 CURVE SMOOTH",
"335 322 OFFCURVE",
"309 340 OFFCURVE",
"296 345 CURVE SMOOTH",
"274 354 OFFCURVE",
"248 358 OFFCURVE",
"213 358 CURVE SMOOTH",
"111 358 OFFCURVE",
"38 267 OFFCURVE",
"22 120 CURVE SMOOTH",
"13 43 OFFCURVE",
"51 -4 OFFCURVE",
"122 -4 CURVE SMOOTH"
);
}
);
vertWidth = 0;
width = 342;
}
);
leftKerningGroup = o_left;
note = "";
unicode = 0063;
},
{
glyphname = d;
layers = (
{
layerId = m01;
rightMetricsKey = n;
paths = (
{
closed = 1;
nodes = (
"162 -4 OFFCURVE",
"221 49 OFFCURVE",
"261 158 CURVE",
"273 270 LINE",
"220 129 OFFCURVE",
"163 42 OFFCURVE",
"117 42 CURVE SMOOTH",
"84 42 OFFCURVE",
"66 82 OFFCURVE",
"77 147 CURVE SMOOTH",
"94 244 OFFCURVE",
"164 304 OFFCURVE",
"260 304 CURVE SMOOTH",
"301 304 LINE",
"309 350 LINE",
"257 350 LINE SMOOTH",
"137 350 OFFCURVE",
"49 272 OFFCURVE",
"26 147 CURVE SMOOTH",
"9 54 OFFCURVE",
"44 -4 OFFCURVE",
"109 -4 CURVE SMOOTH"
);
},
{
closed = 1;
nodes = (
"266 0 OFFCURVE",
"276 6 OFFCURVE",
"279 21 CURVE SMOOTH",
"386 623 LINE SMOOTH",
"389 639 OFFCURVE",
"377 649 OFFCURVE",
"363 650 CURVE SMOOTH",
"352 651 OFFCURVE",
"339 646 OFFCURVE",
"336 631 CURVE SMOOTH",
"230 29 LINE SMOOTH",
"227 11 OFFCURVE",
"241 0 OFFCURVE",
"255 0 CURVE SMOOTH"
);
}
);
vertWidth = 0;
width = 366;
},
{
layerId = "140DECC1-64C4-40C0-9C07-503DBC3F4160";
rightMetricsKey = n;
paths = (
{
closed = 1;
nodes = (
"162 -4 OFFCURVE",
"206 39 OFFCURVE",
"250 123 CURVE",
"256 253 LINE",
"212 142 OFFCURVE",
"165 83 OFFCURVE",
"144 83 CURVE SMOOTH",
"128 83 OFFCURVE",
"121 109 OFFCURVE",
"127 147 CURVE SMOOTH",
"139 217 OFFCURVE",
"192 263 OFFCURVE",
"267 263 CURVE SMOOTH",
"276 263 LINE",
"288 350 LINE",
"264 350 LINE SMOOTH",
"139 350 OFFCURVE",
"48 272 OFFCURVE",
"26 147 CURVE SMOOTH",
"9 54 OFFCURVE",
"44 -4 OFFCURVE",
"117 -4 CURVE SMOOTH"
);
},
{
closed = 1;
nodes = (
"288 0 OFFCURVE",
"314 15 OFFCURVE",
"319 44 CURVE SMOOTH",
"417 599 LINE SMOOTH",
"423 631 OFFCURVE",
"396 650 OFFCURVE",
"368 650 CURVE SMOOTH",
"346 650 OFFCURVE",
"324 640 OFFCURVE",
"319 612 CURVE SMOOTH",
"220 50 LINE SMOOTH",
"214 15 OFFCURVE",
"243 0 OFFCURVE",
"266 0 CURVE SMOOTH"
);
}
);
vertWidth = 0;
width = 401;
}
);
leftKerningGroup = o_left;
note = "";
unicode = 0064;
},
{
glyphname = e;
layers = (
{
layerId = m01;
paths = (
{
closed = 1;
nodes = (
"153 -4 OFFCURVE",
"200 22 OFFCURVE",
"232 64 CURVE SMOOTH",
"254 93 OFFCURVE",
"249 106 OFFCURVE",
"239 113 CURVE SMOOTH",
"228 121 OFFCURVE",
"213 119 OFFCURVE",
"194 94 CURVE SMOOTH",
"167 62 OFFCURVE",
"136 42 OFFCURVE",
"111 42 CURVE SMOOTH",
"88 42 OFFCURVE",
"74 65 OFFCURVE",
"74 98 CURVE SMOOTH",
"74 207 OFFCURVE",
"134 308 OFFCURVE",
"201 308 CURVE SMOOTH",
"220 308 OFFCURVE",
"230 298 OFFCURVE",
"230 288 CURVE SMOOTH",
"230 267 OFFCURVE",
"187 235 OFFCURVE",
"138 206 CURVE SMOOTH",
"113 192 OFFCURVE",
"85 177 OFFCURVE",
"63 165 CURVE",
"51 108 LINE",
"66 115 OFFCURVE",
"128 147 OFFCURVE",
"166 168 CURVE SMOOTH",
"206 191 OFFCURVE",
"281 230 OFFCURVE",
"281 291 CURVE SMOOTH",
"281 333 OFFCURVE",
"252 354 OFFCURVE",
"207 354 CURVE SMOOTH",
"110 354 OFFCURVE",
"23 237 OFFCURVE",
"23 107 CURVE SMOOTH",
"23 38 OFFCURVE",
"56 -4 OFFCURVE",
"110 -4 CURVE SMOOTH"
);
}
);
vertWidth = 0;
width = 311;
},
{
layerId = "140DECC1-64C4-40C0-9C07-503DBC3F4160";
paths = (
{
closed = 1;
nodes = (
"192 -4 OFFCURVE",
"243 19 OFFCURVE",
"275 58 CURVE SMOOTH",
"301 90 OFFCURVE",
"289 117 OFFCURVE",
"274 128 CURVE SMOOTH",
"254 142 OFFCURVE",
"228 135 OFFCURVE",
"207 110 CURVE SMOOTH",
"191 91 OFFCURVE",
"168 81 OFFCURVE",
"147 81 CURVE SMOOTH",
"132 81 OFFCURVE",
"124 93 OFFCURVE",
"124 118 CURVE SMOOTH",
"124 212 OFFCURVE",
"166 282 OFFCURVE",
"222 282 CURVE SMOOTH",
"228 282 OFFCURVE",
"231 279 OFFCURVE",
"231 273 CURVE SMOOTH",
"231 260 OFFCURVE",
"211 240 OFFCURVE",
"173 217 CURVE SMOOTH",
"146 201 OFFCURVE",
"100 176 OFFCURVE",
"82 167 CURVE",
"69 88 LINE",
"128 115 OFFCURVE",
"184 143 OFFCURVE",
"216 162 CURVE SMOOTH",
"286 201 OFFCURVE",
"321 242 OFFCURVE",
"321 284 CURVE SMOOTH",
"321 333 OFFCURVE",
"289 358 OFFCURVE",
"225 358 CURVE SMOOTH",
"120 358 OFFCURVE",
"25 244 OFFCURVE",
"25 117 CURVE SMOOTH",
"25 36 OFFCURVE",
"64 -4 OFFCURVE",
"140 -4 CURVE SMOOTH"
);
}
);
vertWidth = 0;
width = 344;
}
);
leftKerningGroup = o_left;
note = "";
unicode = 0065;
},
{
glyphname = f;
layers = (
{
layerId = m01;
paths = (
{
closed = 1;
nodes = (
"46 -301 OFFCURVE",
"53 -286 OFFCURVE",
"55 -274 CURVE SMOOTH",
"185 522 LINE SMOOTH",
"195 581 OFFCURVE",
"220 600 OFFCURVE",
"253 600 CURVE SMOOTH",
"264 600 OFFCURVE",
"283 594 OFFCURVE",
"295 586 CURVE SMOOTH",
"301 582 OFFCURVE",
"318 580 OFFCURVE",
"328 598 CURVE SMOOTH",
"337 615 OFFCURVE",
"326 626 OFFCURVE",
"318 631 CURVE SMOOTH",
"302 642 OFFCURVE",
"273 650 OFFCURVE",
"254 650 CURVE SMOOTH",
"204 650 OFFCURVE",
"151 622 OFFCURVE",
"137 534 CURVE SMOOTH",
"5 -270 LINE SMOOTH",
"3 -282 OFFCURVE",
"11 -298 OFFCURVE",
"29 -300 CURVE SMOOTH"
);
},
{
closed = 1;
nodes = (
"221 305 LINE SMOOTH",
"241 305 OFFCURVE",
"245 316 OFFCURVE",
"245 328 CURVE SMOOTH",
"245 340 OFFCURVE",
"238 350 OFFCURVE",
"218 350 CURVE SMOOTH",
"43 350 LINE SMOOTH",
"23 350 OFFCURVE",
"18 340 OFFCURVE",
"18 328 CURVE SMOOTH",
"18 316 OFFCURVE",
"26 305 OFFCURVE",
"46 305 CURVE SMOOTH"
);
}
);
vertWidth = 0;
width = 236;
},
{
layerId = "140DECC1-64C4-40C0-9C07-503DBC3F4160";
paths = (
{
closed = 1;
nodes = (
"83 -299 OFFCURVE",
"105 -279 OFFCURVE",
"109 -255 CURVE SMOOTH",
"234 504 LINE SMOOTH",
"240 542 OFFCURVE",
"263 559 OFFCURVE",
"281 559 CURVE SMOOTH",
"301 559 OFFCURVE",
"315 551 OFFCURVE",
"323 546 CURVE SMOOTH",
"335 538 OFFCURVE",
"360 540 OFFCURVE",
"376 567 CURVE SMOOTH",
"390 592 OFFCURVE",
"384 612 OFFCURVE",
"366 624 CURVE SMOOTH",
"340 641 OFFCURVE",
"314 650 OFFCURVE",
"281 650 CURVE SMOOTH",
"217 650 OFFCURVE",
"152 622 OFFCURVE",
"136 527 CURVE SMOOTH",
"10 -241 LINE SMOOTH",
"6 -264 OFFCURVE",
"18 -299 OFFCURVE",
"56 -299 CURVE SMOOTH"
);
},
{
closed = 1;
nodes = (
"249 265 LINE SMOOTH",
"279 265 OFFCURVE",
"296 281 OFFCURVE",
"296 307 CURVE SMOOTH",
"296 331 OFFCURVE",
"276 350 OFFCURVE",
"244 350 CURVE SMOOTH",
"61 350 LINE SMOOTH",
"30 350 OFFCURVE",
"15 331 OFFCURVE",
"15 307 CURVE SMOOTH",
"15 283 OFFCURVE",
"35 265 OFFCURVE",
"66 265 CURVE SMOOTH"
);
}
);
vertWidth = 0;
width = 297;
}
);
note = "";
unicode = 0066;
},
{
glyphname = g;
layers = (
{
layerId = m01;
paths = (
{
closed = 1;
nodes = (
"162 -4 OFFCURVE",
"221 49 OFFCURVE",
"261 158 CURVE",
"273 270 LINE",
"220 129 OFFCURVE",
"163 42 OFFCURVE",
"117 42 CURVE SMOOTH",
"84 42 OFFCURVE",
"66 82 OFFCURVE",
"77 147 CURVE SMOOTH",
"94 244 OFFCURVE",
"164 304 OFFCURVE",
"260 304 CURVE SMOOTH",
"301 304 LINE",
"309 350 LINE",
"257 350 LINE SMOOTH",
"137 350 OFFCURVE",
"49 272 OFFCURVE",
"26 147 CURVE SMOOTH",
"9 54 OFFCURVE",
"44 -4 OFFCURVE",
"109 -4 CURVE SMOOTH"
);
},
{
closed = 1;
nodes = (
"180 -300 OFFCURVE",
"231 -244 OFFCURVE",
"256 -107 CURVE SMOOTH",
"332 322 LINE SMOOTH",
"335 340 OFFCURVE",
"328 350 OFFCURVE",
"308 350 CURVE",
"286 350 LINE",
"207 -103 LINE SMOOTH",
"190 -207 OFFCURVE",
"157 -254 OFFCURVE",
"93 -254 CURVE SMOOTH",
"64 -254 OFFCURVE",
"34 -246 OFFCURVE",
"15 -232 CURVE SMOOTH",
"4 -225 OFFCURVE",
"-10 -225 OFFCURVE",
"-17 -233 CURVE SMOOTH",
"-26 -244 OFFCURVE",
"-25 -259 OFFCURVE",
"-15 -267 CURVE SMOOTH",
"9 -287 OFFCURVE",
"49 -300 OFFCURVE",
"91 -300 CURVE SMOOTH"
);
}
);
vertWidth = 0;
width = 355;
},
{
layerId = "140DECC1-64C4-40C0-9C07-503DBC3F4160";
paths = (
{
closed = 1;
nodes = (
"162 -4 OFFCURVE",
"206 39 OFFCURVE",
"250 123 CURVE",
"256 253 LINE",
"212 142 OFFCURVE",
"165 83 OFFCURVE",
"144 83 CURVE SMOOTH",
"128 83 OFFCURVE",
"121 109 OFFCURVE",
"127 147 CURVE SMOOTH",
"139 217 OFFCURVE",
"192 263 OFFCURVE",
"267 263 CURVE SMOOTH",
"276 263 LINE",
"288 350 LINE",
"264 350 LINE SMOOTH",
"139 350 OFFCURVE",
"48 272 OFFCURVE",
"26 147 CURVE SMOOTH",
"9 54 OFFCURVE",
"44 -4 OFFCURVE",
"117 -4 CURVE SMOOTH"
);
},
{
closed = 1;
nodes = (
"202 -300 OFFCURVE",
"273 -215 OFFCURVE",
"303 -47 CURVE SMOOTH",
"365 302 LINE SMOOTH",
"370 332 OFFCURVE",
"354 350 OFFCURVE",
"322 350 CURVE SMOOTH",
"273 350 LINE",
"203 -40 LINE SMOOTH",
"179 -173 OFFCURVE",
"124 -203 OFFCURVE",
"85 -203 CURVE SMOOTH",
"66 -203 OFFCURVE",
"52 -196 OFFCURVE",
"44 -191 CURVE SMOOTH",
"23 -178 OFFCURVE",
"-3 -183 OFFCURVE",
"-16 -204 CURVE SMOOTH",
"-32 -228 OFFCURVE",
"-28 -256 OFFCURVE",
"-7 -271 CURVE SMOOTH",
"8 -282 OFFCURVE",
"44 -300 OFFCURVE",
"92 -300 CURVE SMOOTH"
);
}
);
vertWidth = 0;
width = 392;
}
);
leftKerningGroup = o_left;
note = "";
unicode = 0067;
},
{
glyphname = h;
layers = (
{
layerId = m01;
leftMetricsKey = n;
rightMetricsKey = n;
paths = (
{
closed = 1;
nodes = (
"73 0 OFFCURVE",
"75 18 OFFCURVE",
"76 23 CURVE SMOOTH",
"181 623 LINE SMOOTH",
"184 640 OFFCURVE",
"180 650 OFFCURVE",
"163 650 CURVE",
"143 650 OFFCURVE",
"133 641 OFFCURVE",
"130 623 CURVE SMOOTH",
"25 23 LINE SMOOTH",
"24 15 OFFCURVE",
"25 0 OFFCURVE",
"47 0 CURVE SMOOTH"
);
},
{
closed = 1;
nodes = (
"298 0 OFFCURVE",
"299 16 OFFCURVE",
"300 21 CURVE SMOOTH",
"337 230 LINE SMOOTH",
"348 294 OFFCURVE",
"316 354 OFFCURVE",
"244 354 CURVE SMOOTH",
"189 354 OFFCURVE",
"148 319 OFFCURVE",
"102 246 CURVE",
"92 174 LINE",
"154 270 OFFCURVE",
"199 308 OFFCURVE",
"241 308 CURVE SMOOTH",
"285 308 OFFCURVE",
"293 267 OFFCURVE",
"287 233 CURVE SMOOTH",
"250 24 LINE SMOOTH",
"249 16 OFFCURVE",
"250 0 OFFCURVE",
"272 0 CURVE SMOOTH"
);
}
);
vertWidth = 0;
width = 376;
},
{
layerId = "140DECC1-64C4-40C0-9C07-503DBC3F4160";
leftMetricsKey = n;
rightMetricsKey = n;
paths = (
{
closed = 1;
nodes = (
"97 0 OFFCURVE",
"123 15 OFFCURVE",
"128 44 CURVE SMOOTH",
"226 599 LINE SMOOTH",
"232 631 OFFCURVE",
"205 650 OFFCURVE",
"177 650 CURVE SMOOTH",
"155 650 OFFCURVE",
"133 640 OFFCURVE",
"128 612 CURVE SMOOTH",
"29 50 LINE SMOOTH",
"23 15 OFFCURVE",
"52 0 OFFCURVE",
"75 0 CURVE SMOOTH"
);
},
{
closed = 1;
nodes = (
"320 0 OFFCURVE",
"336 19 OFFCURVE",
"339 34 CURVE SMOOTH",
"367 193 LINE SMOOTH",
"386 302 OFFCURVE",
"357 358 OFFCURVE",
"281 358 CURVE SMOOTH",
"235 358 OFFCURVE",
"197 321 OFFCURVE",
"159 268 CURVE",
"138 136 LINE",
"184 218 OFFCURVE",
"221 272 OFFCURVE",
"247 272 CURVE SMOOTH",
"267 272 OFFCURVE",
"275 250 OFFCURVE",
"268 208 CURVE SMOOTH",
"240 49 LINE SMOOTH",
"236 25 OFFCURVE",
"252 0 OFFCURVE",
"284 0 CURVE SMOOTH"
);
}
);
vertWidth = 0;
width = 423;
}
);
leftKerningGroup = h_left;
note = "";
rightKerningGroup = n_right;
unicode = 0068;
},
{
glyphname = i;
layers = (
{
layerId = m01;
paths = (
{
closed = 1;
nodes = (
"72 0 OFFCURVE",
"74 18 OFFCURVE",
"75 23 CURVE SMOOTH",
"128 323 LINE SMOOTH",
"130 340 OFFCURVE",
"127 350 OFFCURVE",
"110 350 CURVE",
"90 350 OFFCURVE",
"81 341 OFFCURVE",
"77 323 CURVE SMOOTH",
"24 23 LINE SMOOTH",
"23 15 OFFCURVE",
"24 0 OFFCURVE",
"46 0 CURVE SMOOTH"
);
},
{
closed = 1;
nodes = (
"144 438 OFFCURVE",
"158 452 OFFCURVE",
"158 468 CURVE SMOOTH",
"158 485 OFFCURVE",
"143 497 OFFCURVE",
"127 497 CURVE SMOOTH",
"109 497 OFFCURVE",
"97 483 OFFCURVE",
"97 468 CURVE SMOOTH",
"97 452 OFFCURVE",
"110 438 OFFCURVE",
"127 438 CURVE SMOOTH"
);
}
);
vertWidth = 0;
width = 161;
},
{
layerId = "140DECC1-64C4-40C0-9C07-503DBC3F4160";
paths = (
{
closed = 1;
nodes = (
"106 0 OFFCURVE",
"125 22 OFFCURVE",
"128 37 CURVE SMOOTH",
"175 302 LINE SMOOTH",
"180 332 OFFCURVE",
"164 350 OFFCURVE",
"132 350 CURVE SMOOTH",
"90 350 OFFCURVE",
"77 320 OFFCURVE",
"75 308 CURVE SMOOTH",
"28 44 LINE SMOOTH",
"24 20 OFFCURVE",
"35 0 OFFCURVE",
"69 0 CURVE SMOOTH"
);
},
{
closed = 1;
nodes = (
"179 413 OFFCURVE",
"204 437 OFFCURVE",
"204 466 CURVE SMOOTH",
"204 497 OFFCURVE",
"178 519 OFFCURVE",
"150 519 CURVE SMOOTH",
"121 519 OFFCURVE",
"98 495 OFFCURVE",
"98 466 CURVE SMOOTH",
"98 437 OFFCURVE",
"122 413 OFFCURVE",
"150 413 CURVE SMOOTH"
);
}
);
vertWidth = 0;
width = 212;
}
);
note = "";
unicode = 0069;
},
{
glyphname = j;
layers = (
{
layerId = m01;
rightMetricsKey = n;
paths = (
{
closed = 1;
nodes = (
"-24 -300 OFFCURVE",
"28 -244 OFFCURVE",
"52 -107 CURVE SMOOTH",
"128 323 LINE SMOOTH",
"131 340 OFFCURVE",
"127 350 OFFCURVE",
"110 350 CURVE",
"90 350 OFFCURVE",
"80 341 OFFCURVE",
"77 323 CURVE SMOOTH",
"2 -103 LINE SMOOTH",
"-16 -207 OFFCURVE",
"-48 -254 OFFCURVE",
"-112 -254 CURVE SMOOTH",
"-141 -254 OFFCURVE",
"-170 -246 OFFCURVE",
"-189 -232 CURVE SMOOTH",
"-200 -225 OFFCURVE",
"-214 -225 OFFCURVE",
"-221 -233 CURVE SMOOTH",
"-230 -244 OFFCURVE",
"-229 -259 OFFCURVE",
"-219 -267 CURVE SMOOTH",
"-195 -287 OFFCURVE",
"-155 -300 OFFCURVE",
"-113 -300 CURVE SMOOTH"
);
},
{
closed = 1;
nodes = (
"144 438 OFFCURVE",
"158 452 OFFCURVE",
"158 468 CURVE SMOOTH",
"158 485 OFFCURVE",
"143 497 OFFCURVE",
"127 497 CURVE SMOOTH",
"109 497 OFFCURVE",
"97 483 OFFCURVE",
"97 468 CURVE SMOOTH",
"97 452 OFFCURVE",
"110 438 OFFCURVE",
"127 438 CURVE SMOOTH"
);
}
);
vertWidth = 0;
width = 161;
},
{
layerId = "140DECC1-64C4-40C0-9C07-503DBC3F4160";
rightMetricsKey = n;
paths = (
{
closed = 1;
nodes = (
"12 -300 OFFCURVE",
"83 -215 OFFCURVE",
"113 -47 CURVE SMOOTH",
"175 302 LINE SMOOTH",
"180 332 OFFCURVE",
"164 350 OFFCURVE",
"132 350 CURVE SMOOTH",
"90 350 OFFCURVE",
"77 320 OFFCURVE",
"75 308 CURVE SMOOTH",
"13 -40 LINE SMOOTH",
"-11 -173 OFFCURVE",
"-66 -203 OFFCURVE",
"-105 -203 CURVE SMOOTH",
"-124 -203 OFFCURVE",
"-138 -196 OFFCURVE",
"-146 -191 CURVE SMOOTH",
"-167 -178 OFFCURVE",
"-193 -183 OFFCURVE",
"-206 -204 CURVE SMOOTH",
"-222 -228 OFFCURVE",
"-218 -256 OFFCURVE",
"-197 -271 CURVE SMOOTH",
"-182 -282 OFFCURVE",
"-146 -300 OFFCURVE",
"-98 -300 CURVE SMOOTH"
);
},
{
closed = 1;
nodes = (
"179 413 OFFCURVE",
"204 437 OFFCURVE",
"204 466 CURVE SMOOTH",
"204 497 OFFCURVE",
"178 519 OFFCURVE",
"150 519 CURVE SMOOTH",
"121 519 OFFCURVE",
"98 495 OFFCURVE",
"98 466 CURVE SMOOTH",
"98 437 OFFCURVE",
"122 413 OFFCURVE",
"150 413 CURVE SMOOTH"
);
}
);
vertWidth = 0;
width = 212;
}
);
note = "";
unicode = 006A;
},
{
glyphname = k;
layers = (
{
layerId = m01;
leftMetricsKey = n;
paths = (
{
closed = 1;
nodes = (
"61 0 OFFCURVE",
"73 7 OFFCURVE",
"76 26 CURVE SMOOTH",
"181 621 LINE SMOOTH",
"185 642 OFFCURVE",
"173 650 OFFCURVE",
"157 650 CURVE SMOOTH",
"142 650 OFFCURVE",
"133 639 OFFCURVE",
"130 622 CURVE SMOOTH",
"25 26 LINE SMOOTH",
"22 10 OFFCURVE",
"32 0 OFFCURVE",
"45 0 CURVE SMOOTH"
);
},
{
closed = 1;
nodes = (
"155 264 OFFCURVE",
"229 308 OFFCURVE",
"270 308 CURVE SMOOTH",
"283 308 OFFCURVE",
"285 299 OFFCURVE",
"285 292 CURVE SMOOTH",
"286 263 OFFCURVE",
"253 231 OFFCURVE",
"189 192 CURVE SMOOTH",
"176 184 OFFCURVE",
"171 175 OFFCURVE",
"171 166 CURVE SMOOTH",
"171 158 OFFCURVE",
"177 146 OFFCURVE",
"189 129 CURVE SMOOTH",
"267 18 LINE SMOOTH",
"274 8 OFFCURVE",
"284 -1 OFFCURVE",
"297 -1 CURVE SMOOTH",
"308.96116 -1 OFFCURVE",
"319 9.80196 OFFCURVE",
"319 22 CURVE SMOOTH",
"319 28 OFFCURVE",
"317 34 OFFCURVE",
"312 41 CURVE SMOOTH",
"228 160 LINE",
"299 202 OFFCURVE",
"335 248 OFFCURVE",
"335 297 CURVE SMOOTH",
"335 346 OFFCURVE",
"309 354 OFFCURVE",
"284 354 CURVE SMOOTH",
"211 354 OFFCURVE",
"132 290 OFFCURVE",
"100 203 CURVE",
"85 78 LINE"
);
}
);
vertWidth = 0;
width = 385;
},
{
layerId = "140DECC1-64C4-40C0-9C07-503DBC3F4160";
leftMetricsKey = n;
paths = (
{
closed = 1;
nodes = (
"97 0 OFFCURVE",
"123 15 OFFCURVE",
"128 44 CURVE SMOOTH",
"226 599 LINE SMOOTH",
"232 631 OFFCURVE",
"205 650 OFFCURVE",
"177 650 CURVE SMOOTH",
"155 650 OFFCURVE",
"133 640 OFFCURVE",
"128 612 CURVE SMOOTH",
"29 50 LINE SMOOTH",
"23 15 OFFCURVE",
"52 0 OFFCURVE",
"75 0 CURVE SMOOTH"
);
},
{
closed = 1;
nodes = (
"184 218 OFFCURVE",
"221 273 OFFCURVE",
"274 273 CURVE SMOOTH",
"280 273 OFFCURVE",
"283 270 OFFCURVE",
"283 265 CURVE SMOOTH",
"283 250 OFFCURVE",
"259 219 OFFCURVE",
"213 193 CURVE SMOOTH",
"205 188 OFFCURVE",
"198 179 OFFCURVE",
"198 166 CURVE SMOOTH",
"198 151 OFFCURVE",
"211 134 OFFCURVE",
"223 116 CURVE SMOOTH",
"286 25 LINE SMOOTH",
"297 9 OFFCURVE",
"315 0 OFFCURVE",
"333 0 CURVE SMOOTH",
"357 0 OFFCURVE",
"379 24 OFFCURVE",
"379 42 CURVE SMOOTH",
"379 51 OFFCURVE",
"376 59 OFFCURVE",
"369 69 CURVE SMOOTH",
"303 166 LINE",
"333 184 OFFCURVE",
"385 227 OFFCURVE",
"385 291 CURVE SMOOTH",
"385 329 OFFCURVE",
"346 358 OFFCURVE",
"303 358 CURVE SMOOTH",
"235 358 OFFCURVE",
"197 321 OFFCURVE",
"159 268 CURVE",
"138 136 LINE"
);
}
);
vertWidth = 0;
width = 422;
}
);
leftKerningGroup = h_left;
note = "";
unicode = 006B;
},
{
glyphname = l;
layers = (
{
layerId = m01;
paths = (
{
closed = 1;
nodes = (
"60 0 OFFCURVE",
"71 7 OFFCURVE",
"74 22 CURVE SMOOTH",
"180 624 LINE SMOOTH",
"183 640 OFFCURVE",
"170 650 OFFCURVE",
"156 650 CURVE SMOOTH",
"145 650 OFFCURVE",
"134 644 OFFCURVE",
"131 629 CURVE SMOOTH",
"25 27 LINE SMOOTH",
"22 9 OFFCURVE",
"35 0 OFFCURVE",
"49 0 CURVE SMOOTH"
);
}
);
vertWidth = 0;
width = 160;
},
{
layerId = "140DECC1-64C4-40C0-9C07-503DBC3F4160";
paths = (
{
closed = 1;
nodes = (
"97 0 OFFCURVE",
"123 15 OFFCURVE",
"128 44 CURVE SMOOTH",
"226 599 LINE SMOOTH",
"232 631 OFFCURVE",
"205 650 OFFCURVE",
"177 650 CURVE SMOOTH",
"155 650 OFFCURVE",
"133 640 OFFCURVE",
"128 612 CURVE SMOOTH",
"29 50 LINE SMOOTH",
"23 15 OFFCURVE",
"52 0 OFFCURVE",
"75 0 CURVE SMOOTH"
);
}
);
vertWidth = 0;
width = 210;
}
);
leftKerningGroup = h_left;
note = "";
unicode = 006C;
},
{
glyphname = m;
layers = (
{
layerId = m01;
leftMetricsKey = n;
rightMetricsKey = n;
paths = (
{
closed = 1;
nodes = (
"62 0 OFFCURVE",
"64 18 OFFCURVE",
"65 23 CURVE SMOOTH",
"118 323 LINE SMOOTH",
"120 340 OFFCURVE",
"117 350 OFFCURVE",
"100 350 CURVE",
"80 350 OFFCURVE",
"71 341 OFFCURVE",
"67 323 CURVE SMOOTH",
"14 23 LINE SMOOTH",
"13 15 OFFCURVE",
"14 0 OFFCURVE",
"36 0 CURVE SMOOTH"
);
},
{
closed = 1;
nodes = (
"277 0 OFFCURVE",
"278 16 OFFCURVE",
"279 21 CURVE SMOOTH",
"316 230 LINE SMOOTH",
"327 294 OFFCURVE",
"295 354 OFFCURVE",
"223 354 CURVE SMOOTH",
"168 354 OFFCURVE",
"137 319 OFFCURVE",
"91 246 CURVE",
"81 174 LINE",
"143 270 OFFCURVE",
"178 308 OFFCURVE",
"220 308 CURVE SMOOTH",
"264 308 OFFCURVE",
"272 267 OFFCURVE",
"266 233 CURVE SMOOTH",
"229 24 LINE SMOOTH",
"228 16 OFFCURVE",
"229 0 OFFCURVE",
"251 0 CURVE SMOOTH"
);
},
{
closed = 1;
nodes = (
"491 0 OFFCURVE",
"492 16 OFFCURVE",
"493 21 CURVE SMOOTH",
"530 230 LINE SMOOTH",
"541 294 OFFCURVE",
"509 354 OFFCURVE",
"437 354 CURVE SMOOTH",
"382 354 OFFCURVE",
"351 319 OFFCURVE",
"305 246 CURVE",
"295 174 LINE",
"357 270 OFFCURVE",
"392 308 OFFCURVE",
"434 308 CURVE SMOOTH",
"478 308 OFFCURVE",
"486 267 OFFCURVE",
"480 233 CURVE SMOOTH",
"443 24 LINE SMOOTH",
"442 16 OFFCURVE",
"443 0 OFFCURVE",
"465 0 CURVE SMOOTH"
);
}
);
vertWidth = 0;
width = 569;
},
{
layerId = "140DECC1-64C4-40C0-9C07-503DBC3F4160";
leftMetricsKey = n;
rightMetricsKey = n;
paths = (
{
closed = 1;
nodes = (
"96 0 OFFCURVE",
"115 22 OFFCURVE",
"118 37 CURVE SMOOTH",
"165 302 LINE SMOOTH",
"170 332 OFFCURVE",
"154 350 OFFCURVE",
"122 350 CURVE SMOOTH",
"80 350 OFFCURVE",
"67 320 OFFCURVE",
"65 308 CURVE SMOOTH",
"18 44 LINE SMOOTH",
"14 20 OFFCURVE",
"25 0 OFFCURVE",
"59 0 CURVE SMOOTH"
);
},
{
closed = 1;
nodes = (
"304 0 OFFCURVE",
"320 19 OFFCURVE",
"323 34 CURVE SMOOTH",
"351 193 LINE SMOOTH",
"370 302 OFFCURVE",
"341 358 OFFCURVE",
"265 358 CURVE SMOOTH",
"219 358 OFFCURVE",
"187 321 OFFCURVE",
"149 268 CURVE",
"128 136 LINE",
"174 218 OFFCURVE",
"205 272 OFFCURVE",
"231 272 CURVE SMOOTH",
"251 272 OFFCURVE",
"259 250 OFFCURVE",
"252 208 CURVE SMOOTH",
"224 49 LINE SMOOTH",
"220 25 OFFCURVE",
"236 0 OFFCURVE",
"268 0 CURVE SMOOTH"
);
},
{
closed = 1;
nodes = (
"509 0 OFFCURVE",
"525 19 OFFCURVE",
"528 34 CURVE SMOOTH",
"556 193 LINE SMOOTH",
"575 302 OFFCURVE",
"546 358 OFFCURVE",
"470 358 CURVE SMOOTH",
"424 358 OFFCURVE",
"392 321 OFFCURVE",
"354 268 CURVE",
"333 136 LINE",
"379 218 OFFCURVE",
"410 272 OFFCURVE",
"436 272 CURVE SMOOTH",
"456 272 OFFCURVE",
"464 250 OFFCURVE",
"457 208 CURVE SMOOTH",
"429 49 LINE SMOOTH",
"425 25 OFFCURVE",
"441 0 OFFCURVE",
"473 0 CURVE SMOOTH"
);
}
);
vertWidth = 0;
width = 602;
}
);
leftKerningGroup = n_left;
note = "";
rightKerningGroup = n_right;
unicode = 006D;
},
{
glyphname = n;
layers = (
{
layerId = m01;
paths = (
{
closed = 1;
nodes = (
"62 0 OFFCURVE",
"64 18 OFFCURVE",
"65 23 CURVE SMOOTH",
"118 323 LINE SMOOTH",
"120 340 OFFCURVE",
"117 350 OFFCURVE",
"100 350 CURVE",
"80 350 OFFCURVE",
"71 341 OFFCURVE",
"67 323 CURVE SMOOTH",
"14 23 LINE SMOOTH",
"13 15 OFFCURVE",
"14 0 OFFCURVE",
"36 0 CURVE SMOOTH"
);
},
{
closed = 1;
nodes = (
"287 0 OFFCURVE",
"288 16 OFFCURVE",
"289 21 CURVE SMOOTH",
"326 230 LINE SMOOTH",
"337 294 OFFCURVE",
"305 354 OFFCURVE",
"233 354 CURVE SMOOTH",
"178 354 OFFCURVE",
"137 319 OFFCURVE",
"91 246 CURVE",
"81 174 LINE",
"143 270 OFFCURVE",
"188 308 OFFCURVE",
"230 308 CURVE SMOOTH",
"274 308 OFFCURVE",
"282 267 OFFCURVE",
"276 233 CURVE SMOOTH",
"239 24 LINE SMOOTH",
"238 16 OFFCURVE",
"239 0 OFFCURVE",
"261 0 CURVE SMOOTH"
);
}
);
vertWidth = 0;
width = 365;
},
{
layerId = "140DECC1-64C4-40C0-9C07-503DBC3F4160";
paths = (
{
closed = 1;
nodes = (
"96 0 OFFCURVE",
"115 22 OFFCURVE",
"118 37 CURVE SMOOTH",
"165 302 LINE SMOOTH",
"170 332 OFFCURVE",
"154 350 OFFCURVE",
"122 350 CURVE SMOOTH",
"80 350 OFFCURVE",
"67 320 OFFCURVE",
"65 308 CURVE SMOOTH",
"18 44 LINE SMOOTH",
"14 20 OFFCURVE",
"25 0 OFFCURVE",
"59 0 CURVE SMOOTH"
);
},
{
closed = 1;
nodes = (
"310 0 OFFCURVE",
"326 19 OFFCURVE",
"329 34 CURVE SMOOTH",
"357 193 LINE SMOOTH",
"376 302 OFFCURVE",
"347 358 OFFCURVE",
"271 358 CURVE SMOOTH",
"225 358 OFFCURVE",
"187 321 OFFCURVE",
"149 268 CURVE",
"128 136 LINE",
"174 218 OFFCURVE",
"211 272 OFFCURVE",
"237 272 CURVE SMOOTH",
"257 272 OFFCURVE",
"265 250 OFFCURVE",
"258 208 CURVE SMOOTH",
"230 49 LINE SMOOTH",
"226 25 OFFCURVE",
"242 0 OFFCURVE",
"274 0 CURVE SMOOTH"
);
}
);
vertWidth = 0;
width = 403;
}
);
leftKerningGroup = n_left;
note = "";
rightKerningGroup = n_right;
unicode = 006E;
},
{
glyphname = o;
layers = (
{
layerId = m01;
paths = (
{
closed = 1;
nodes = (
"237 -4 OFFCURVE",
"308 95 OFFCURVE",
"308 228 CURVE SMOOTH",
"308 306 OFFCURVE",
"262 354 OFFCURVE",
"187 354 CURVE SMOOTH",
"96 354 OFFCURVE",
"28 257 OFFCURVE",
"28 126 CURVE SMOOTH",
"28 46 OFFCURVE",
"72 -4 OFFCURVE",
"143 -4 CURVE SMOOTH"
);
},
{
closed = 1;
nodes = (
"103 42 OFFCURVE",
"78 80 OFFCURVE",
"78 136 CURVE SMOOTH",
"78 232 OFFCURVE",
"125 308 OFFCURVE",
"187 308 CURVE SMOOTH",
"231 308 OFFCURVE",
"258 275 OFFCURVE",
"258 227 CURVE SMOOTH",
"258 123 OFFCURVE",
"209 42 OFFCURVE",
"143 42 CURVE SMOOTH"
);
}
);
vertWidth = 0;
width = 343;
},
{
layerId = "140DECC1-64C4-40C0-9C07-503DBC3F4160";
paths = (
{
closed = 1;
nodes = (
"241 -4 OFFCURVE",
"323 103 OFFCURVE",
"323 222 CURVE SMOOTH",
"323 306 OFFCURVE",
"275 358 OFFCURVE",
"196 358 CURVE SMOOTH",
"95 358 OFFCURVE",
"32 279 OFFCURVE",
"32 152 CURVE SMOOTH",
"32 56 OFFCURVE",
"77 -4 OFFCURVE",
"150 -4 CURVE SMOOTH"
);
},
{
closed = 1;
nodes = (
"136 83 OFFCURVE",
"122 109 OFFCURVE",
"122 150 CURVE SMOOTH",
"122 225 OFFCURVE",
"148 271 OFFCURVE",
"189 271 CURVE SMOOTH",
"214 271 OFFCURVE",
"230 253 OFFCURVE",
"230 223 CURVE SMOOTH",
"230 149 OFFCURVE",
"196 83 OFFCURVE",
"159 83 CURVE SMOOTH"
);
}
);
vertWidth = 0;
width = 358;
}
);
leftKerningGroup = o_left;
note = "";
rightKerningGroup = o_right;
unicode = 006F;
},
{
glyphname = p;
layers = (
{
layerId = m01;
leftMetricsKey = n;
paths = (
{
closed = 1;
nodes = (
"269 0 OFFCURVE",
"276 2 OFFCURVE",
"285 9 CURVE SMOOTH",
"366 76 LINE SMOOTH",
"383 90 OFFCURVE",
"391 101 OFFCURVE",
"391 113 CURVE SMOOTH",
"391 125 OFFCURVE",
"384 132 OFFCURVE",
"372 132 CURVE SMOOTH",
"361 132 OFFCURVE",
"349 126 OFFCURVE",
"334 114 CURVE SMOOTH",
"301 86 LINE",
"326 230 LINE SMOOTH",
"337 294 OFFCURVE",
"305 354 OFFCURVE",
"233 354 CURVE SMOOTH",
"178 354 OFFCURVE",
"137 319 OFFCURVE",
"91 246 CURVE",
"81 174 LINE",
"143 270 OFFCURVE",
"188 308 OFFCURVE",
"230 308 CURVE SMOOTH",
"274 308 OFFCURVE",
"282 267 OFFCURVE",
"276 233 CURVE SMOOTH",
"240 29 LINE SMOOTH",
"238 17 OFFCURVE",
"239 0 OFFCURVE",
"261 0 CURVE SMOOTH"
);
},
{
closed = 1;
nodes = (
"-5 -300 OFFCURVE",
"9 -292 OFFCURVE",
"12 -277 CURVE SMOOTH",
"119 327 LINE SMOOTH",
"122 342 OFFCURVE",
"110 350 OFFCURVE",
"97 350 CURVE SMOOTH",
"85 350 OFFCURVE",
"71 342 OFFCURVE",
"68 327 CURVE SMOOTH",
"-39 -276 LINE SMOOTH",
"-42 -292 OFFCURVE",
"-30 -300 OFFCURVE",
"-17 -300 CURVE SMOOTH"
);
}
);
vertWidth = 0;
width = 430;
},
{
layerId = "140DECC1-64C4-40C0-9C07-503DBC3F4160";
leftMetricsKey = n;
paths = (
{
closed = 1;
nodes = (
"298 0 OFFCURVE",
"311 10 OFFCURVE",
"321 19 CURVE SMOOTH",
"404 88 LINE SMOOTH",
"419 100 OFFCURVE",
"430 114 OFFCURVE",
"432 127 CURVE SMOOTH",
"436 152 OFFCURVE",
"416 171 OFFCURVE",
"391 172 CURVE SMOOTH",
"380 173 OFFCURVE",
"367 169 OFFCURVE",
"354 161 CURVE SMOOTH",
"351 159 LINE",
"357 193 LINE SMOOTH",
"376 302 OFFCURVE",
"347 358 OFFCURVE",
"271 358 CURVE SMOOTH",
"225 358 OFFCURVE",
"187 321 OFFCURVE",
"149 268 CURVE",
"128 136 LINE",
"174 218 OFFCURVE",
"211 272 OFFCURVE",
"237 272 CURVE SMOOTH",
"257 272 OFFCURVE",
"265 250 OFFCURVE",
"258 208 CURVE SMOOTH",
"230 49 LINE SMOOTH",
"226 25 OFFCURVE",
"242 0 OFFCURVE",
"274 0 CURVE SMOOTH"
);
},
{
closed = 1;
nodes = (
"43 -300 OFFCURVE",
"62 -278 OFFCURVE",
"65 -263 CURVE SMOOTH",
"165 302 LINE SMOOTH",
"170 332 OFFCURVE",
"154 350 OFFCURVE",
"122 350 CURVE SMOOTH",
"80 350 OFFCURVE",
"67 320 OFFCURVE",
"65 308 CURVE SMOOTH",
"-35 -256 LINE SMOOTH",
"-39 -280 OFFCURVE",
"-28 -300 OFFCURVE",
"6 -300 CURVE SMOOTH"
);
}
);
vertWidth = 0;
width = 448;
}
);
leftKerningGroup = n_left;
note = "";
rightKerningGroup = o_right;
unicode = 0070;
},
{
glyphname = q;
layers = (
{
layerId = m01;
leftMetricsKey = n;
paths = (
{
closed = 1;
nodes = (
"162 -4 OFFCURVE",
"221 49 OFFCURVE",
"261 158 CURVE",
"273 270 LINE",
"220 129 OFFCURVE",
"163 42 OFFCURVE",
"117 42 CURVE SMOOTH",
"84 42 OFFCURVE",
"66 82 OFFCURVE",
"77 147 CURVE SMOOTH",
"94 244 OFFCURVE",
"164 304 OFFCURVE",
"260 304 CURVE SMOOTH",
"301 304 LINE",
"309 350 LINE",
"257 350 LINE SMOOTH",
"137 350 OFFCURVE",
"49 272 OFFCURVE",
"26 147 CURVE SMOOTH",
"9 54 OFFCURVE",
"44 -4 OFFCURVE",
"109 -4 CURVE SMOOTH"
);
},
{
closed = 1;
nodes = (
"206 -300 OFFCURVE",
"213 -298 OFFCURVE",
"222 -291 CURVE SMOOTH",
"303 -224 LINE SMOOTH",
"320 -210 OFFCURVE",
"328 -199 OFFCURVE",
"328 -187 CURVE SMOOTH",
"328 -175 OFFCURVE",
"321 -168 OFFCURVE",
"309 -168 CURVE SMOOTH",
"298 -168 OFFCURVE",
"286 -174 OFFCURVE",
"271 -186 CURVE SMOOTH",
"238 -214 LINE",
"333 327 LINE SMOOTH",
"334 335 OFFCURVE",
"333 350 OFFCURVE",
"311 350 CURVE SMOOTH",
"286 350 LINE",
"177 -271 LINE SMOOTH",
"175 -283 OFFCURVE",
"176 -300 OFFCURVE",
"198 -300 CURVE SMOOTH"
);
}
);
vertWidth = 0;
width = 355;
},
{
layerId = "140DECC1-64C4-40C0-9C07-503DBC3F4160";
leftMetricsKey = n;
paths = (
{
closed = 1;
nodes = (
"162 -4 OFFCURVE",
"206 39 OFFCURVE",
"250 123 CURVE",
"256 253 LINE",
"212 142 OFFCURVE",
"165 83 OFFCURVE",
"144 83 CURVE SMOOTH",
"128 83 OFFCURVE",
"121 109 OFFCURVE",
"127 147 CURVE SMOOTH",
"139 217 OFFCURVE",
"192 263 OFFCURVE",
"267 263 CURVE SMOOTH",
"276 263 LINE",
"288 350 LINE",
"264 350 LINE SMOOTH",
"139 350 OFFCURVE",
"48 272 OFFCURVE",
"26 147 CURVE SMOOTH",
"9 54 OFFCURVE",
"44 -4 OFFCURVE",
"117 -4 CURVE SMOOTH"
);
},
{
closed = 1;
nodes = (
"222 -300 OFFCURVE",
"237 -295 OFFCURVE",
"247 -284 CURVE",
"344 -207 LINE SMOOTH",
"359 -195 OFFCURVE",
"370 -181 OFFCURVE",
"372 -168 CURVE SMOOTH",
"376 -143 OFFCURVE",
"356 -124 OFFCURVE",
"331 -123 CURVE SMOOTH",
"319 -122 OFFCURVE",
"306 -127 OFFCURVE",
"291 -137 CURVE SMOOTH",
"288 -139 LINE",
"366 306 LINE SMOOTH",
"370 326 OFFCURVE",
"353 350 OFFCURVE",
"318 350 CURVE SMOOTH",
"273 350 LINE",
"167 -248 LINE SMOOTH",
"161 -280 OFFCURVE",
"182 -300 OFFCURVE",
"209 -300 CURVE SMOOTH"
);
}
);
vertWidth = 0;
width = 392;
}
);
leftKerningGroup = o_left;
note = "";
unicode = 0071;
},
{
glyphname = r;
layers = (
{
layerId = m01;
leftMetricsKey = n;
paths = (
{
closed = 1;
nodes = (
"49 0 OFFCURVE",
"63 9 OFFCURVE",
"66 27 CURVE SMOOTH",
"117 320 LINE SMOOTH",
"120 340 OFFCURVE",
"109 350 OFFCURVE",
"96 350 CURVE SMOOTH",
"84 350 OFFCURVE",
"70 341 OFFCURVE",
"67 323 CURVE SMOOTH",
"15 27 LINE SMOOTH",
"12 9 OFFCURVE",
"23 0 OFFCURVE",
"36 0 CURVE SMOOTH"
);
},
{
closed = 1;
nodes = (
"156 285 OFFCURVE",
"192 307 OFFCURVE",
"209 307 CURVE SMOOTH",
"223 307 OFFCURVE",
"235 278 OFFCURVE",
"265 278 CURVE SMOOTH",
"276 278 OFFCURVE",
"298 282 OFFCURVE",
"316 293 CURVE SMOOTH",
"332 302 OFFCURVE",
"344 313 OFFCURVE",
"344 329 CURVE SMOOTH",
"344 350 OFFCURVE",
"317 353 OFFCURVE",
"297 339 CURVE SMOOTH",
"290 334 OFFCURVE",
"276 326 OFFCURVE",
"266 326 CURVE SMOOTH",
"247 326 OFFCURVE",
"250 354 OFFCURVE",
"217 354 CURVE SMOOTH",
"180 354 OFFCURVE",
"134 318 OFFCURVE",
"100 249 CURVE",
"85 176 LINE"
);
}
);
vertWidth = 0;
width = 336;
},
{
layerId = "140DECC1-64C4-40C0-9C07-503DBC3F4160";
leftMetricsKey = n;
paths = (
{
closed = 1;
nodes = (
"87 0 OFFCURVE",
"113 14 OFFCURVE",
"118 41 CURVE SMOOTH",
"163 297 LINE SMOOTH",
"169 329 OFFCURVE",
"143 350 OFFCURVE",
"117 350 CURVE SMOOTH",
"95 350 OFFCURVE",
"69 336 OFFCURVE",
"64 309 CURVE SMOOTH",
"18 48 LINE SMOOTH",
"13 18 OFFCURVE",
"38 0 OFFCURVE",
"64 0 CURVE SMOOTH"
);
},
{
closed = 1;
nodes = (
"164 213 OFFCURVE",
"207 264 OFFCURVE",
"221 264 CURVE SMOOTH",
"238 264 OFFCURVE",
"257 244 OFFCURVE",
"285 244 CURVE SMOOTH",
"301 244 OFFCURVE",
"331 259 OFFCURVE",
"349 269 CURVE SMOOTH",
"365 278 OFFCURVE",
"391 288 OFFCURVE",
"391 318 CURVE SMOOTH",
"391 361 OFFCURVE",
"344 364 OFFCURVE",
"324 350 CURVE SMOOTH",
"317 345 OFFCURVE",
"301 333 OFFCURVE",
"288 333 CURVE SMOOTH",
"269 333 OFFCURVE",
"272 358 OFFCURVE",
"239 358 CURVE SMOOTH",
"202 358 OFFCURVE",
"148 275 OFFCURVE",
"117 203 CURVE",
"101 78 LINE"
);
}
);
vertWidth = 0;
width = 386;
}
);
leftKerningGroup = n_left;
note = "";
unicode = 0072;
},
{
glyphname = s;
layers = (
{
layerId = m01;
paths = (
{
closed = 1;
nodes = (
"201 -4 OFFCURVE",
"249 35 OFFCURVE",
"249 88 CURVE SMOOTH",
"249 125 OFFCURVE",
"236 145 OFFCURVE",
"218 162 CURVE SMOOTH",
"196 184 OFFCURVE",
"170 195 OFFCURVE",
"143 214 CURVE SMOOTH",
"121 229 OFFCURVE",
"98 246 OFFCURVE",
"98 265 CURVE SMOOTH",
"98 289 OFFCURVE",
"124 304 OFFCURVE",
"165 304 CURVE SMOOTH",
"197 304 OFFCURVE",
"224 285 OFFCURVE",
"236 279 CURVE SMOOTH",
"253 270 OFFCURVE",
"271 272 OFFCURVE",
"279 284 CURVE SMOOTH",
"287 297 OFFCURVE",
"279 314 OFFCURVE",
"259 325 CURVE SMOOTH",
"223 346 OFFCURVE",
"192 350 OFFCURVE",
"165 350 CURVE SMOOTH",
"93 350 OFFCURVE",
"48 318 OFFCURVE",
"48 265 CURVE SMOOTH",
"48 226 OFFCURVE",
"80 194 OFFCURVE",
"109 176 CURVE SMOOTH",
"136 159 OFFCURVE",
"161 144 OFFCURVE",
"175 133 CURVE SMOOTH",
"188 122 OFFCURVE",
"199 110 OFFCURVE",
"199 91 CURVE SMOOTH",
"199 63 OFFCURVE",
"173 42 OFFCURVE",
"137 42 CURVE SMOOTH",
"105 42 OFFCURVE",
"73 63 OFFCURVE",
"58 74 CURVE SMOOTH",
"43 85 OFFCURVE",
"23 85 OFFCURVE",
"16 73 CURVE SMOOTH",
"6 56 OFFCURVE",
"20 45 OFFCURVE",
"37 32 CURVE SMOOTH",
"71 7 OFFCURVE",
"110 -4 OFFCURVE",
"137 -4 CURVE SMOOTH"
);
}
);
vertWidth = 0;
width = 305;
},
{
layerId = "140DECC1-64C4-40C0-9C07-503DBC3F4160";
paths = (
{
closed = 1;
nodes = (
"223 -4 OFFCURVE",
"270 36 OFFCURVE",
"270 100 CURVE SMOOTH",
"270 141 OFFCURVE",
"257 159 OFFCURVE",
"238 177 CURVE SMOOTH",
"227 188 OFFCURVE",
"202 203 OFFCURVE",
"182 216 CURVE SMOOTH",
"152 235 OFFCURVE",
"140 248 OFFCURVE",
"140 260 CURVE SMOOTH",
"140 269 OFFCURVE",
"150 274 OFFCURVE",
"167 274 CURVE SMOOTH",
"190 274 OFFCURVE",
"215 268 OFFCURVE",
"231 259 CURVE SMOOTH",
"256 246 OFFCURVE",
"286 244 OFFCURVE",
"298 266 CURVE SMOOTH",
"314 296 OFFCURVE",
"297 323 OFFCURVE",
"260 341 CURVE SMOOTH",
"235 353 OFFCURVE",
"202 358 OFFCURVE",
"175 358 CURVE SMOOTH",
"96 358 OFFCURVE",
"48 321 OFFCURVE",
"48 260 CURVE SMOOTH",
"48 216 OFFCURVE",
"70 181 OFFCURVE",
"113 156 CURVE SMOOTH",
"135 142 OFFCURVE",
"155 129 OFFCURVE",
"168 120 CURVE SMOOTH",
"176 114 OFFCURVE",
"178 110 OFFCURVE",
"178 103 CURVE SMOOTH",
"178 92 OFFCURVE",
"169 82 OFFCURVE",
"149 82 CURVE SMOOTH",
"126 82 OFFCURVE",
"101 96 OFFCURVE",
"93 101 CURVE SMOOTH",
"71 115 OFFCURVE",
"38 120 OFFCURVE",
"24 97 CURVE SMOOTH",
"9 73 OFFCURVE",
"20 45 OFFCURVE",
"59 20 CURVE SMOOTH",
"84 4 OFFCURVE",
"121 -4 OFFCURVE",
"148 -4 CURVE SMOOTH"
);
}
);
vertWidth = 0;
width = 324;
}
);
note = "";
unicode = 0073;
},
{
glyphname = t;
layers = (
{
layerId = m01;
paths = (
{
closed = 1;
nodes = (
"97 0 OFFCURVE",
"110 7 OFFCURVE",
"113 23 CURVE SMOOTH",
"203 540 LINE SMOOTH",
"206 558 OFFCURVE",
"192 568 OFFCURVE",
"178 568 CURVE SMOOTH",
"167 568 OFFCURVE",
"157 561 OFFCURVE",
"154 547 CURVE SMOOTH",
"61 24 LINE SMOOTH",
"58 8 OFFCURVE",
"71 0 OFFCURVE",
"84 0 CURVE SMOOTH"
);
},
{
closed = 1;
nodes = (
"248 305 LINE SMOOTH",
"268 305 OFFCURVE",
"274 316 OFFCURVE",
"274 328 CURVE SMOOTH",
"274 340 OFFCURVE",
"268 350 OFFCURVE",
"248 350 CURVE SMOOTH",
"44 350 LINE SMOOTH",
"24 350 OFFCURVE",
"18 340 OFFCURVE",
"18 328 CURVE SMOOTH",
"18 316 OFFCURVE",
"24 305 OFFCURVE",
"44 305 CURVE SMOOTH"
);
}
);
vertWidth = 0;
width = 269;
},
{
layerId = "140DECC1-64C4-40C0-9C07-503DBC3F4160";
paths = (
{
closed = 1;
nodes = (
"141 0 OFFCURVE",
"163 9 OFFCURVE",
"168 35 CURVE SMOOTH",
"254 523 LINE SMOOTH",
"260 557 OFFCURVE",
"231 568 OFFCURVE",
"204 568 CURVE SMOOTH",
"182 568 OFFCURVE",
"159 555 OFFCURVE",
"155 532 CURVE SMOOTH",
"69 44 LINE SMOOTH",
"63 12 OFFCURVE",
"90 0 OFFCURVE",
"116 0 CURVE SMOOTH"
);
},
{
closed = 1;
nodes = (
"275 265 LINE SMOOTH",
"307 265 OFFCURVE",
"325 283 OFFCURVE",
"325 307 CURVE SMOOTH",
"325 332 OFFCURVE",
"307 350 OFFCURVE",
"275 350 CURVE SMOOTH",
"65 350 LINE SMOOTH",
"33 350 OFFCURVE",
"15 332 OFFCURVE",
"15 307 CURVE SMOOTH",
"15 283 OFFCURVE",
"33 265 OFFCURVE",
"65 265 CURVE SMOOTH"
);
}
);
vertWidth = 0;
width = 324;
}
);
note = "";
unicode = 0074;
},
{
glyphname = u;
layers = (
{
layerId = m01;
paths = (
{
closed = 1;
nodes = (
"170 -4 OFFCURVE",
"208 27 OFFCURVE",
"256 104 CURVE",
"266 176 LINE",
"206 83 OFFCURVE",
"166 42 OFFCURVE",
"127 42 CURVE SMOOTH",
"91 42 OFFCURVE",
"73 72 OFFCURVE",
"81 117 CURVE SMOOTH",
"118 326 LINE SMOOTH",
"119 334 OFFCURVE",
"118 350 OFFCURVE",
"96 350 CURVE SMOOTH",
"70 350 OFFCURVE",
"69 334 OFFCURVE",
"68 329 CURVE SMOOTH",
"31 120 LINE SMOOTH",
"18 43 OFFCURVE",
"54 -4 OFFCURVE",
"124 -4 CURVE SMOOTH"
);
},
{
closed = 1;
nodes = (
"267 0 OFFCURVE",
"276 9 OFFCURVE",
"280 27 CURVE SMOOTH",
"333 327 LINE SMOOTH",
"334 335 OFFCURVE",
"333 350 OFFCURVE",
"311 350 CURVE SMOOTH",
"285 350 OFFCURVE",
"283 332 OFFCURVE",
"282 327 CURVE SMOOTH",
"229 27 LINE SMOOTH",
"227 10 OFFCURVE",
"230 0 OFFCURVE",
"247 0 CURVE SMOOTH"
);
}
);
vertWidth = 0;
width = 355;
},
{
layerId = "140DECC1-64C4-40C0-9C07-503DBC3F4160";
paths = (
{
closed = 1;
nodes = (
"161 -4 OFFCURVE",
"200 25 OFFCURVE",
"241 82 CURVE",
"262 214 LINE",
"213 126 OFFCURVE",
"178 82 OFFCURVE",
"158 82 CURVE SMOOTH",
"137 82 OFFCURVE",
"130 102 OFFCURVE",
"137 142 CURVE SMOOTH",
"165 301 LINE SMOOTH",
"169 325 OFFCURVE",
"153 350 OFFCURVE",
"121 350 CURVE SMOOTH",
"85 350 OFFCURVE",
"69 331 OFFCURVE",
"66 316 CURVE SMOOTH",
"38 157 LINE SMOOTH",
"19 50 OFFCURVE",
"48 -4 OFFCURVE",
"124 -4 CURVE SMOOTH"
);
},
{
closed = 1;
nodes = (
"310 0 OFFCURVE",
"323 30 OFFCURVE",
"325 42 CURVE SMOOTH",
"372 306 LINE SMOOTH",
"376 330 OFFCURVE",
"365 350 OFFCURVE",
"331 350 CURVE SMOOTH",
"294 350 OFFCURVE",
"275 328 OFFCURVE",
"272 313 CURVE SMOOTH",
"225 48 LINE SMOOTH",
"220 18 OFFCURVE",
"236 0 OFFCURVE",
"268 0 CURVE SMOOTH"
);
}
);
vertWidth = 0;
width = 398;
}
);
leftKerningGroup = n_left;
note = "";
rightKerningGroup = n_right;
unicode = 0075;
},
{
glyphname = v;
layers = (
{
layerId = m01;
paths = (
{
closed = 1;
nodes = (
"152 -4 OFFCURVE",
"242 94 OFFCURVE",
"345 288 CURVE SMOOTH",
"349 296 LINE",
"405 284 LINE SMOOTH",
"426 279 OFFCURVE",
"447 287 OFFCURVE",
"447 310 CURVE SMOOTH",
"447 321 OFFCURVE",
"441 331 OFFCURVE",
"423 334 CURVE SMOOTH",
"358 347 OFFCURVE",
"342 350 OFFCURVE",
"338 350 CURVE SMOOTH",
"320 350 OFFCURVE",
"314 337 OFFCURVE",
"302 315 CURVE SMOOTH",
"210 137 OFFCURVE",
"139 42 OFFCURVE",
"90 42 CURVE SMOOTH",
"76 42 OFFCURVE",
"72 62 OFFCURVE",
"79 102 CURVE SMOOTH",
"118 320 LINE SMOOTH",
"122 340 OFFCURVE",
"110 350 OFFCURVE",
"97 350 CURVE SMOOTH",
"85 350 OFFCURVE",
"70 341 OFFCURVE",
"67 323 CURVE SMOOTH",
"28 102 LINE SMOOTH",
"19 50 OFFCURVE",
"23 -4 OFFCURVE",
"76 -4 CURVE SMOOTH"
);
}
);
vertWidth = 0;
width = 433;
},
{
layerId = "140DECC1-64C4-40C0-9C07-503DBC3F4160";
paths = (
{
closed = 1;
nodes = (
"190 -4 OFFCURVE",
"299 101 OFFCURVE",
"370 241 CURVE SMOOTH",
"373 247 LINE",
"411 239 LINE SMOOTH",
"451 231 OFFCURVE",
"484 249 OFFCURVE",
"484 288 CURVE SMOOTH",
"484 310 OFFCURVE",
"469 329 OFFCURVE",
"439 335 CURVE SMOOTH",
"368 349 OFFCURVE",
"362 350 OFFCURVE",
"358 350 CURVE SMOOTH",
"331 350 OFFCURVE",
"317 337 OFFCURVE",
"302 307 CURVE SMOOTH",
"238 177 OFFCURVE",
"168 83 OFFCURVE",
"137 83 CURVE SMOOTH",
"129 83 OFFCURVE",
"127 92 OFFCURVE",
"131 115 CURVE SMOOTH",
"164 297 LINE SMOOTH",
"170 330 OFFCURVE",
"147 350 OFFCURVE",
"120 350 CURVE SMOOTH",
"98 350 OFFCURVE",
"69 334 OFFCURVE",
"64 307 CURVE SMOOTH",
"30 115 LINE SMOOTH",
"17 36 OFFCURVE",
"45 -4 OFFCURVE",
"111 -4 CURVE SMOOTH"
);
}
);
vertWidth = 0;
width = 474;
}
);
leftKerningGroup = v_left;
note = "";
rightKerningGroup = v_right;
unicode = 0076;
},
{
glyphname = w;
layers = (
{
layerId = m01;
paths = (
{
closed = 1;
nodes = (
"158 -4 OFFCURVE",
"237 106 OFFCURVE",
"298 216 CURVE",
"292 216 LINE",
"270 102 LINE SMOOTH",
"260 52 OFFCURVE",
"264 -4 OFFCURVE",
"318 -4 CURVE SMOOTH",
"437 -4 OFFCURVE",
"568 250 OFFCURVE",
"587 288 CURVE SMOOTH",
"591 296 LINE",
"647 284 LINE SMOOTH",
"670 279 OFFCURVE",
"689 287 OFFCURVE",
"689 309 CURVE SMOOTH",
"689 321 OFFCURVE",
"683 331 OFFCURVE",
"665 334 CURVE SMOOTH",
"610 345 OFFCURVE",
"584 350 OFFCURVE",
"580 350 CURVE SMOOTH",
"562 350 OFFCURVE",
"556 337 OFFCURVE",
"544 315 CURVE SMOOTH",
"498 226 OFFCURVE",
"399 42 OFFCURVE",
"332 42 CURVE SMOOTH",
"317 42 OFFCURVE",
"313 62 OFFCURVE",
"321 102 CURVE SMOOTH",
"360 320 LINE SMOOTH",
"364 340 OFFCURVE",
"352 350 OFFCURVE",
"339 350 CURVE",
"321 350 OFFCURVE",
"313 337 OFFCURVE",
"302 315 CURVE SMOOTH",
"256 222 OFFCURVE",
"154 42 OFFCURVE",
"90 42 CURVE SMOOTH",
"75 42 OFFCURVE",
"71 62 OFFCURVE",
"79 102 CURVE SMOOTH",
"118 320 LINE SMOOTH",
"122 340 OFFCURVE",
"110 350 OFFCURVE",
"97 350 CURVE SMOOTH",
"85 350 OFFCURVE",
"70 341 OFFCURVE",
"67 323 CURVE SMOOTH",
"28 102 LINE SMOOTH",
"18 52 OFFCURVE",
"22 -4 OFFCURVE",
"76 -4 CURVE SMOOTH"
);
}
);
vertWidth = 0;
width = 675;
},
{
layerId = "140DECC1-64C4-40C0-9C07-503DBC3F4160";
paths = (
{
closed = 1;
nodes = (
"167 -4 OFFCURVE",
"221 49 OFFCURVE",
"289 154 CURVE",
"277 159 LINE",
"271 115 LINE SMOOTH",
"258 36 OFFCURVE",
"286 -4 OFFCURVE",
"352 -4 CURVE SMOOTH",
"431 -4 OFFCURVE",
"540 101 OFFCURVE",
"611 241 CURVE SMOOTH",
"614 247 LINE",
"652 239 LINE SMOOTH",
"692 231 OFFCURVE",
"725 249 OFFCURVE",
"725 288 CURVE SMOOTH",
"725 310 OFFCURVE",
"710 329 OFFCURVE",
"680 335 CURVE SMOOTH",
"609 349 OFFCURVE",
"603 350 OFFCURVE",
"599 350 CURVE SMOOTH",
"572 350 OFFCURVE",
"558 337 OFFCURVE",
"543 307 CURVE SMOOTH",
"479 177 OFFCURVE",
"409 83 OFFCURVE",
"378 83 CURVE SMOOTH",
"370 83 OFFCURVE",
"368 92 OFFCURVE",
"372 115 CURVE SMOOTH",
"405 297 LINE SMOOTH",
"411 330 OFFCURVE",
"388 350 OFFCURVE",
"358 350 CURVE SMOOTH",
"331 350 OFFCURVE",
"317 337 OFFCURVE",
"302 307 CURVE SMOOTH",
"238 177 OFFCURVE",
"168 83 OFFCURVE",
"137 83 CURVE SMOOTH",
"129 83 OFFCURVE",
"127 92 OFFCURVE",
"131 115 CURVE SMOOTH",
"164 297 LINE SMOOTH",
"170 330 OFFCURVE",
"147 350 OFFCURVE",
"120 350 CURVE SMOOTH",
"98 350 OFFCURVE",
"69 334 OFFCURVE",
"64 307 CURVE SMOOTH",
"30 115 LINE SMOOTH",
"17 36 OFFCURVE",
"45 -4 OFFCURVE",
"111 -4 CURVE SMOOTH"
);
}
);
vertWidth = 0;
width = 715;
}
);
leftKerningGroup = v_left;
note = "";
rightKerningGroup = v_right;
unicode = 0077;
},
{
glyphname = x;
layers = (
{
layerId = m01;
paths = (
{
closed = 1;
nodes = (
"190 -4 OFFCURVE",
"252 107 OFFCURVE",
"253 255 CURVE SMOOTH",
"253 330 OFFCURVE",
"219 354 OFFCURVE",
"182 354 CURVE SMOOTH",
"132 354 OFFCURVE",
"90 322 OFFCURVE",
"59 260 CURVE SMOOTH",
"55 251 OFFCURVE",
"60 239 OFFCURVE",
"71 233 CURVE SMOOTH",
"84 226 OFFCURVE",
"98 227 OFFCURVE",
"103 237 CURVE SMOOTH",
"126 281 OFFCURVE",
"151 308 OFFCURVE",
"178 308 CURVE SMOOTH",
"206 308 OFFCURVE",
"214 273 OFFCURVE",
"213 245 CURVE SMOOTH",
"210 131 OFFCURVE",
"160 42 OFFCURVE",
"105 42 CURVE SMOOTH",
"83 42 OFFCURVE",
"63 46 OFFCURVE",
"45 53 CURVE SMOOTH",
"28 60 OFFCURVE",
"15 59 OFFCURVE",
"9 44 CURVE SMOOTH",
"2 29 OFFCURVE",
"8 15 OFFCURVE",
"24 9 CURVE SMOOTH",
"46 0 OFFCURVE",
"73 -4 OFFCURVE",
"105 -4 CURVE SMOOTH"
);
},
{
closed = 1;
nodes = (
"328 -4 OFFCURVE",
"384 48 OFFCURVE",
"426 131 CURVE SMOOTH",
"430 140 OFFCURVE",
"425 152 OFFCURVE",
"414 158 CURVE SMOOTH",
"401 165 OFFCURVE",
"387 164 OFFCURVE",
"382 154 CURVE SMOOTH",
"348 87 OFFCURVE",
"310 42 OFFCURVE",
"283 42 CURVE SMOOTH",
"255 42 OFFCURVE",
"247 77 OFFCURVE",
"248 105 CURVE SMOOTH",
"251 219 OFFCURVE",
"301 308 OFFCURVE",
"356 308 CURVE SMOOTH",
"378 308 OFFCURVE",
"398 304 OFFCURVE",
"416 297 CURVE SMOOTH",
"433 290 OFFCURVE",
"446 291 OFFCURVE",
"452 306 CURVE SMOOTH",
"459 321 OFFCURVE",
"453 335 OFFCURVE",
"437 341 CURVE SMOOTH",
"415 350 OFFCURVE",
"388 354 OFFCURVE",
"356 354 CURVE SMOOTH",
"271 354 OFFCURVE",
"207 243 OFFCURVE",
"207 95 CURVE SMOOTH",
"207 20 OFFCURVE",
"242 -4 OFFCURVE",
"279 -4 CURVE SMOOTH"
);
}
);
vertWidth = 0;
width = 483;
},
{
layerId = "140DECC1-64C4-40C0-9C07-503DBC3F4160";
paths = (
{
closed = 1;
nodes = (
"222 -4 OFFCURVE",
"265 87 OFFCURVE",
"281 234 CURVE SMOOTH",
"290 311 OFFCURVE",
"282 358 OFFCURVE",
"211 358 CURVE SMOOTH",
"145 358 OFFCURVE",
"96 329 OFFCURVE",
"65 272 CURVE SMOOTH",
"59 261 OFFCURVE",
"60 234 OFFCURVE",
"86 221 CURVE SMOOTH",
"112 208 OFFCURVE",
"138 214 OFFCURVE",
"146 229 CURVE SMOOTH",
"161 257 OFFCURVE",
"180 271 OFFCURVE",
"201 271 CURVE SMOOTH",
"214 271 OFFCURVE",
"221 258 OFFCURVE",
"219 236 CURVE SMOOTH",
"208 138 OFFCURVE",
"171 78 OFFCURVE",
"120 78 CURVE SMOOTH",
"105 78 OFFCURVE",
"89 81 OFFCURVE",
"70 89 CURVE SMOOTH",
"47 98 OFFCURVE",
"25 89 OFFCURVE",
"14 66 CURVE SMOOTH",
"-2 32 OFFCURVE",
"24 14 OFFCURVE",
"37 9 CURVE SMOOTH",
"59 0 OFFCURVE",
"85 -4 OFFCURVE",
"120 -4 CURVE SMOOTH"
);
},
{
closed = 1;
nodes = (
"362 -4 OFFCURVE",
"427 44 OFFCURVE",
"469 121 CURVE SMOOTH",
"475 132 OFFCURVE",
"474 159 OFFCURVE",
"448 172 CURVE SMOOTH",
"422 185 OFFCURVE",
"396 179 OFFCURVE",
"388 164 CURVE SMOOTH",
"362 114 OFFCURVE",
"332 83 OFFCURVE",
"309 83 CURVE SMOOTH",
"296 83 OFFCURVE",
"289 96 OFFCURVE",
"291 118 CURVE SMOOTH",
"302 216 OFFCURVE",
"339 276 OFFCURVE",
"390 276 CURVE SMOOTH",
"405 276 OFFCURVE",
"421 273 OFFCURVE",
"440 265 CURVE SMOOTH",
"463 256 OFFCURVE",
"485 265 OFFCURVE",
"496 288 CURVE SMOOTH",
"512 322 OFFCURVE",
"486 340 OFFCURVE",
"473 345 CURVE SMOOTH",
"451 354 OFFCURVE",
"425 358 OFFCURVE",
"390 358 CURVE SMOOTH",
"288 358 OFFCURVE",
"245 267 OFFCURVE",
"229 120 CURVE SMOOTH",
"220 43 OFFCURVE",
"228 -4 OFFCURVE",
"299 -4 CURVE SMOOTH"
);
}
);
vertWidth = 0;
width = 519;
}
);
note = "";
unicode = 0078;
},
{
glyphname = y;
layers = (
{
layerId = m01;
paths = (
{
closed = 1;
nodes = (
"170 -4 OFFCURVE",
"208 27 OFFCURVE",
"256 104 CURVE",
"266 176 LINE",
"206 83 OFFCURVE",
"166 42 OFFCURVE",
"127 42 CURVE SMOOTH",
"91 42 OFFCURVE",
"73 72 OFFCURVE",
"81 117 CURVE SMOOTH",
"118 326 LINE SMOOTH",
"119 334 OFFCURVE",
"118 350 OFFCURVE",
"96 350 CURVE SMOOTH",
"70 350 OFFCURVE",
"69 334 OFFCURVE",
"68 329 CURVE SMOOTH",
"31 120 LINE SMOOTH",
"18 43 OFFCURVE",
"54 -4 OFFCURVE",
"124 -4 CURVE SMOOTH"
);
},
{
closed = 1;
nodes = (
"180 -300 OFFCURVE",
"232 -244 OFFCURVE",
"256 -107 CURVE SMOOTH",
"332 323 LINE SMOOTH",
"335 340 OFFCURVE",
"331 350 OFFCURVE",
"314 350 CURVE",
"294 350 OFFCURVE",
"284 341 OFFCURVE",
"281 323 CURVE SMOOTH",
"206 -103 LINE SMOOTH",
"188 -207 OFFCURVE",
"156 -250 OFFCURVE",
"92 -250 CURVE SMOOTH",
"63 -250 OFFCURVE",
"34 -242 OFFCURVE",
"15 -228 CURVE SMOOTH",
"4 -221 OFFCURVE",
"-10 -225 OFFCURVE",
"-17 -233 CURVE SMOOTH",
"-26 -244 OFFCURVE",
"-25 -259 OFFCURVE",
"-15 -267 CURVE SMOOTH",
"9 -287 OFFCURVE",
"49 -300 OFFCURVE",
"91 -300 CURVE SMOOTH"
);
}
);
vertWidth = 0;
width = 355;
},
{
layerId = "140DECC1-64C4-40C0-9C07-503DBC3F4160";
paths = (
{
closed = 1;
nodes = (
"161 -4 OFFCURVE",
"200 25 OFFCURVE",
"241 82 CURVE",
"262 214 LINE",
"213 126 OFFCURVE",
"178 82 OFFCURVE",
"158 82 CURVE SMOOTH",
"137 82 OFFCURVE",
"130 102 OFFCURVE",
"137 142 CURVE SMOOTH",
"165 301 LINE SMOOTH",
"169 325 OFFCURVE",
"153 350 OFFCURVE",
"121 350 CURVE SMOOTH",
"85 350 OFFCURVE",
"69 331 OFFCURVE",
"66 316 CURVE SMOOTH",
"38 157 LINE SMOOTH",
"19 50 OFFCURVE",
"48 -4 OFFCURVE",
"124 -4 CURVE SMOOTH"
);
},
{
closed = 1;
nodes = (
"208 -300 OFFCURVE",
"279 -215 OFFCURVE",
"309 -47 CURVE SMOOTH",
"371 302 LINE SMOOTH",
"376 332 OFFCURVE",
"360 350 OFFCURVE",
"328 350 CURVE SMOOTH",
"286 350 OFFCURVE",
"273 320 OFFCURVE",
"271 308 CURVE SMOOTH",
"209 -40 LINE SMOOTH",
"185 -173 OFFCURVE",
"130 -203 OFFCURVE",
"91 -203 CURVE SMOOTH",
"72 -203 OFFCURVE",
"58 -196 OFFCURVE",
"50 -191 CURVE SMOOTH",
"29 -178 OFFCURVE",
"3 -183 OFFCURVE",
"-10 -204 CURVE SMOOTH",
"-26 -228 OFFCURVE",
"-22 -256 OFFCURVE",
"-1 -271 CURVE SMOOTH",
"14 -282 OFFCURVE",
"50 -300 OFFCURVE",
"98 -300 CURVE SMOOTH"
);
}
);
vertWidth = 0;
width = 398;
}
);
leftKerningGroup = n_left;
note = "";
rightKerningGroup = n_right;
unicode = 0079;
},
{
glyphname = z;
lastChange = "2022-03-24 05:44:41 +0000";
layers = (
{
layerId = m01;
paths = (
{
closed = 1;
nodes = (
"246 0 LINE SMOOTH",
"266 0 OFFCURVE",
"272 13 OFFCURVE",
"272 25 CURVE SMOOTH",
"272 37 OFFCURVE",
"266 46 OFFCURVE",
"246 46 CURVE SMOOTH",
"56 46 LINE",
"63 28 LINE",
"306 308 LINE SMOOTH",
"322 326 OFFCURVE",
"317 350 OFFCURVE",
"291 350 CURVE SMOOTH",
"84 350 LINE SMOOTH",
"64 350 OFFCURVE",
"58 337 OFFCURVE",
"58 325 CURVE SMOOTH",
"58 313 OFFCURVE",
"64 304 OFFCURVE",
"84 304 CURVE SMOOTH",
"263 304 LINE",
"256 322 LINE",
"13 44 LINE SMOOTH",
"-2 27 OFFCURVE",
"6 0 OFFCURVE",
"27 0 CURVE SMOOTH"
);
}
);
vertWidth = 0;
width = 348;
},
{
layerId = "140DECC1-64C4-40C0-9C07-503DBC3F4160";
paths = (
{
closed = 1;
nodes = (
"272 0 LINE SMOOTH",
"302 0 OFFCURVE",
"320 19 OFFCURVE",
"320 43 CURVE SMOOTH",
"320 67 OFFCURVE",
"302 87 OFFCURVE",
"272 87 CURVE SMOOTH",
"134 87 LINE",
"137 64 LINE",
"334 268 LINE SMOOTH",
"372 308 OFFCURVE",
"354 350 OFFCURVE",
"308 350 CURVE SMOOTH",
"103 350 LINE SMOOTH",
"73 350 OFFCURVE",
"55 329 OFFCURVE",
"55 305 CURVE SMOOTH",
"55 281 OFFCURVE",
"73 263 OFFCURVE",
"103 263 CURVE SMOOTH",
"225 263 LINE",
"222 281 LINE",
"23 75 LINE SMOOTH",
"-4 48 OFFCURVE",
"8 0 OFFCURVE",
"54 0 CURVE SMOOTH"
);
}
);
vertWidth = 0;
width = 383;
}
);
note = "";
unicode = 007A;
},
{
glyphname = zero;
layers = (
{
layerId = m01;
paths = (
{
closed = 1;
nodes = (
"347 -3 OFFCURVE",
"455 149 OFFCURVE",
"455 352 CURVE SMOOTH",
"455 487 OFFCURVE",
"398 569 OFFCURVE",
"306 569 CURVE SMOOTH",
"164 568 OFFCURVE",
"56 416 OFFCURVE",
"56 213 CURVE SMOOTH",
"56 78 OFFCURVE",
"113 -3 OFFCURVE",
"205 -3 CURVE SMOOTH"
);
},
{
closed = 1;
nodes = (
"143 47 OFFCURVE",
"106 108 OFFCURVE",
"106 208 CURVE SMOOTH",
"106 386 OFFCURVE",
"192 519 OFFCURVE",
"307 519 CURVE SMOOTH",
"368 519 OFFCURVE",
"405 457 OFFCURVE",
"405 357 CURVE SMOOTH",
"405 179 OFFCURVE",
"319 47 OFFCURVE",
"204 47 CURVE SMOOTH"
);
}
);
vertWidth = 0;
width = 481;
},
{
layerId = "140DECC1-64C4-40C0-9C07-503DBC3F4160";
paths = (
{
closed = 1;
nodes = (
"332 -3 OFFCURVE",
"453 172 OFFCURVE",
"453 366 CURVE SMOOTH",
"453 491 OFFCURVE",
"393 569 OFFCURVE",
"297 569 CURVE SMOOTH",
"101 569 OFFCURVE",
"46 340 OFFCURVE",
"46 222 CURVE SMOOTH",
"46 82 OFFCURVE",
"104 -4 OFFCURVE",
"198 -4 CURVE SMOOTH"
);
},
{
closed = 1;
nodes = (
"166 86 OFFCURVE",
"146 138 OFFCURVE",
"146 218 CURVE SMOOTH",
"146 331 OFFCURVE",
"193 479 OFFCURVE",
"299 479 CURVE SMOOTH",
"333 479 OFFCURVE",
"354 436 OFFCURVE",
"354 369 CURVE SMOOTH",
"354 221 OFFCURVE",
"280 86 OFFCURVE",
"198 86 CURVE SMOOTH"
);
}
);
vertWidth = 0;
width = 476;
}
);
note = "";
unicode = 0030;
},
{
glyphname = one;
layers = (
{
layerId = m01;
paths = (
{
closed = 1;
nodes = (
"69 0 OFFCURVE",
"82 6 OFFCURVE",
"85 23 CURVE SMOOTH",
"177 543 LINE SMOOTH",
"180 560 OFFCURVE",
"169 568 OFFCURVE",
"156 568 CURVE SMOOTH",
"143 568 OFFCURVE",
"129 561 OFFCURVE",
"126 543 CURVE SMOOTH",
"35 28 LINE SMOOTH",
"32 9 OFFCURVE",
"44 0 OFFCURVE",
"57 0 CURVE SMOOTH"
);
}
);
vertWidth = 0;
width = 181;
},
{
layerId = "140DECC1-64C4-40C0-9C07-503DBC3F4160";
paths = (
{
closed = 1;
nodes = (
"108 0 OFFCURVE",
"133 12 OFFCURVE",
"138 39 CURVE SMOOTH",
"223 518 LINE SMOOTH",
"228 548 OFFCURVE",
"204 568 OFFCURVE",
"177 568 CURVE SMOOTH",
"154 568 OFFCURVE",
"128 554 OFFCURVE",
"123 526 CURVE SMOOTH",
"39 51 LINE SMOOTH",
"33 18 OFFCURVE",
"59 0 OFFCURVE",
"86 0 CURVE SMOOTH"
);
}
);
vertWidth = 0;
width = 232;
}
);
note = "";
unicode = 0031;
},
{
glyphname = two;
layers = (
{
layerId = m01;
paths = (
{
closed = 1;
nodes = (
"310 0 LINE SMOOTH",
"330 0 OFFCURVE",
"336 13 OFFCURVE",
"336 25 CURVE SMOOTH",
"336 37 OFFCURVE",
"330 46 OFFCURVE",
"310 46 CURVE SMOOTH",
"81 46 LINE",
"76 27 LINE",
"152 115 OFFCURVE",
"289 263 OFFCURVE",
"302 278 CURVE SMOOTH",
"375 367 OFFCURVE",
"414 428 OFFCURVE",
"414 473 CURVE SMOOTH",
"414 532 OFFCURVE",
"366 568 OFFCURVE",
"287 568 CURVE SMOOTH",
"225 568 OFFCURVE",
"156 541 OFFCURVE",
"113 505 CURVE SMOOTH",
"89 485 OFFCURVE",
"93 472 OFFCURVE",
"101 463 CURVE SMOOTH",
"109 454 OFFCURVE",
"125 451 OFFCURVE",
"150 471 CURVE SMOOTH",
"185 500 OFFCURVE",
"241 522 OFFCURVE",
"287 522 CURVE SMOOTH",
"335 522 OFFCURVE",
"364 502 OFFCURVE",
"364 469 CURVE SMOOTH",
"364 430 OFFCURVE",
"323 376 OFFCURVE",
"286 332 CURVE SMOOTH",
"260 301 OFFCURVE",
"152 185 OFFCURVE",
"22 35 CURVE SMOOTH",
"5 16 OFFCURVE",
"16 0 OFFCURVE",
"38 0 CURVE"
);
}
);
vertWidth = 0;
width = 412;
},
{
layerId = "140DECC1-64C4-40C0-9C07-503DBC3F4160";
paths = (
{
closed = 1;
nodes = (
"310 0 LINE SMOOTH",
"340 0 OFFCURVE",
"360 20 OFFCURVE",
"360 47 CURVE SMOOTH",
"360 71 OFFCURVE",
"342 90 OFFCURVE",
"310 90 CURVE SMOOTH",
"138 90 LINE",
"148 68 LINE",
"242 173 OFFCURVE",
"319 254 OFFCURVE",
"327 264 CURVE SMOOTH",
"398 352 OFFCURVE",
"433 413 OFFCURVE",
"433 460 CURVE SMOOTH",
"433 527 OFFCURVE",
"378 568 OFFCURVE",
"288 568 CURVE SMOOTH",
"223 568 OFFCURVE",
"150 540 OFFCURVE",
"107 504 CURVE SMOOTH",
"73 476 OFFCURVE",
"79 454 OFFCURVE",
"96 434 CURVE SMOOTH",
"108 421 OFFCURVE",
"138 413 OFFCURVE",
"176 443 CURVE SMOOTH",
"207 468 OFFCURVE",
"251 482 OFFCURVE",
"286 482 CURVE SMOOTH",
"316 482 OFFCURVE",
"335 472 OFFCURVE",
"335 455 CURVE SMOOTH",
"335 430 OFFCURVE",
"305 385 OFFCURVE",
"269 343 CURVE SMOOTH",
"243 313 OFFCURVE",
"146 205 OFFCURVE",
"21 65 CURVE SMOOTH",
"-10 29 OFFCURVE",
"15 0 OFFCURVE",
"54 0 CURVE SMOOTH"
);
}
);
vertWidth = 0;
width = 434;
}
);
note = "";
unicode = 0032;
},
{
glyphname = three;
layers = (
{
layerId = m01;
paths = (
{
closed = 1;
nodes = (
"265 -4 OFFCURVE",
"386 105 OFFCURVE",
"386 226 CURVE SMOOTH",
"386 301 OFFCURVE",
"338 369 OFFCURVE",
"213 341 CURVE",
"209 327 LINE",
"330 415 OFFCURVE",
"383 458 OFFCURVE",
"383 500 CURVE SMOOTH",
"383 542 OFFCURVE",
"345 568 OFFCURVE",
"284 568 CURVE SMOOTH",
"236 568 OFFCURVE",
"175 551 OFFCURVE",
"115 511 CURVE SMOOTH",
"90 495 OFFCURVE",
"95 478 OFFCURVE",
"100 470 CURVE SMOOTH",
"106 460 OFFCURVE",
"122 455 OFFCURVE",
"135 464 CURVE SMOOTH",
"196 505 OFFCURVE",
"253 522 OFFCURVE",
"290 522 CURVE SMOOTH",
"317 522 OFFCURVE",
"334 512 OFFCURVE",
"334 498 CURVE SMOOTH",
"334 464 OFFCURVE",
"199 366 OFFCURVE",
"115 314 CURVE SMOOTH",
"98 303 OFFCURVE",
"100 288 OFFCURVE",
"104 280 CURVE SMOOTH",
"109 270 OFFCURVE",
"125 266 OFFCURVE",
"140 275 CURVE SMOOTH",
"187 304 OFFCURVE",
"229 305 OFFCURVE",
"257 305 CURVE SMOOTH",
"316 305 OFFCURVE",
"336 266 OFFCURVE",
"336 225 CURVE SMOOTH",
"336 131 OFFCURVE",
"239 42 OFFCURVE",
"130 42 CURVE SMOOTH",
"106 42 OFFCURVE",
"82 49 OFFCURVE",
"67 61 CURVE SMOOTH",
"43 79 OFFCURVE",
"30 74 OFFCURVE",
"25 67 CURVE SMOOTH",
"20 60 OFFCURVE",
"14 45 OFFCURVE",
"39 25 CURVE SMOOTH",
"61 7 OFFCURVE",
"95 -4 OFFCURVE",
"129 -4 CURVE SMOOTH"
);
}
);
vertWidth = 0;
width = 429;
},
{
layerId = "140DECC1-64C4-40C0-9C07-503DBC3F4160";
paths = (
{
closed = 1;
nodes = (
"285 -4 OFFCURVE",
"416 106 OFFCURVE",
"416 229 CURVE SMOOTH",
"416 327 OFFCURVE",
"351 370 OFFCURVE",
"246 343 CURVE",
"244 325 LINE",
"371 415 OFFCURVE",
"413 446 OFFCURVE",
"413 495 CURVE SMOOTH",
"413 535 OFFCURVE",
"363 568 OFFCURVE",
"295 568 CURVE SMOOTH",
"241 568 OFFCURVE",
"180 550 OFFCURVE",
"120 510 CURVE SMOOTH",
"87 489 OFFCURVE",
"89 464 OFFCURVE",
"100 445 CURVE SMOOTH",
"113 423 OFFCURVE",
"141 424 OFFCURVE",
"164 439 CURVE SMOOTH",
"219 476 OFFCURVE",
"269 488 OFFCURVE",
"300 488 CURVE SMOOTH",
"307 488 OFFCURVE",
"316 487 OFFCURVE",
"316 481 CURVE SMOOTH",
"316 465 OFFCURVE",
"199 381 OFFCURVE",
"122 333 CURVE SMOOTH",
"95 316 OFFCURVE",
"94 290 OFFCURVE",
"104 270 CURVE SMOOTH",
"115 249 OFFCURVE",
"146 237 OFFCURVE",
"176 256 CURVE SMOOTH",
"211 278 OFFCURVE",
"240 288 OFFCURVE",
"263 288 CURVE SMOOTH",
"299 288 OFFCURVE",
"319 264 OFFCURVE",
"319 228 CURVE SMOOTH",
"319 148 OFFCURVE",
"224 83 OFFCURVE",
"161 83 CURVE SMOOTH",
"129 83 OFFCURVE",
"110 89 OFFCURVE",
"95 100 CURVE SMOOTH",
"64 124 OFFCURVE",
"35 115 OFFCURVE",
"22 97 CURVE SMOOTH",
"10 81 OFFCURVE",
"5 54 OFFCURVE",
"38 28 CURVE SMOOTH",
"64 7 OFFCURVE",
"101 -4 OFFCURVE",
"149 -4 CURVE SMOOTH"
);
}
);
vertWidth = 0;
width = 458;
}
);
note = "";
unicode = 0033;
},
{
glyphname = four;
layers = (
{
layerId = m01;
paths = (
{
closed = 1;
nodes = (
"366 135 LINE SMOOTH",
"382 135 OFFCURVE",
"392 146 OFFCURVE",
"392 158 CURVE SMOOTH",
"392 170 OFFCURVE",
"382 180 OFFCURVE",
"366 180 CURVE SMOOTH",
"104 180 LINE",
"315 540 LINE SMOOTH",
"325 558 OFFCURVE",
"308 569 OFFCURVE",
"296 569 CURVE SMOOTH",
"284 569 OFFCURVE",
"271 565 OFFCURVE",
"261 547 CURVE SMOOTH",
"44 177 LINE SMOOTH",
"29 151 OFFCURVE",
"48 135 OFFCURVE",
"66 135 CURVE SMOOTH"
);
},
{
closed = 1;
nodes = (
"227 -1 OFFCURVE",
"241 6 OFFCURVE",
"245 26 CURVE SMOOTH",
"288 258 LINE SMOOTH",
"291 275 OFFCURVE",
"280 285 OFFCURVE",
"268 287 CURVE SMOOTH",
"255 289 OFFCURVE",
"241 282 OFFCURVE",
"238 265 CURVE SMOOTH",
"195 31 LINE SMOOTH",
"191 11 OFFCURVE",
"202 1 OFFCURVE",
"215 0 CURVE SMOOTH"
);
}
);
vertWidth = 0;
width = 444;
},
{
guideLines = (
{
name = " [#kC2ohKlSA4]";
position = "{525, 569}";
}
);
layerId = "140DECC1-64C4-40C0-9C07-503DBC3F4160";
paths = (
{
closed = 1;
nodes = (
"366 122 LINE SMOOTH",
"394 122 OFFCURVE",
"415 143 OFFCURVE",
"415 168 CURVE SMOOTH",
"415 192 OFFCURVE",
"394 212 OFFCURVE",
"366 212 CURVE SMOOTH",
"153 212 LINE",
"323 500 LINE SMOOTH",
"351 547 OFFCURVE",
"315 569 OFFCURVE",
"291 569 CURVE",
"264 569 OFFCURVE",
"251 556 OFFCURVE",
"235 528 CURVE SMOOTH",
"43 202 LINE SMOOTH",
"9 145 OFFCURVE",
"40 122 OFFCURVE",
"86 122 CURVE SMOOTH"
);
},
{
closed = 1;
nodes = (
"254 0 OFFCURVE",
"270 16 OFFCURVE",
"275 44 CURVE SMOOTH",
"310 235 LINE SMOOTH",
"315 264 OFFCURVE",
"304 282 OFFCURVE",
"280 287 CURVE SMOOTH",
"256 291 OFFCURVE",
"236 276 OFFCURVE",
"231 248 CURVE SMOOTH",
"196 59 LINE SMOOTH",
"190 26 OFFCURVE",
"200 0 OFFCURVE",
"226 0 CURVE SMOOTH"
);
}
);
vertWidth = 0;
width = 466;
}
);
note = "";
unicode = 0034;
},
{
glyphname = five;
layers = (
{
layerId = m01;
paths = (
{
closed = 1;
nodes = (
"255 -4 OFFCURVE",
"350 89 OFFCURVE",
"350 206 CURVE SMOOTH",
"350 291 OFFCURVE",
"288 350 OFFCURVE",
"205 350 CURVE SMOOTH",
"164 350 OFFCURVE",
"145 348 OFFCURVE",
"93 331 CURVE",
"115 316 LINE",
"157 553 LINE",
"124 524 LINE",
"383 524 LINE SMOOTH",
"403 524 OFFCURVE",
"409 534 OFFCURVE",
"409 546 CURVE SMOOTH",
"409 558 OFFCURVE",
"403 569 OFFCURVE",
"383 569 CURVE",
"139 569 LINE SMOOTH",
"121 569 OFFCURVE",
"110 561 OFFCURVE",
"106 541 CURVE SMOOTH",
"65 310 LINE SMOOTH",
"62 295 OFFCURVE",
"72 286 OFFCURVE",
"85 286 CURVE SMOOTH",
"89 286 OFFCURVE",
"96 288 OFFCURVE",
"111 293 CURVE SMOOTH",
"134 300 OFFCURVE",
"162 304 OFFCURVE",
"187 304 CURVE SMOOTH",
"252 304 OFFCURVE",
"300 262 OFFCURVE",
"300 205 CURVE SMOOTH",
"300 117 OFFCURVE",
"226 42 OFFCURVE",
"127 42 CURVE SMOOTH",
"102 42 OFFCURVE",
"80 50 OFFCURVE",
"66 63 CURVE SMOOTH",
"59 70 OFFCURVE",
"52 72 OFFCURVE",
"43 72 CURVE SMOOTH",
"32 72 OFFCURVE",
"21 67 OFFCURVE",
"21 55 CURVE SMOOTH",
"21 46 OFFCURVE",
"25 37 OFFCURVE",
"34 28 CURVE SMOOTH",
"55 8 OFFCURVE",
"88 -4 OFFCURVE",
"127 -4 CURVE SMOOTH"
);
}
);
vertWidth = 0;
width = 397;
},
{
layerId = "140DECC1-64C4-40C0-9C07-503DBC3F4160";
paths = (
{
closed = 1;
nodes = (
"272 -3 OFFCURVE",
"373 91 OFFCURVE",
"373 216 CURVE SMOOTH",
"373 312 OFFCURVE",
"322 371 OFFCURVE",
"240 371 CURVE SMOOTH",
"196 371 OFFCURVE",
"174 367 OFFCURVE",
"136 355 CURVE",
"161 341 LINE",
"191 517 LINE",
"158 487 LINE",
"381 487 LINE SMOOTH",
"413 487 OFFCURVE",
"430 505 OFFCURVE",
"430 529 CURVE SMOOTH",
"430 556 OFFCURVE",
"411 571 OFFCURVE",
"381 571 CURVE",
"165 571 LINE SMOOTH",
"127 571 OFFCURVE",
"100 560 OFFCURVE",
"93 523 CURVE SMOOTH",
"55 312 LINE SMOOTH",
"49 281 OFFCURVE",
"78 264 OFFCURVE",
"98 264 CURVE SMOOTH",
"107 264 OFFCURVE",
"115 266 OFFCURVE",
"122 268 CURVE SMOOTH",
"147 275 OFFCURVE",
"170 281 OFFCURVE",
"195 281 CURVE SMOOTH",
"243 281 OFFCURVE",
"273 251 OFFCURVE",
"273 203 CURVE SMOOTH",
"273 134 OFFCURVE",
"215 83 OFFCURVE",
"138 83 CURVE SMOOTH",
"120 83 OFFCURVE",
"105 86 OFFCURVE",
"95 93 CURVE SMOOTH",
"83 101 OFFCURVE",
"74 110 OFFCURVE",
"54 110 CURVE SMOOTH",
"36 110 OFFCURVE",
"13 97 OFFCURVE",
"13 72 CURVE SMOOTH",
"13 58 OFFCURVE",
"19 45 OFFCURVE",
"33 31 CURVE SMOOTH",
"57 8 OFFCURVE",
"96 -3 OFFCURVE",
"137 -3 CURVE SMOOTH"
);
}
);
vertWidth = 0;
width = 418;
}
);
note = "";
unicode = 0035;
},
{
glyphname = six;
layers = (
{
layerId = m01;
paths = (
{
closed = 1;
nodes = (
"263 0 OFFCURVE",
"367 121 OFFCURVE",
"367 257 CURVE SMOOTH",
"367 321 OFFCURVE",
"329 354 OFFCURVE",
"270 354 CURVE SMOOTH",
"222 354 OFFCURVE",
"86 319 OFFCURVE",
"86 185 CURVE",
"91 146 LINE",
"110 286 OFFCURVE",
"232 308 OFFCURVE",
"255 308 CURVE SMOOTH",
"296 308 OFFCURVE",
"317 289 OFFCURVE",
"317 251 CURVE SMOOTH",
"317 145 OFFCURVE",
"240 46 OFFCURVE",
"158 46 CURVE SMOOTH",
"118 46 OFFCURVE",
"90 87 OFFCURVE",
"90 147 CURVE SMOOTH",
"90 377 OFFCURVE",
"250 468 OFFCURVE",
"341 524 CURVE SMOOTH",
"352 531 OFFCURVE",
"357 540 OFFCURVE",
"357 548 CURVE SMOOTH",
"356 559 OFFCURVE",
"348 568 OFFCURVE",
"335 568 CURVE SMOOTH",
"329 568 OFFCURVE",
"322 567 OFFCURVE",
"314 562 CURVE SMOOTH",
"209 502 OFFCURVE",
"41 388 OFFCURVE",
"41 125 CURVE SMOOTH",
"41 49 OFFCURVE",
"86 0 OFFCURVE",
"149 0 CURVE SMOOTH"
);
}
);
vertWidth = 0;
width = 406;
},
{
layerId = "140DECC1-64C4-40C0-9C07-503DBC3F4160";
paths = (
{
closed = 1;
nodes = (
"265 -1 OFFCURVE",
"388 143 OFFCURVE",
"388 247 CURVE SMOOTH",
"388 325 OFFCURVE",
"349 354 OFFCURVE",
"301 354 CURVE SMOOTH",
"223 354 OFFCURVE",
"120 277 OFFCURVE",
"120 206 CURVE",
"125 138 LINE",
"125 192 OFFCURVE",
"215 272 OFFCURVE",
"264 272 CURVE SMOOTH",
"282 272 OFFCURVE",
"294 261 OFFCURVE",
"294 234 CURVE SMOOTH",
"294 174 OFFCURVE",
"208 89 OFFCURVE",
"159 89 CURVE SMOOTH",
"139 89 OFFCURVE",
"125 104 OFFCURVE",
"125 138 CURVE SMOOTH",
"124 258 OFFCURVE",
"116 322 OFFCURVE",
"362 494 CURVE SMOOTH",
"379 506 OFFCURVE",
"387 521 OFFCURVE",
"387 537 CURVE SMOOTH",
"386 559 OFFCURVE",
"366 576 OFFCURVE",
"341 576 CURVE SMOOTH",
"331 576 OFFCURVE",
"320 573 OFFCURVE",
"309 568 CURVE",
"155 478 OFFCURVE",
"31 348 OFFCURVE",
"31 133 CURVE SMOOTH",
"31 50 OFFCURVE",
"79 -1 OFFCURVE",
"158 -1 CURVE SMOOTH"
);
}
);
vertWidth = 0;
width = 427;
}
);
note = "";
unicode = 0036;
},
{
glyphname = seven;
layers = (
{
layerId = m01;
paths = (
{
closed = 1;
nodes = (
"245 0 OFFCURVE",
"257 8 OFFCURVE",
"262 26 CURVE SMOOTH",
"404 544 LINE SMOOTH",
"407 556 OFFCURVE",
"400 568 OFFCURVE",
"381 568 CURVE SMOOTH",
"134 568 LINE SMOOTH",
"116 568 OFFCURVE",
"107 557 OFFCURVE",
"107 546 CURVE SMOOTH",
"107 534 OFFCURVE",
"116 522 OFFCURVE",
"134 522 CURVE SMOOTH",
"378 522 LINE",
"354 552 LINE",
"210 26 LINE SMOOTH",
"205 8 OFFCURVE",
"220 0 OFFCURVE",
"233 0 CURVE SMOOTH"
);
}
);
vertWidth = 0;
width = 388;
},
{
layerId = "140DECC1-64C4-40C0-9C07-503DBC3F4160";
paths = (
{
closed = 1;
nodes = (
"261 0 OFFCURVE",
"284 15 OFFCURVE",
"291 42 CURVE SMOOTH",
"423 524 LINE SMOOTH",
"430 551 OFFCURVE",
"419 568 OFFCURVE",
"377 568 CURVE SMOOTH",
"144 568 LINE SMOOTH",
"114 568 OFFCURVE",
"94 546 OFFCURVE",
"94 522 CURVE SMOOTH",
"94 498 OFFCURVE",
"114 478 OFFCURVE",
"144 478 CURVE SMOOTH",
"348 478 LINE",
"326 517 LINE",
"194 50 LINE SMOOTH",
"185 20 OFFCURVE",
"211 0 OFFCURVE",
"238 0 CURVE SMOOTH"
);
}
);
vertWidth = 0;
width = 411;
}
);
note = "";
unicode = 0037;
},
{
glyphname = eight;
layers = (
{
layerId = m01;
paths = (
{
closed = 1;
nodes = (
"149 45 OFFCURVE",
"111 73 OFFCURVE",
"111 137 CURVE SMOOTH",
"111 201 OFFCURVE",
"144 235 OFFCURVE",
"221 291 CURVE SMOOTH",
"298 347 OFFCURVE",
"381 402 OFFCURVE",
"381 464 CURVE SMOOTH",
"381 547 OFFCURVE",
"309 568 OFFCURVE",
"242 568 CURVE SMOOTH",
"169 568 OFFCURVE",
"91 533 OFFCURVE",
"91 448 CURVE SMOOTH",
"91 387 OFFCURVE",
"160 329 OFFCURVE",
"187 302 CURVE SMOOTH",
"202 287 LINE SMOOTH",
"238 251 OFFCURVE",
"296 194 OFFCURVE",
"296 149 CURVE SMOOTH",
"296 77 OFFCURVE",
"257 45 OFFCURVE",
"199 45 CURVE SMOOTH"
);
},
{
closed = 1;
nodes = (
"284 -1 OFFCURVE",
"346 58 OFFCURVE",
"346 149 CURVE SMOOTH",
"346 199 OFFCURVE",
"301 255 OFFCURVE",
"244 310 CURVE SMOOTH",
"214 339 LINE SMOOTH",
"190 363 OFFCURVE",
"141 406 OFFCURVE",
"141 451 CURVE SMOOTH",
"141 504 OFFCURVE",
"195 522 OFFCURVE",
"239 522 CURVE SMOOTH",
"288 522 OFFCURVE",
"331 518 OFFCURVE",
"331 465 CURVE SMOOTH",
"331 421 OFFCURVE",
"260 376 OFFCURVE",
"190 325 CURVE SMOOTH",
"93 254 OFFCURVE",
"61 209 OFFCURVE",
"61 133 CURVE SMOOTH",
"61 54 OFFCURVE",
"120 -1 OFFCURVE",
"196 -1 CURVE SMOOTH"
);
}
);
vertWidth = 0;
width = 403;
},
{
layerId = "140DECC1-64C4-40C0-9C07-503DBC3F4160";
paths = (
{
closed = 1;
nodes = (
"163 84 OFFCURVE",
"135 108 OFFCURVE",
"135 148 CURVE SMOOTH",
"135 177 OFFCURVE",
"155 219 OFFCURVE",
"248 287 CURVE SMOOTH",
"326 344 OFFCURVE",
"396 392 OFFCURVE",
"396 465 CURVE SMOOTH",
"396 532 OFFCURVE",
"310 568 OFFCURVE",
"238 568 CURVE SMOOTH",
"161 568 OFFCURVE",
"78 526 OFFCURVE",
"78 428 CURVE SMOOTH",
"78 355 OFFCURVE",
"142 311 OFFCURVE",
"164 289 CURVE SMOOTH",
"183 270 LINE SMOOTH",
"219 234 OFFCURVE",
"266 190 OFFCURVE",
"266 147 CURVE SMOOTH",
"266 113 OFFCURVE",
"237 84 OFFCURVE",
"196 84 CURVE SMOOTH"
);
},
{
closed = 1;
nodes = (
"312 -1 OFFCURVE",
"361 86 OFFCURVE",
"361 156 CURVE SMOOTH",
"361 218 OFFCURVE",
"307 275 OFFCURVE",
"256 322 CURVE SMOOTH",
"231 345 LINE SMOOTH",
"203 371 OFFCURVE",
"170 397 OFFCURVE",
"170 433 CURVE SMOOTH",
"170 470 OFFCURVE",
"207 483 OFFCURVE",
"242 483 CURVE SMOOTH",
"274 483 OFFCURVE",
"303 476 OFFCURVE",
"303 456 CURVE SMOOTH",
"303 436 OFFCURVE",
"242 391 OFFCURVE",
"185 352 CURVE SMOOTH",
"81 281 OFFCURVE",
"40 204 OFFCURVE",
"40 148 CURVE SMOOTH",
"40 87 OFFCURVE",
"86 -1 OFFCURVE",
"197 -1 CURVE SMOOTH"
);
}
);
vertWidth = 0;
width = 416;
}
);
note = "";
unicode = 0038;
},
{
glyphname = nine;
layers = (
{
layerId = m01;
paths = (
{
closed = 1;
nodes = (
"217 214 OFFCURVE",
"305 311 OFFCURVE",
"395 505 CURVE",
"359 522 LINE",
"275 349 OFFCURVE",
"203 260 OFFCURVE",
"140 260 CURVE SMOOTH",
"124 260 OFFCURVE",
"119 277 OFFCURVE",
"119 296 CURVE SMOOTH",
"119 433 OFFCURVE",
"180 522 OFFCURVE",
"278 522 CURVE SMOOTH",
"359 522 LINE",
"274 24 LINE SMOOTH",
"271 8 OFFCURVE",
"283 0 OFFCURVE",
"295 0 CURVE SMOOTH",
"308 0 OFFCURVE",
"321 8 OFFCURVE",
"324 24 CURVE SMOOTH",
"416 546 LINE SMOOTH",
"418 558 OFFCURVE",
"412 568 OFFCURVE",
"400 568 CURVE",
"278 568 LINE SMOOTH",
"149 568 OFFCURVE",
"69 462 OFFCURVE",
"69 291 CURVE SMOOTH",
"69 243 OFFCURVE",
"89 214 OFFCURVE",
"129 214 CURVE SMOOTH"
);
}
);
vertWidth = 0;
width = 420;
},
{
layerId = "140DECC1-64C4-40C0-9C07-503DBC3F4160";
paths = (
{
closed = 1;
nodes = (
"214 209 OFFCURVE",
"292 279 OFFCURVE",
"381 481 CURVE",
"328 481 LINE",
"289 403 OFFCURVE",
"204 299 OFFCURVE",
"172 299 CURVE SMOOTH",
"163 299 OFFCURVE",
"159 306 OFFCURVE",
"159 320 CURVE SMOOTH",
"159 412 OFFCURVE",
"210 478 OFFCURVE",
"279 478 CURVE SMOOTH",
"328 478 LINE",
"250 43 LINE SMOOTH",
"244 11 OFFCURVE",
"273 -4 OFFCURVE",
"295 -4 CURVE SMOOTH",
"318 -4 OFFCURVE",
"345 10 OFFCURVE",
"350 36 CURVE SMOOTH",
"437 529 LINE SMOOTH",
"442 555 OFFCURVE",
"427 568 OFFCURVE",
"394 568 CURVE SMOOTH",
"279 568 LINE SMOOTH",
"152 568 OFFCURVE",
"57 450 OFFCURVE",
"57 291 CURVE SMOOTH",
"57 237 OFFCURVE",
"82 209 OFFCURVE",
"132 209 CURVE SMOOTH"
);
}
);
vertWidth = 0;
width = 444;
}
);
note = "";
unicode = 0039;
},
{
glyphname = .notdef;
layers = (
{
layerId = m01;
paths = (
{
closed = 1;
nodes = (
"468 0 OFFCURVE",
"479 12 OFFCURVE",
"482 27 CURVE SMOOTH",
"596 673 LINE SMOOTH",
"599 689 OFFCURVE",
"592 700 OFFCURVE",
"578 700 CURVE SMOOTH",
"182 700 LINE SMOOTH",
"165 700 OFFCURVE",
"154 689 OFFCURVE",
"151 673 CURVE SMOOTH",
"37 27 LINE SMOOTH",
"34 12 OFFCURVE",
"42 0 OFFCURVE",
"61 0 CURVE SMOOTH",
"457 0 LINE SMOOTH"
);
},
{
closed = 1;
nodes = (
"199 655 LINE",
"542 655 LINE",
"435 45 LINE",
"91 45 LINE"
);
}
);
vertWidth = 0;
width = 625;
},
{
layerId = "140DECC1-64C4-40C0-9C07-503DBC3F4160";
paths = (
{
closed = 1;
nodes = (
"513 0 OFFCURVE",
"536 26 OFFCURVE",
"540 49 CURVE SMOOTH",
"647 659 LINE SMOOTH",
"652 687 OFFCURVE",
"637 700 OFFCURVE",
"600 700 CURVE",
"220 700 LINE",
"192 700 OFFCURVE",
"171 687 OFFCURVE",
"166 659 CURVE SMOOTH",
"59 49 LINE SMOOTH",
"54 21 OFFCURVE",
"68 0 OFFCURVE",
"107 0 CURVE SMOOTH",
"488 0 LINE SMOOTH"
);
},
{
closed = 1;
nodes = (
"259 605 LINE",
"536 605 LINE",
"446 95 LINE",
"169 95 LINE"
);
}
);
vertWidth = 0;
width = 697;
}
);
note = "";
},
{
glyphname = period;
layers = (
{
layerId = m01;
paths = (
{
closed = 1;
nodes = (
"103 -1 OFFCURVE",
"120 17 OFFCURVE",
"120 40 CURVE SMOOTH",
"120 62 OFFCURVE",
"103 79 OFFCURVE",
"80 79 CURVE SMOOTH",
"57 79 OFFCURVE",
"40 62 OFFCURVE",
"40 40 CURVE SMOOTH",
"40 17 OFFCURVE",
"57 -1 OFFCURVE",
"80 -1 CURVE SMOOTH"
);
}
);
vertWidth = 0;
width = 210;
},
{
layerId = "140DECC1-64C4-40C0-9C07-503DBC3F4160";
leftMetricsKey = n;
rightMetricsKey = n;
paths = (
{
closed = 1;
nodes = (
"123 0 OFFCURVE",
"153 30 OFFCURVE",
"153 65 CURVE SMOOTH",
"153 98 OFFCURVE",
"123 126 OFFCURVE",
"90 126 CURVE SMOOTH",
"55 126 OFFCURVE",
"28 98 OFFCURVE",
"28 65 CURVE SMOOTH",
"28 30 OFFCURVE",
"55 0 OFFCURVE",
"90 0 CURVE SMOOTH"
);
}
);
vertWidth = 0;
width = 219;
}
);
leftKerningGroup = period_left;
note = "";
rightKerningGroup = period_right;
unicode = 002E;
},
{
glyphname = comma;
layers = (
{
layerId = m01;
paths = (
{
closed = 1;
nodes = (
"74 -102 OFFCURVE",
"83 -93 OFFCURVE",
"86 -78 CURVE SMOOTH",
"105 21 LINE SMOOTH",
"108 39 OFFCURVE",
"95 50 OFFCURVE",
"80 50 CURVE SMOOTH",
"68 50 OFFCURVE",
"57 45 OFFCURVE",
"54 28 CURVE SMOOTH",
"36 -75 LINE SMOOTH",
"33 -92 OFFCURVE",
"43 -102 OFFCURVE",
"60 -102 CURVE SMOOTH"
);
}
);
vertWidth = 0;
width = 210;
},
{
layerId = "140DECC1-64C4-40C0-9C07-503DBC3F4160";
leftMetricsKey = n;
rightMetricsKey = n;
paths = (
{
closed = 1;
nodes = (
"89 -79 OFFCURVE",
"110 -68 OFFCURVE",
"118 -37 CURVE SMOOTH",
"144 67 LINE SMOOTH",
"156 113 OFFCURVE",
"123 129 OFFCURVE",
"96 129 CURVE SMOOTH",
"70 129 OFFCURVE",
"50 119 OFFCURVE",
"42 87 CURVE SMOOTH",
"16 -17 LINE SMOOTH",
"5 -62 OFFCURVE",
"37 -79 OFFCURVE",
"63 -79 CURVE SMOOTH"
);
}
);
vertWidth = 0;
width = 219;
}
);
leftKerningGroup = period_left;
note = "";
rightKerningGroup = period_right;
unicode = 002C;
},
{
glyphname = colon;
layers = (
{
layerId = m01;
paths = (
{
closed = 1;
nodes = (
"103 -1 OFFCURVE",
"120 17 OFFCURVE",
"120 40 CURVE SMOOTH",
"120 62 OFFCURVE",
"103 79 OFFCURVE",
"80 79 CURVE SMOOTH",
"57 79 OFFCURVE",
"40 62 OFFCURVE",
"40 40 CURVE SMOOTH",
"40 17 OFFCURVE",
"57 -1 OFFCURVE",
"80 -1 CURVE SMOOTH"
);
},
{
closed = 1;
nodes = (
"149 274 OFFCURVE",
"166 292 OFFCURVE",
"166 315 CURVE SMOOTH",
"166 337 OFFCURVE",
"149 354 OFFCURVE",
"126 354 CURVE SMOOTH",
"103 354 OFFCURVE",
"86 337 OFFCURVE",
"86 315 CURVE SMOOTH",
"86 292 OFFCURVE",
"103 274 OFFCURVE",
"126 274 CURVE SMOOTH"
);
}
);
vertWidth = 0;
width = 210;
},
{
layerId = "140DECC1-64C4-40C0-9C07-503DBC3F4160";
leftMetricsKey = n;
rightMetricsKey = n;
paths = (
{
closed = 1;
nodes = (
"123 0 OFFCURVE",
"153 30 OFFCURVE",
"153 65 CURVE SMOOTH",
"153 98 OFFCURVE",
"123 126 OFFCURVE",
"90 126 CURVE SMOOTH",
"55 126 OFFCURVE",
"28 98 OFFCURVE",
"28 65 CURVE SMOOTH",
"28 30 OFFCURVE",
"55 0 OFFCURVE",
"90 0 CURVE SMOOTH"
);
},
{
closed = 1;
nodes = (
"171 233 OFFCURVE",
"201 263 OFFCURVE",
"201 298 CURVE SMOOTH",
"201 331 OFFCURVE",
"171 359 OFFCURVE",
"138 359 CURVE SMOOTH",
"103 359 OFFCURVE",
"76 331 OFFCURVE",
"76 298 CURVE SMOOTH",
"76 263 OFFCURVE",
"103 233 OFFCURVE",
"138 233 CURVE SMOOTH"
);
}
);
vertWidth = 0;
width = 219;
}
);
leftKerningGroup = colon_left;
note = "";
rightKerningGroup = colon_right;
unicode = 003A;
},
{
glyphname = semicolon;
layers = (
{
layerId = m01;
paths = (
{
closed = 1;
nodes = (
"75 -102 OFFCURVE",
"84 -93 OFFCURVE",
"87 -78 CURVE SMOOTH",
"105 21 LINE SMOOTH",
"108 39 OFFCURVE",
"95 50 OFFCURVE",
"80 50 CURVE SMOOTH",
"68 50 OFFCURVE",
"57 45 OFFCURVE",
"54 28 CURVE SMOOTH",
"37 -75 LINE SMOOTH",
"34 -92 OFFCURVE",
"44 -102 OFFCURVE",
"61 -102 CURVE SMOOTH"
);
},
{
closed = 1;
nodes = (
"149 274 OFFCURVE",
"166 292 OFFCURVE",
"166 315 CURVE SMOOTH",
"166 337 OFFCURVE",
"149 354 OFFCURVE",
"126 354 CURVE SMOOTH",
"103 354 OFFCURVE",
"86 337 OFFCURVE",
"86 315 CURVE SMOOTH",
"86 292 OFFCURVE",
"103 274 OFFCURVE",
"126 274 CURVE SMOOTH"
);
}
);
vertWidth = 0;
width = 210;
},
{
layerId = "140DECC1-64C4-40C0-9C07-503DBC3F4160";
leftMetricsKey = n;
rightMetricsKey = n;
paths = (
{
closed = 1;
nodes = (
"89 -79 OFFCURVE",
"110 -68 OFFCURVE",
"118 -37 CURVE SMOOTH",
"144 67 LINE SMOOTH",
"156 113 OFFCURVE",
"123 129 OFFCURVE",
"96 129 CURVE SMOOTH",
"70 129 OFFCURVE",
"50 119 OFFCURVE",
"42 87 CURVE SMOOTH",
"16 -17 LINE SMOOTH",
"5 -62 OFFCURVE",
"37 -79 OFFCURVE",
"63 -79 CURVE SMOOTH"
);
},
{
closed = 1;
nodes = (
"171 233 OFFCURVE",
"201 263 OFFCURVE",
"201 298 CURVE SMOOTH",
"201 331 OFFCURVE",
"171 359 OFFCURVE",
"138 359 CURVE SMOOTH",
"103 359 OFFCURVE",
"76 331 OFFCURVE",
"76 298 CURVE SMOOTH",
"76 263 OFFCURVE",
"103 233 OFFCURVE",
"138 233 CURVE SMOOTH"
);
}
);
vertWidth = 0;
width = 219;
}
);
leftKerningGroup = colon_left;
note = "";
rightKerningGroup = colon_right;
unicode = 003B;
},
{
glyphname = ellipsis;
layers = (
{
layerId = m01;
paths = (
{
closed = 1;
nodes = (
"117 -1 OFFCURVE",
"134 17 OFFCURVE",
"134 40 CURVE SMOOTH",
"134 62 OFFCURVE",
"117 79 OFFCURVE",
"94 79 CURVE SMOOTH",
"71 79 OFFCURVE",
"54 62 OFFCURVE",
"54 40 CURVE SMOOTH",
"54 17 OFFCURVE",
"71 -1 OFFCURVE",
"94 -1 CURVE SMOOTH"
);
},
{
closed = 1;
nodes = (
"257 -1 OFFCURVE",
"274 17 OFFCURVE",
"274 40 CURVE SMOOTH",
"274 62 OFFCURVE",
"257 79 OFFCURVE",
"234 79 CURVE SMOOTH",
"211 79 OFFCURVE",
"194 62 OFFCURVE",
"194 40 CURVE SMOOTH",
"194 17 OFFCURVE",
"211 -1 OFFCURVE",
"234 -1 CURVE SMOOTH"
);
},
{
closed = 1;
nodes = (
"397 -1 OFFCURVE",
"414 17 OFFCURVE",
"414 40 CURVE SMOOTH",
"414 62 OFFCURVE",
"397 79 OFFCURVE",
"374 79 CURVE SMOOTH",
"351 79 OFFCURVE",
"334 62 OFFCURVE",
"334 40 CURVE SMOOTH",
"334 17 OFFCURVE",
"351 -1 OFFCURVE",
"374 -1 CURVE SMOOTH"
);
}
);
vertWidth = 0;
width = 490;
},
{
layerId = "140DECC1-64C4-40C0-9C07-503DBC3F4160";
leftMetricsKey = n;
rightMetricsKey = n;
paths = (
{
closed = 1;
nodes = (
"123 0 OFFCURVE",
"153 30 OFFCURVE",
"153 65 CURVE SMOOTH",
"153 98 OFFCURVE",
"123 126 OFFCURVE",
"90 126 CURVE SMOOTH",
"55 126 OFFCURVE",
"28 98 OFFCURVE",
"28 65 CURVE SMOOTH",
"28 30 OFFCURVE",
"55 0 OFFCURVE",
"90 0 CURVE SMOOTH"
);
},
{
closed = 1;
nodes = (
"313 0 OFFCURVE",
"343 30 OFFCURVE",
"343 65 CURVE SMOOTH",
"343 98 OFFCURVE",
"313 126 OFFCURVE",
"280 126 CURVE SMOOTH",
"245 126 OFFCURVE",
"218 98 OFFCURVE",
"218 65 CURVE SMOOTH",
"218 30 OFFCURVE",
"245 0 OFFCURVE",
"280 0 CURVE SMOOTH"
);
},
{
closed = 1;
nodes = (
"503 0 OFFCURVE",
"533 30 OFFCURVE",
"533 65 CURVE SMOOTH",
"533 98 OFFCURVE",
"503 126 OFFCURVE",
"470 126 CURVE SMOOTH",
"435 126 OFFCURVE",
"408 98 OFFCURVE",
"408 65 CURVE SMOOTH",
"408 30 OFFCURVE",
"435 0 OFFCURVE",
"470 0 CURVE SMOOTH"
);
}
);
vertWidth = 0;
width = 599;
}
);
note = "";
unicode = 2026;
},
{
glyphname = exclam;
layers = (
{
layerId = m01;
paths = (
{
closed = 1;
nodes = (
"111 -1 OFFCURVE",
"128 17 OFFCURVE",
"128 40 CURVE SMOOTH",
"128 62 OFFCURVE",
"111 79 OFFCURVE",
"88 79 CURVE SMOOTH",
"65 79 OFFCURVE",
"48 62 OFFCURVE",
"48 40 CURVE SMOOTH",
"48 17 OFFCURVE",
"65 -1 OFFCURVE",
"88 -1 CURVE SMOOTH"
);
},
{
closed = 1;
nodes = (
"123 174 OFFCURVE",
"138 183 OFFCURVE",
"141 202 CURVE SMOOTH",
"217 629 LINE SMOOTH",
"219 643 OFFCURVE",
"209 650 OFFCURVE",
"197 650 CURVE SMOOTH",
"184 650 OFFCURVE",
"169 643 OFFCURVE",
"166 629 CURVE SMOOTH",
"90 202 LINE SMOOTH",
"87 185 OFFCURVE",
"99 176 OFFCURVE",
"111 175 CURVE SMOOTH"
);
}
);
vertWidth = 0;
width = 232;
},
{
layerId = "140DECC1-64C4-40C0-9C07-503DBC3F4160";
paths = (
{
closed = 1;
nodes = (
"147 0 OFFCURVE",
"177 30 OFFCURVE",
"177 65 CURVE SMOOTH",
"177 98 OFFCURVE",
"147 126 OFFCURVE",
"114 126 CURVE SMOOTH",
"79 126 OFFCURVE",
"52 98 OFFCURVE",
"52 65 CURVE SMOOTH",
"52 30 OFFCURVE",
"79 0 OFFCURVE",
"114 0 CURVE SMOOTH"
);
},
{
closed = 1;
nodes = (
"159 173 OFFCURVE",
"188 191 OFFCURVE",
"193 220 CURVE SMOOTH",
"262 605 LINE SMOOTH",
"267 632 OFFCURVE",
"240 650 OFFCURVE",
"216 650 CURVE SMOOTH",
"194 650 OFFCURVE",
"165 635 OFFCURVE",
"161 611 CURVE SMOOTH",
"92 226 LINE SMOOTH",
"87 197 OFFCURVE",
"111 177 OFFCURVE",
"136 175 CURVE SMOOTH"
);
}
);
vertWidth = 0;
width = 276;
}
);
note = "";
unicode = 0021;
},
{
glyphname = exclamdown;
layers = (
{
layerId = m01;
paths = (
{
closed = 1;
nodes = (
"92 -1 OFFCURVE",
"107 6 OFFCURVE",
"110 20 CURVE SMOOTH",
"186 447 LINE SMOOTH",
"189 464 OFFCURVE",
"177 473 OFFCURVE",
"165 474 CURVE SMOOTH",
"153 475 OFFCURVE",
"138 466 OFFCURVE",
"135 447 CURVE SMOOTH",
"59 20 LINE SMOOTH",
"57 6 OFFCURVE",
"67 -1 OFFCURVE",
"79 -1 CURVE SMOOTH"
);
},
{
closed = 1;
nodes = (
"211 570 OFFCURVE",
"228 587 OFFCURVE",
"228 609 CURVE SMOOTH",
"228 632 OFFCURVE",
"211 650 OFFCURVE",
"188 650 CURVE SMOOTH",
"165 650 OFFCURVE",
"148 632 OFFCURVE",
"148 609 CURVE SMOOTH",
"148 587 OFFCURVE",
"165 570 OFFCURVE",
"188 570 CURVE SMOOTH"
);
}
);
vertWidth = 0;
width = 232;
},
{
layerId = "140DECC1-64C4-40C0-9C07-503DBC3F4160";
paths = (
{
closed = 1;
nodes = (
"127 0 OFFCURVE",
"156 15 OFFCURVE",
"160 39 CURVE SMOOTH",
"229 424 LINE SMOOTH",
"234 453 OFFCURVE",
"210 473 OFFCURVE",
"185 475 CURVE SMOOTH",
"162 477 OFFCURVE",
"133 459 OFFCURVE",
"128 430 CURVE SMOOTH",
"59 45 LINE SMOOTH",
"54 18 OFFCURVE",
"81 0 OFFCURVE",
"105 0 CURVE SMOOTH"
);
},
{
closed = 1;
nodes = (
"242 524 OFFCURVE",
"269 552 OFFCURVE",
"269 585 CURVE SMOOTH",
"269 620 OFFCURVE",
"242 650 OFFCURVE",
"207 650 CURVE SMOOTH",
"174 650 OFFCURVE",
"144 620 OFFCURVE",
"144 585 CURVE SMOOTH",
"144 552 OFFCURVE",
"174 524 OFFCURVE",
"207 524 CURVE SMOOTH"
);
}
);
vertWidth = 0;
width = 276;
}
);
note = "";
unicode = 00A1;
},
{
glyphname = question;
layers = (
{
layerId = m01;
paths = (
{
closed = 1;
nodes = (
"181 -1 OFFCURVE",
"198 17 OFFCURVE",
"198 40 CURVE SMOOTH",
"198 62 OFFCURVE",
"181 79 OFFCURVE",
"158 79 CURVE SMOOTH",
"135 79 OFFCURVE",
"118 62 OFFCURVE",
"118 40 CURVE SMOOTH",
"118 17 OFFCURVE",
"135 -1 OFFCURVE",
"158 -1 CURVE SMOOTH"
);
},
{
closed = 1;
nodes = (
"192 175 OFFCURVE",
"206 180 OFFCURVE",
"210 202 CURVE SMOOTH",
"223 273 LINE",
"362 282 OFFCURVE",
"448 371 OFFCURVE",
"448 505 CURVE SMOOTH",
"448 595 OFFCURVE",
"390 650 OFFCURVE",
"296 650 CURVE SMOOTH",
"186 650 OFFCURVE",
"124 590 OFFCURVE",
"107 495 CURVE SMOOTH",
"103 472 OFFCURVE",
"110 457 OFFCURVE",
"127 457 CURVE SMOOTH",
"142 457 OFFCURVE",
"153 468 OFFCURVE",
"156 485 CURVE SMOOTH",
"166 542 OFFCURVE",
"204 604 OFFCURVE",
"289 604 CURVE SMOOTH",
"356 604 OFFCURVE",
"398 563 OFFCURVE",
"398 497 CURVE SMOOTH",
"398 389 OFFCURVE",
"323 322 OFFCURVE",
"202 322 CURVE SMOOTH",
"191 322 OFFCURVE",
"179 314 OFFCURVE",
"177 303 CURVE SMOOTH",
"159 202 LINE SMOOTH",
"157 188 OFFCURVE",
"167 175 OFFCURVE",
"182 175 CURVE SMOOTH"
);
}
);
vertWidth = 0;
width = 464;
},
{
layerId = "140DECC1-64C4-40C0-9C07-503DBC3F4160";
paths = (
{
closed = 1;
nodes = (
"209 0 OFFCURVE",
"239 30 OFFCURVE",
"239 65 CURVE SMOOTH",
"239 98 OFFCURVE",
"209 126 OFFCURVE",
"176 126 CURVE SMOOTH",
"141 126 OFFCURVE",
"114 98 OFFCURVE",
"114 65 CURVE SMOOTH",
"114 30 OFFCURVE",
"141 0 OFFCURVE",
"176 0 CURVE SMOOTH"
);
},
{
closed = 1;
nodes = (
"226 176 OFFCURVE",
"245 193 OFFCURVE",
"251 225 CURVE SMOOTH",
"259 268 LINE",
"390 276 OFFCURVE",
"473 370 OFFCURVE",
"473 490 CURVE SMOOTH",
"473 589 OFFCURVE",
"413 650 OFFCURVE",
"317 650 CURVE SMOOTH",
"200 650 OFFCURVE",
"132 582 OFFCURVE",
"116 489 CURVE SMOOTH",
"110 453 OFFCURVE",
"125 430 OFFCURVE",
"157 430 CURVE SMOOTH",
"186 430 OFFCURVE",
"206 446 OFFCURVE",
"210 472 CURVE SMOOTH",
"218 520 OFFCURVE",
"243 561 OFFCURVE",
"305 561 CURVE SMOOTH",
"350 561 OFFCURVE",
"378 531 OFFCURVE",
"378 483 CURVE SMOOTH",
"378 403 OFFCURVE",
"315 356 OFFCURVE",
"218 356 CURVE SMOOTH",
"197 356 OFFCURVE",
"176 342 OFFCURVE",
"172 321 CURVE SMOOTH",
"156 233 LINE SMOOTH",
"149 200 OFFCURVE",
"168 176 OFFCURVE",
"200 176 CURVE SMOOTH"
);
}
);
vertWidth = 0;
width = 490;
}
);
note = "";
unicode = 003F;
},
{
glyphname = questiondown;
layers = (
{
layerId = m01;
paths = (
{
closed = 1;
nodes = (
"322 -1 OFFCURVE",
"384 59 OFFCURVE",
"401 154 CURVE SMOOTH",
"405 177 OFFCURVE",
"398 192 OFFCURVE",
"381 192 CURVE SMOOTH",
"366 192 OFFCURVE",
"355 181 OFFCURVE",
"352 164 CURVE SMOOTH",
"342 107 OFFCURVE",
"304 45 OFFCURVE",
"219 45 CURVE SMOOTH",
"152 45 OFFCURVE",
"110 86 OFFCURVE",
"110 152 CURVE SMOOTH",
"110 260 OFFCURVE",
"185 327 OFFCURVE",
"306 327 CURVE SMOOTH",
"317 327 OFFCURVE",
"329 335 OFFCURVE",
"331 346 CURVE SMOOTH",
"349 447 LINE SMOOTH",
"351 461 OFFCURVE",
"341 474 OFFCURVE",
"326 474 CURVE SMOOTH",
"316 474 OFFCURVE",
"302 469 OFFCURVE",
"298 447 CURVE SMOOTH",
"285 376 LINE",
"146 367 OFFCURVE",
"60 278 OFFCURVE",
"60 144 CURVE SMOOTH",
"60 54 OFFCURVE",
"118 -1 OFFCURVE",
"212 -1 CURVE SMOOTH"
);
},
{
closed = 1;
nodes = (
"373 570 OFFCURVE",
"390 587 OFFCURVE",
"390 609 CURVE SMOOTH",
"390 632 OFFCURVE",
"373 650 OFFCURVE",
"350 650 CURVE SMOOTH",
"327 650 OFFCURVE",
"310 632 OFFCURVE",
"310 609 CURVE SMOOTH",
"310 587 OFFCURVE",
"327 570 OFFCURVE",
"350 570 CURVE SMOOTH"
);
}
);
vertWidth = 0;
width = 474;
},
{
layerId = "140DECC1-64C4-40C0-9C07-503DBC3F4160";
paths = (
{
closed = 1;
nodes = (
"335 0 OFFCURVE",
"403 68 OFFCURVE",
"419 161 CURVE SMOOTH",
"425 197 OFFCURVE",
"410 220 OFFCURVE",
"378 220 CURVE SMOOTH",
"349 220 OFFCURVE",
"329 204 OFFCURVE",
"325 178 CURVE SMOOTH",
"317 130 OFFCURVE",
"292 89 OFFCURVE",
"230 89 CURVE SMOOTH",
"185 89 OFFCURVE",
"157 119 OFFCURVE",
"157 167 CURVE SMOOTH",
"157 247 OFFCURVE",
"220 294 OFFCURVE",
"317 294 CURVE SMOOTH",
"338 294 OFFCURVE",
"359 308 OFFCURVE",
"363 329 CURVE SMOOTH",
"379 417 LINE SMOOTH",
"386 450 OFFCURVE",
"367 474 OFFCURVE",
"335 474 CURVE SMOOTH",
"309 474 OFFCURVE",
"290 457 OFFCURVE",
"284 425 CURVE SMOOTH",
"276 382 LINE",
"145 374 OFFCURVE",
"62 280 OFFCURVE",
"62 160 CURVE SMOOTH",
"62 61 OFFCURVE",
"122 0 OFFCURVE",
"218 0 CURVE SMOOTH"
);
},
{
closed = 1;
nodes = (
"394 524 OFFCURVE",
"421 552 OFFCURVE",
"421 585 CURVE SMOOTH",
"421 620 OFFCURVE",
"394 650 OFFCURVE",
"359 650 CURVE SMOOTH",
"326 650 OFFCURVE",
"296 620 OFFCURVE",
"296 585 CURVE SMOOTH",
"296 552 OFFCURVE",
"326 524 OFFCURVE",
"359 524 CURVE SMOOTH"
);
}
);
vertWidth = 0;
width = 491;
}
);
note = "";
unicode = 00BF;
},
{
glyphname = periodcentered;
layers = (
{
layerId = m01;
paths = (
{
closed = 1;
nodes = (
"148 193 OFFCURVE",
"165 211 OFFCURVE",
"165 234 CURVE SMOOTH",
"165 256 OFFCURVE",
"148 273 OFFCURVE",
"125 273 CURVE SMOOTH",
"102 273 OFFCURVE",
"85 256 OFFCURVE",
"85 234 CURVE SMOOTH",
"85 211 OFFCURVE",
"102 193 OFFCURVE",
"125 193 CURVE SMOOTH"
);
}
);
vertWidth = 0;
width = 210;
},
{
layerId = "140DECC1-64C4-40C0-9C07-503DBC3F4160";
paths = (
{
closed = 1;
nodes = (
"154 171 OFFCURVE",
"184 201 OFFCURVE",
"184 236 CURVE SMOOTH",
"184 269 OFFCURVE",
"154 297 OFFCURVE",
"121 297 CURVE SMOOTH",
"86 297 OFFCURVE",
"59 269 OFFCURVE",
"59 236 CURVE SMOOTH",
"59 201 OFFCURVE",
"86 171 OFFCURVE",
"121 171 CURVE SMOOTH"
);
}
);
vertWidth = 0;
width = 219;
}
);
note = "";
unicode = 00B7;
},
{
glyphname = bullet;
layers = (
{
layerId = m01;
paths = (
{
closed = 1;
nodes = (
"229 278 OFFCURVE",
"266 314 OFFCURVE",
"266 355 CURVE SMOOTH",
"266 396 OFFCURVE",
"230 430 OFFCURVE",
"190 430 CURVE SMOOTH",
"148 430 OFFCURVE",
"116 395 OFFCURVE",
"116 355 CURVE SMOOTH",
"116 316 OFFCURVE",
"147 278 OFFCURVE",
"189 278 CURVE SMOOTH"
);
}
);
vertWidth = 0;
width = 330;
},
{
layerId = "140DECC1-64C4-40C0-9C07-503DBC3F4160";
paths = (
{
closed = 1;
nodes = (
"291 254 OFFCURVE",
"340 301 OFFCURVE",
"340 355 CURVE SMOOTH",
"340 409 OFFCURVE",
"292 454 OFFCURVE",
"238 454 CURVE SMOOTH",
"183 454 OFFCURVE",
"140 408 OFFCURVE",
"140 355 CURVE SMOOTH",
"140 304 OFFCURVE",
"181 254 OFFCURVE",
"237 254 CURVE SMOOTH"
);
}
);
vertWidth = 0;
width = 419;
}
);
note = "";
unicode = 2022;
},
{
glyphname = asterisk;
layers = (
{
layerId = m01;
paths = (
{
closed = 1;
nodes = (
"329 584 OFFCURVE",
"332 598 OFFCURVE",
"326 607 CURVE SMOOTH",
"321 614 OFFCURVE",
"309 617 OFFCURVE",
"294 608 CURVE SMOOTH",
"158 524 LINE SMOOTH",
"141 513 OFFCURVE",
"137 499 OFFCURVE",
"143 491 CURVE SMOOTH",
"148 483 OFFCURVE",
"160 481 OFFCURVE",
"176 490 CURVE SMOOTH",
"312 574 LINE SMOOTH"
);
},
{
closed = 1;
nodes = (
"289 482 OFFCURVE",
"302 484 OFFCURVE",
"309 492 CURVE SMOOTH",
"314 499 OFFCURVE",
"314 511 OFFCURVE",
"301 521 CURVE SMOOTH",
"193 606 LINE SMOOTH",
"181 616 OFFCURVE",
"169 614 OFFCURVE",
"163 606 CURVE SMOOTH",
"156 599 OFFCURVE",
"156 586 OFFCURVE",
"169 576 CURVE SMOOTH",
"276 492 LINE SMOOTH"
);
},
{
closed = 1;
nodes = (
"270 641 OFFCURVE",
"262 650 OFFCURVE",
"253 650 CURVE SMOOTH",
"243 650 OFFCURVE",
"231 641 OFFCURVE",
"228 623 CURVE SMOOTH",
"202 475 LINE SMOOTH",
"199 458 OFFCURVE",
"206 450 OFFCURVE",
"215 448 CURVE SMOOTH",
"225 447 OFFCURVE",
"238 456 OFFCURVE",
"241 475 CURVE SMOOTH",
"267 623 LINE SMOOTH"
);
}
);
vertWidth = 0;
width = 352;
},
{
layerId = "140DECC1-64C4-40C0-9C07-503DBC3F4160";
paths = (
{
closed = 1;
nodes = (
"386 570 OFFCURVE",
"396 594 OFFCURVE",
"381 617 CURVE SMOOTH",
"370 633 OFFCURVE",
"342 639 OFFCURVE",
"317 625 CURVE SMOOTH",
"184 543 LINE",
"162 527 OFFCURVE",
"150 504 OFFCURVE",
"163 483 CURVE SMOOTH",
"173 464 OFFCURVE",
"204 458 OFFCURVE",
"231 474 CURVE SMOOTH",
"360 554 LINE SMOOTH"
);
},
{
closed = 1;
nodes = (
"321 460 OFFCURVE",
"350 464 OFFCURVE",
"364 481 CURVE SMOOTH",
"377 499 OFFCURVE",
"375 521 OFFCURVE",
"353 538 CURVE SMOOTH",
"248 621 LINE SMOOTH",
"226 638 OFFCURVE",
"197 634 OFFCURVE",
"184 617 CURVE SMOOTH",
"169 599 OFFCURVE",
"171 576 OFFCURVE",
"195 558 CURVE SMOOTH",
"296 477 LINE"
);
},
{
closed = 1;
nodes = (
"334 648 OFFCURVE",
"314 668 OFFCURVE",
"290 668 CURVE SMOOTH",
"269 668 OFFCURVE",
"246 651 OFFCURVE",
"241 624 CURVE SMOOTH",
"216 482 LINE SMOOTH",
"211 453 OFFCURVE",
"227 436 OFFCURVE",
"248 431 CURVE SMOOTH",
"270 426 OFFCURVE",
"298 443 OFFCURVE",
"304 474 CURVE SMOOTH",
"329 616 LINE SMOOTH"
);
}
);
vertWidth = 0;
width = 430;
}
);
note = "";
unicode = 002A;
},
{
glyphname = numbersign;
layers = (
{
layerId = m01;
paths = (
{
closed = 1;
nodes = (
"213 -1 OFFCURVE",
"228 8 OFFCURVE",
"232 28 CURVE SMOOTH",
"323 543 LINE SMOOTH",
"326 559 OFFCURVE",
"315 568 OFFCURVE",
"302 568 CURVE SMOOTH",
"289 568 OFFCURVE",
"275 560 OFFCURVE",
"272 543 CURVE SMOOTH",
"181 28 LINE SMOOTH",
"178 10 OFFCURVE",
"188 0 OFFCURVE",
"200 0 CURVE SMOOTH"
);
},
{
closed = 1;
nodes = (
"471 0 OFFCURVE",
"485 9 OFFCURVE",
"488 28 CURVE SMOOTH",
"579 543 LINE SMOOTH",
"582 559 OFFCURVE",
"571 567 OFFCURVE",
"559 568 CURVE SMOOTH",
"546 568 OFFCURVE",
"531 560 OFFCURVE",
"528 543 CURVE SMOOTH",
"437 28 LINE SMOOTH",
"434 9 OFFCURVE",
"445 -1 OFFCURVE",
"458 0 CURVE SMOOTH"
);
},
{
closed = 1;
nodes = (
"632 147 LINE SMOOTH",
"649 147 OFFCURVE",
"658 159 OFFCURVE",
"658 170 CURVE SMOOTH",
"658 181 OFFCURVE",
"650 192 OFFCURVE",
"632 192 CURVE SMOOTH",
"87 192 LINE SMOOTH",
"69 192 OFFCURVE",
"61 181 OFFCURVE",
"61 170 CURVE SMOOTH",
"61 159 OFFCURVE",
"70 147 OFFCURVE",
"87 147 CURVE SMOOTH"
);
},
{
closed = 1;
nodes = (
"673 384 LINE SMOOTH",
"691 384 OFFCURVE",
"700 395 OFFCURVE",
"700 406 CURVE SMOOTH",
"700 417 OFFCURVE",
"691 429 OFFCURVE",
"673 429 CURVE SMOOTH",
"129 429 LINE SMOOTH",
"111 429 OFFCURVE",
"102 417 OFFCURVE",
"102 406 CURVE SMOOTH",
"102 395 OFFCURVE",
"111 384 OFFCURVE",
"129 384 CURVE SMOOTH"
);
}
);
vertWidth = 0;
width = 729;
},
{
layerId = "140DECC1-64C4-40C0-9C07-503DBC3F4160";
paths = (
{
closed = 1;
nodes = (
"239 0 OFFCURVE",
"268 10 OFFCURVE",
"273 39 CURVE SMOOTH",
"358 523 LINE SMOOTH",
"363 552 OFFCURVE",
"339 568 OFFCURVE",
"312 568 CURVE SMOOTH",
"287 568 OFFCURVE",
"266 557 OFFCURVE",
"261 530 CURVE SMOOTH",
"175 47 LINE SMOOTH",
"169 16 OFFCURVE",
"189 0 OFFCURVE",
"215 0 CURVE SMOOTH"
);
},
{
closed = 1;
nodes = (
"487 0 OFFCURVE",
"509 11 OFFCURVE",
"514 39 CURVE SMOOTH",
"599 523 LINE SMOOTH",
"605 555 OFFCURVE",
"581 568 OFFCURVE",
"558 568 CURVE SMOOTH",
"534 568 OFFCURVE",
"506 558 OFFCURVE",
"501 531 CURVE SMOOTH",
"416 47 LINE SMOOTH",
"410 13 OFFCURVE",
"436 0 OFFCURVE",
"463 0 CURVE SMOOTH"
);
},
{
closed = 1;
nodes = (
"624 133 LINE SMOOTH",
"653 133 OFFCURVE",
"673 153 OFFCURVE",
"673 177 CURVE SMOOTH",
"673 200 OFFCURVE",
"654 218 OFFCURVE",
"624 218 CURVE SMOOTH",
"112 218 LINE SMOOTH",
"82 218 OFFCURVE",
"62 200 OFFCURVE",
"62 177 CURVE SMOOTH",
"62 153 OFFCURVE",
"83 133 OFFCURVE",
"112 133 CURVE SMOOTH"
);
},
{
closed = 1;
nodes = (
"662 357 LINE SMOOTH",
"692 357 OFFCURVE",
"713 375 OFFCURVE",
"713 399 CURVE SMOOTH",
"713 422 OFFCURVE",
"692 442 OFFCURVE",
"662 442 CURVE SMOOTH",
"151 442 LINE SMOOTH",
"121 442 OFFCURVE",
"101 422 OFFCURVE",
"101 399 CURVE SMOOTH",
"101 375 OFFCURVE",
"121 357 OFFCURVE",
"151 357 CURVE SMOOTH"
);
}
);
vertWidth = 0;
width = 756;
}
);
note = "";
unicode = 0023;
},
{
glyphname = slash;
layers = (
{
layerId = m01;
paths = (
{
closed = 1;
nodes = (
"48 0 OFFCURVE",
"59 6 OFFCURVE",
"65 20 CURVE SMOOTH",
"322 616 LINE SMOOTH",
"331 637 OFFCURVE",
"316 650 OFFCURVE",
"301 650 CURVE SMOOTH",
"290 650 OFFCURVE",
"279 644 OFFCURVE",
"272 627 CURVE SMOOTH",
"15 31 LINE SMOOTH",
"7 12 OFFCURVE",
"21 0 OFFCURVE",
"37 0 CURVE SMOOTH"
);
}
);
vertWidth = 0;
width = 283;
},
{
layerId = "140DECC1-64C4-40C0-9C07-503DBC3F4160";
paths = (
{
closed = 1;
nodes = (
"127 0 OFFCURVE",
"149 10 OFFCURVE",
"159 32 CURVE SMOOTH",
"400 588 LINE SMOOTH",
"416 624 OFFCURVE",
"385 650 OFFCURVE",
"355 650 CURVE SMOOTH",
"335 650 OFFCURVE",
"313 639 OFFCURVE",
"302 614 CURVE SMOOTH",
"62 60 LINE SMOOTH",
"47 25 OFFCURVE",
"76 0 OFFCURVE",
"108 0 CURVE SMOOTH"
);
}
);
vertWidth = 0;
width = 417;
}
);
note = "";
unicode = 002F;
},
{
glyphname = backslash;
layers = (
{
layerId = m01;
paths = (
{
closed = 1;
nodes = (
"230 0 OFFCURVE",
"239 13 OFFCURVE",
"236 31 CURVE SMOOTH",
"122 627 LINE SMOOTH",
"119 644 OFFCURVE",
"104 650 OFFCURVE",
"93 650 CURVE SMOOTH",
"78 650 OFFCURVE",
"68 637 OFFCURVE",
"72 616 CURVE SMOOTH",
"186 20 LINE SMOOTH",
"189 5 OFFCURVE",
"204 0 OFFCURVE",
"215 0 CURVE SMOOTH"
);
}
);
vertWidth = 0;
width = 283;
},
{
layerId = "140DECC1-64C4-40C0-9C07-503DBC3F4160";
paths = (
{
closed = 1;
nodes = (
"370 13 OFFCURVE",
"381 41 OFFCURVE",
"370 69 CURVE SMOOTH",
"164 614 LINE SMOOTH",
"151 648 OFFCURVE",
"118 655 OFFCURVE",
"93 646 CURVE SMOOTH",
"71 638 OFFCURVE",
"59 608 OFFCURVE",
"72 574 CURVE SMOOTH",
"277 32 LINE SMOOTH",
"289 1 OFFCURVE",
"324 -6 OFFCURVE",
"349 4 CURVE SMOOTH"
);
}
);
vertWidth = 0;
width = 417;
}
);
note = "";
unicode = 005C;
},
{
glyphname = hyphen;
layers = (
{
layerId = m01;
paths = (
{
closed = 1;
nodes = (
"248 177 LINE SMOOTH",
"267 177 OFFCURVE",
"279 185 OFFCURVE",
"279 200 CURVE SMOOTH",
"279 215 OFFCURVE",
"268 223 OFFCURVE",
"250 223 CURVE SMOOTH",
"102 223 LINE SMOOTH",
"83 223 OFFCURVE",
"71 215 OFFCURVE",
"71 200 CURVE SMOOTH",
"71 185 OFFCURVE",
"82 177 OFFCURVE",
"100 177 CURVE SMOOTH"
);
}
);
vertWidth = 0;
width = 338;
},
{
layerId = "140DECC1-64C4-40C0-9C07-503DBC3F4160";
paths = (
{
closed = 1;
nodes = (
"265 154 LINE SMOOTH",
"301 154 OFFCURVE",
"323 172 OFFCURVE",
"323 200 CURVE SMOOTH",
"323 227 OFFCURVE",
"304 244 OFFCURVE",
"274 244 CURVE SMOOTH",
"129 244 LINE SMOOTH",
"93 244 OFFCURVE",
"71 226 OFFCURVE",
"71 198 CURVE SMOOTH",
"71 171 OFFCURVE",
"90 154 OFFCURVE",
"120 154 CURVE SMOOTH"
);
}
);
vertWidth = 0;
width = 382;
}
);
leftKerningGroup = hyphen_left;
note = "";
rightKerningGroup = hyphen_right;
unicode = 002D;
},
{
glyphname = endash;
layers = (
{
layerId = m01;
paths = (
{
closed = 1;
nodes = (
"298 177 LINE SMOOTH",
"317 177 OFFCURVE",
"329 185 OFFCURVE",
"329 200 CURVE SMOOTH",
"329 215 OFFCURVE",
"318 223 OFFCURVE",
"300 223 CURVE SMOOTH",
"102 223 LINE SMOOTH",
"83 223 OFFCURVE",
"71 215 OFFCURVE",
"71 200 CURVE SMOOTH",
"71 185 OFFCURVE",
"82 177 OFFCURVE",
"100 177 CURVE SMOOTH"
);
}
);
vertWidth = 0;
width = 388;
},
{
layerId = "140DECC1-64C4-40C0-9C07-503DBC3F4160";
paths = (
{
closed = 1;
nodes = (
"346 154 LINE SMOOTH",
"382 154 OFFCURVE",
"404 172 OFFCURVE",
"404 200 CURVE SMOOTH",
"404 227 OFFCURVE",
"385 244 OFFCURVE",
"355 244 CURVE SMOOTH",
"129 244 LINE SMOOTH",
"93 244 OFFCURVE",
"71 226 OFFCURVE",
"71 198 CURVE SMOOTH",
"71 171 OFFCURVE",
"90 154 OFFCURVE",
"120 154 CURVE SMOOTH"
);
}
);
vertWidth = 0;
width = 463;
}
);
leftKerningGroup = hyphen_left;
note = "";
rightKerningGroup = hyphen_right;
unicode = 2013;
},
{
glyphname = emdash;
layers = (
{
layerId = m01;
paths = (
{
closed = 1;
nodes = (
"448 177 LINE SMOOTH",
"467 177 OFFCURVE",
"479 185 OFFCURVE",
"479 200 CURVE SMOOTH",
"479 215 OFFCURVE",
"468 223 OFFCURVE",
"450 223 CURVE SMOOTH",
"102 223 LINE SMOOTH",
"83 223 OFFCURVE",
"71 215 OFFCURVE",
"71 200 CURVE SMOOTH",
"71 185 OFFCURVE",
"82 177 OFFCURVE",
"100 177 CURVE SMOOTH"
);
}
);
vertWidth = 0;
width = 538;
},
{
layerId = "140DECC1-64C4-40C0-9C07-503DBC3F4160";
paths = (
{
closed = 1;
nodes = (
"438 154 LINE SMOOTH",
"474 154 OFFCURVE",
"496 172 OFFCURVE",
"496 200 CURVE SMOOTH",
"496 227 OFFCURVE",
"477 244 OFFCURVE",
"447 244 CURVE SMOOTH",
"129 244 LINE SMOOTH",
"93 244 OFFCURVE",
"71 226 OFFCURVE",
"71 198 CURVE SMOOTH",
"71 171 OFFCURVE",
"90 154 OFFCURVE",
"120 154 CURVE SMOOTH"
);
}
);
vertWidth = 0;
width = 555;
}
);
leftKerningGroup = hyphen_left;
note = "";
rightKerningGroup = hyphen_right;
unicode = 2014;
},
{
glyphname = underscore;
layers = (
{
layerId = m01;
paths = (
{
closed = 1;
nodes = (
"301 -80 LINE SMOOTH",
"320 -80 OFFCURVE",
"332 -72 OFFCURVE",
"332 -57 CURVE SMOOTH",
"332 -42 OFFCURVE",
"321 -34 OFFCURVE",
"303 -34 CURVE SMOOTH",
"55 -34 LINE SMOOTH",
"36 -34 OFFCURVE",
"24 -42 OFFCURVE",
"24 -57 CURVE SMOOTH",
"24 -72 OFFCURVE",
"35 -80 OFFCURVE",
"53 -80 CURVE SMOOTH"
);
}
);
vertWidth = 0;
width = 438;
},
{
layerId = "140DECC1-64C4-40C0-9C07-503DBC3F4160";
paths = (
{
closed = 1;
nodes = (
"310 -98 LINE SMOOTH",
"346 -98 OFFCURVE",
"368 -80 OFFCURVE",
"368 -52 CURVE SMOOTH",
"368 -25 OFFCURVE",
"349 -8 OFFCURVE",
"319 -8 CURVE SMOOTH",
"93 -8 LINE SMOOTH",
"57 -8 OFFCURVE",
"35 -26 OFFCURVE",
"35 -54 CURVE SMOOTH",
"35 -81 OFFCURVE",
"54 -98 OFFCURVE",
"84 -98 CURVE SMOOTH"
);
}
);
vertWidth = 0;
width = 464;
}
);
leftKerningGroup = hyphen_left;
note = "";
rightKerningGroup = hyphen_right;
unicode = 005F;
},
{
glyphname = parenleft;
layers = (
{
layerId = m01;
paths = (
{
closed = 1;
nodes = (
"222 -292 OFFCURVE",
"223 -278 OFFCURVE",
"215 -261 CURVE SMOOTH",
"143 -110 OFFCURVE",
"110 73 OFFCURVE",
"136 219 CURVE SMOOTH",
"158 342 OFFCURVE",
"249 490 OFFCURVE",
"366 607 CURVE SMOOTH",
"384 625 OFFCURVE",
"386 639 OFFCURVE",
"379 646 CURVE SMOOTH",
"371 654 OFFCURVE",
"353 651 OFFCURVE",
"333 633 CURVE SMOOTH",
"203 509 OFFCURVE",
"109 351 OFFCURVE",
"85 219 CURVE SMOOTH",
"60 78 OFFCURVE",
"96 -114 OFFCURVE",
"179 -283 CURVE SMOOTH",
"187 -299 OFFCURVE",
"203 -303 OFFCURVE",
"214 -297 CURVE SMOOTH"
);
}
);
vertWidth = 0;
width = 365;
},
{
layerId = "140DECC1-64C4-40C0-9C07-503DBC3F4160";
paths = (
{
closed = 1;
nodes = (
"277 -283 OFFCURVE",
"282 -264 OFFCURVE",
"270 -235 CURVE",
"189 -66 OFFCURVE",
"177 80 OFFCURVE",
"201 213 CURVE SMOOTH",
"222 333 OFFCURVE",
"292 456 OFFCURVE",
"410 574 CURVE SMOOTH",
"441 605 OFFCURVE",
"436 628 OFFCURVE",
"422 643 CURVE SMOOTH",
"407 658 OFFCURVE",
"374 659 OFFCURVE",
"343 631 CURVE SMOOTH",
"211 505 OFFCURVE",
"116 330 OFFCURVE",
"97 221 CURVE SMOOTH",
"76 96 OFFCURVE",
"101 -95 OFFCURVE",
"190 -275 CURVE SMOOTH",
"205 -303 OFFCURVE",
"241 -310 OFFCURVE",
"262 -295 CURVE SMOOTH"
);
}
);
vertWidth = 0;
width = 452;
}
);
note = "";
unicode = 0028;
},
{
glyphname = parenright;
layers = (
{
layerId = m01;
paths = (
{
closed = 1;
nodes = (
"-15 -284 OFFCURVE",
"2 -285 OFFCURVE",
"15 -273 CURVE SMOOTH",
"149 -144 OFFCURVE",
"249 24 OFFCURVE",
"275 167 CURVE SMOOTH",
"298 298 OFFCURVE",
"263 479 OFFCURVE",
"183 640 CURVE SMOOTH",
"170 664 OFFCURVE",
"155 673 OFFCURVE",
"144 668 CURVE SMOOTH",
"135 664 OFFCURVE",
"132 650 OFFCURVE",
"143 627 CURVE SMOOTH",
"213 476 OFFCURVE",
"248 308 OFFCURVE",
"227 186 CURVE SMOOTH",
"201 39 OFFCURVE",
"107 -124 OFFCURVE",
"-12 -240 CURVE SMOOTH",
"-25 -253 OFFCURVE",
"-29 -267 OFFCURVE",
"-23 -274 CURVE SMOOTH"
);
}
);
vertWidth = 0;
width = 365;
},
{
layerId = "140DECC1-64C4-40C0-9C07-503DBC3F4160";
paths = (
{
closed = 1;
nodes = (
"15 -289 OFFCURVE",
"52 -291 OFFCURVE",
"73 -270 CURVE SMOOTH",
"219 -132 OFFCURVE",
"308 41 OFFCURVE",
"331 164 CURVE SMOOTH",
"349 274 OFFCURVE",
"321 469 OFFCURVE",
"241 631 CURVE SMOOTH",
"220 669 OFFCURVE",
"191 679 OFFCURVE",
"169 669 CURVE SMOOTH",
"151 660 OFFCURVE",
"139 640 OFFCURVE",
"156 601 CURVE SMOOTH",
"227 448 OFFCURVE",
"251 309 OFFCURVE",
"230 190 CURVE SMOOTH",
"207 56 OFFCURVE",
"146 -76 OFFCURVE",
"14 -207 CURVE SMOOTH",
"-6 -225 OFFCURVE",
"-16 -249 OFFCURVE",
"-1 -267 CURVE SMOOTH"
);
}
);
vertWidth = 0;
width = 452;
}
);
note = "";
unicode = 0029;
},
{
glyphname = braceleft;
layers = (
{
layerId = m01;
paths = (
{
closed = 1;
nodes = (
"240 -306 OFFCURVE",
"258 -308 OFFCURVE",
"268 -298 CURVE SMOOTH",
"279 -289 OFFCURVE",
"273 -268 OFFCURVE",
"258 -258 CURVE SMOOTH",
"218 -231 OFFCURVE",
"183 -212 OFFCURVE",
"175 -158 CURVE SMOOTH",
"166 -95 OFFCURVE",
"221 9 OFFCURVE",
"224 63 CURVE SMOOTH",
"227 107 OFFCURVE",
"214 144 OFFCURVE",
"172 197 CURVE",
"226 236 OFFCURVE",
"245 267 OFFCURVE",
"252 311 CURVE SMOOTH",
"259 364 OFFCURVE",
"222 479 OFFCURVE",
"251 534 CURVE SMOOTH",
"270 570 OFFCURVE",
"322 583 OFFCURVE",
"367 595 CURVE SMOOTH",
"383 599 OFFCURVE",
"398 615 OFFCURVE",
"394 629 CURVE SMOOTH",
"391 644 OFFCURVE",
"365 652 OFFCURVE",
"343 645 CURVE SMOOTH",
"304 634 OFFCURVE",
"229 600 OFFCURVE",
"205 550 CURVE SMOOTH",
"176 492 OFFCURVE",
"208 366 OFFCURVE",
"199 317 CURVE SMOOTH",
"194 288 OFFCURVE",
"175 264 OFFCURVE",
"143 240 CURVE SMOOTH",
"126 228 OFFCURVE",
"112 221 OFFCURVE",
"111 205 CURVE SMOOTH",
"111 188 OFFCURVE",
"124 178 OFFCURVE",
"136 162 CURVE SMOOTH",
"161 129 OFFCURVE",
"173 100 OFFCURVE",
"171 71 CURVE SMOOTH",
"167 14 OFFCURVE",
"114 -94 OFFCURVE",
"124 -160 CURVE SMOOTH",
"133 -217 OFFCURVE",
"188 -267 OFFCURVE",
"224 -294 CURVE SMOOTH"
);
}
);
vertWidth = 0;
width = 379;
},
{
layerId = "140DECC1-64C4-40C0-9C07-503DBC3F4160";
paths = (
{
closed = 1;
nodes = (
"210 -311 OFFCURVE",
"241 -308 OFFCURVE",
"255 -289 CURVE SMOOTH",
"272 -268 OFFCURVE",
"260 -251 OFFCURVE",
"245 -235 CURVE SMOOTH",
"222 -210 OFFCURVE",
"206 -187 OFFCURVE",
"204 -139 CURVE SMOOTH",
"203 -83 OFFCURVE",
"249 12 OFFCURVE",
"254 66 CURVE SMOOTH",
"259 108 OFFCURVE",
"255 144 OFFCURVE",
"234 193 CURVE",
"269 230 OFFCURVE",
"281 262 OFFCURVE",
"289 302 CURVE SMOOTH",
"298 357 OFFCURVE",
"284 459 OFFCURVE",
"302 511 CURVE SMOOTH",
"318 552 OFFCURVE",
"352 566 OFFCURVE",
"381 576 CURVE SMOOTH",
"404 584 OFFCURVE",
"415 605 OFFCURVE",
"406 628 CURVE SMOOTH",
"395 656 OFFCURVE",
"363 652 OFFCURVE",
"340 642 CURVE SMOOTH",
"311 629 OFFCURVE",
"232 599 OFFCURVE",
"211 540 CURVE SMOOTH",
"189 475 OFFCURVE",
"200 368 OFFCURVE",
"191 316 CURVE SMOOTH",
"187 291 OFFCURVE",
"175 273 OFFCURVE",
"156 254 CURVE SMOOTH",
"140 239 OFFCURVE",
"131 230 OFFCURVE",
"128 209 CURVE SMOOTH",
"124 179 OFFCURVE",
"133 170 OFFCURVE",
"142 153 CURVE SMOOTH",
"155 126 OFFCURVE",
"159 103 OFFCURVE",
"156 79 CURVE SMOOTH",
"149 26 OFFCURVE",
"104 -75 OFFCURVE",
"107 -143 CURVE SMOOTH",
"110 -203 OFFCURVE",
"160 -256 OFFCURVE",
"187 -285 CURVE SMOOTH"
);
}
);
vertWidth = 0;
width = 422;
}
);
note = "";
unicode = 007B;
},
{
glyphname = braceright;
layers = (
{
layerId = m01;
paths = (
{
closed = 1;
nodes = (
"87 -288 OFFCURVE",
"162 -255 OFFCURVE",
"187 -205 CURVE SMOOTH",
"216 -147 OFFCURVE",
"184 10 OFFCURVE",
"193 59 CURVE SMOOTH",
"199 88 OFFCURVE",
"217 112 OFFCURVE",
"249 136 CURVE SMOOTH",
"266 148 OFFCURVE",
"281 155 OFFCURVE",
"281 171 CURVE SMOOTH",
"282 188 OFFCURVE",
"269 198 OFFCURVE",
"256 214 CURVE SMOOTH",
"231 247 OFFCURVE",
"220 276 OFFCURVE",
"221 305 CURVE SMOOTH",
"226 362 OFFCURVE",
"277 439 OFFCURVE",
"267 505 CURVE SMOOTH",
"258 562 OFFCURVE",
"204 612 OFFCURVE",
"167 639 CURVE SMOOTH",
"151 651 OFFCURVE",
"133 653 OFFCURVE",
"123 643 CURVE SMOOTH",
"113 634 OFFCURVE",
"119 613 OFFCURVE",
"133 603 CURVE SMOOTH",
"173 576 OFFCURVE",
"209 557 OFFCURVE",
"216 503 CURVE SMOOTH",
"225 440 OFFCURVE",
"172 367 OFFCURVE",
"168 313 CURVE SMOOTH",
"165 269 OFFCURVE",
"180 232 OFFCURVE",
"221 179 CURVE",
"168 140 OFFCURVE",
"148 109 OFFCURVE",
"141 65 CURVE SMOOTH",
"133 13 OFFCURVE",
"169 -134 OFFCURVE",
"140 -188 CURVE SMOOTH",
"121 -224 OFFCURVE",
"69 -239 OFFCURVE",
"25 -250 CURVE SMOOTH",
"8 -255 OFFCURVE",
"-6 -270 OFFCURVE",
"-3 -284 CURVE SMOOTH",
"0 -299 OFFCURVE",
"26 -307 OFFCURVE",
"48 -300 CURVE SMOOTH"
);
}
);
vertWidth = 0;
width = 379;
},
{
layerId = "140DECC1-64C4-40C0-9C07-503DBC3F4160";
paths = (
{
closed = 1;
nodes = (
"99 -283 OFFCURVE",
"178 -253 OFFCURVE",
"199 -194 CURVE SMOOTH",
"221 -129 OFFCURVE",
"210 -22 OFFCURVE",
"219 30 CURVE SMOOTH",
"223 55 OFFCURVE",
"235 73 OFFCURVE",
"254 92 CURVE SMOOTH",
"270 107 OFFCURVE",
"279 116 OFFCURVE",
"282 137 CURVE SMOOTH",
"286 167 OFFCURVE",
"277 176 OFFCURVE",
"268 193 CURVE SMOOTH",
"255 220 OFFCURVE",
"251 243 OFFCURVE",
"254 267 CURVE SMOOTH",
"261 320 OFFCURVE",
"306 421 OFFCURVE",
"303 489 CURVE SMOOTH",
"300 549 OFFCURVE",
"250 602 OFFCURVE",
"223 631 CURVE SMOOTH",
"200 657 OFFCURVE",
"169 654 OFFCURVE",
"155 635 CURVE SMOOTH",
"138 614 OFFCURVE",
"150 597 OFFCURVE",
"165 581 CURVE SMOOTH",
"188 556 OFFCURVE",
"204 533 OFFCURVE",
"206 485 CURVE SMOOTH",
"207 429 OFFCURVE",
"161 334 OFFCURVE",
"156 280 CURVE SMOOTH",
"151 238 OFFCURVE",
"155 202 OFFCURVE",
"176 153 CURVE",
"141 116 OFFCURVE",
"129 84 OFFCURVE",
"121 44 CURVE SMOOTH",
"112 -11 OFFCURVE",
"126 -113 OFFCURVE",
"108 -165 CURVE SMOOTH",
"92 -206 OFFCURVE",
"58 -220 OFFCURVE",
"29 -230 CURVE SMOOTH",
"6 -238 OFFCURVE",
"-5 -259 OFFCURVE",
"4 -282 CURVE SMOOTH",
"15 -310 OFFCURVE",
"47 -306 OFFCURVE",
"70 -296 CURVE SMOOTH"
);
}
);
vertWidth = 0;
width = 422;
}
);
note = "";
unicode = 007D;
},
{
glyphname = bracketleft;
layers = (
{
layerId = m01;
paths = (
{
closed = 1;
nodes = (
"149 -300 LINE SMOOTH",
"166 -300 OFFCURVE",
"175 -288 OFFCURVE",
"175 -277 CURVE SMOOTH",
"175 -266 OFFCURVE",
"167 -255 OFFCURVE",
"149 -255 CURVE SMOOTH",
"36 -255 LINE",
"188 605 LINE",
"308 605 LINE SMOOTH",
"325 605 OFFCURVE",
"334 616 OFFCURVE",
"335 627 CURVE SMOOTH",
"336 638 OFFCURVE",
"327 650 OFFCURVE",
"308 650 CURVE SMOOTH",
"170 650 LINE SMOOTH",
"151 650 OFFCURVE",
"143 639 OFFCURVE",
"140 623 CURVE SMOOTH",
"-18 -273 LINE SMOOTH",
"-21 -287 OFFCURVE",
"-14 -300 OFFCURVE",
"4 -300 CURVE SMOOTH"
);
}
);
vertWidth = 0;
width = 325;
},
{
layerId = "140DECC1-64C4-40C0-9C07-503DBC3F4160";
paths = (
{
closed = 1;
nodes = (
"191 -300 LINE SMOOTH",
"221 -300 OFFCURVE",
"238 -284 OFFCURVE",
"243 -258 CURVE SMOOTH",
"248 -230 OFFCURVE",
"222 -215 OFFCURVE",
"191 -215 CURVE SMOOTH",
"114 -215 LINE",
"252 565 LINE",
"344 565 LINE SMOOTH",
"372 565 OFFCURVE",
"391 582 OFFCURVE",
"395 605 CURVE SMOOTH",
"400 633 OFFCURVE",
"373 650 OFFCURVE",
"344 650 CURVE SMOOTH",
"213 650 LINE",
"183 650 OFFCURVE",
"163 637 OFFCURVE",
"158 609 CURVE SMOOTH",
"6 -251 LINE SMOOTH",
"1 -279 OFFCURVE",
"21 -300 OFFCURVE",
"55 -300 CURVE SMOOTH"
);
}
);
vertWidth = 0;
width = 422;
}
);
note = "";
unicode = 005B;
},
{
glyphname = bracketright;
layers = (
{
layerId = m01;
paths = (
{
closed = 1;
nodes = (
"144 -300 LINE",
"166 -300 OFFCURVE",
"173 -289 OFFCURVE",
"176 -273 CURVE SMOOTH",
"334 623 LINE SMOOTH",
"337 638 OFFCURVE",
"329 650 OFFCURVE",
"309 650 CURVE SMOOTH",
"168 650 LINE SMOOTH",
"150 650 OFFCURVE",
"141 638 OFFCURVE",
"141 627 CURVE SMOOTH",
"141 616 OFFCURVE",
"150 605 OFFCURVE",
"168 605 CURVE SMOOTH",
"280 605 LINE",
"128 -255 LINE",
"9 -255 LINE SMOOTH",
"-8 -255 OFFCURVE",
"-18 -266 OFFCURVE",
"-18 -277 CURVE SMOOTH",
"-18 -289 OFFCURVE",
"-10 -300 OFFCURVE",
"9 -300 CURVE SMOOTH"
);
}
);
vertWidth = 0;
width = 324;
},
{
layerId = "140DECC1-64C4-40C0-9C07-503DBC3F4160";
paths = (
{
closed = 1;
nodes = (
"186 -300 LINE",
"217 -300 OFFCURVE",
"236 -287 OFFCURVE",
"241 -259 CURVE SMOOTH",
"393 601 LINE SMOOTH",
"398 629 OFFCURVE",
"378 650 OFFCURVE",
"344 650 CURVE SMOOTH",
"209 650 LINE SMOOTH",
"178 650 OFFCURVE",
"162 634 OFFCURVE",
"157 607 CURVE SMOOTH",
"153 583 OFFCURVE",
"178 565 OFFCURVE",
"209 565 CURVE SMOOTH",
"285 565 LINE",
"147 -215 LINE",
"56 -215 LINE SMOOTH",
"30 -215 OFFCURVE",
"9 -233 OFFCURVE",
"5 -257 CURVE SMOOTH",
"1 -281 OFFCURVE",
"22 -300 OFFCURVE",
"56 -300 CURVE SMOOTH"
);
}
);
vertWidth = 0;
width = 422;
}
);
note = "";
unicode = 005D;
},
{
glyphname = quotedbl;
layers = (
{
layerId = m01;
paths = (
{
closed = 1;
nodes = (
"157 500 OFFCURVE",
"171 508 OFFCURVE",
"174 524 CURVE SMOOTH",
"191 620 LINE SMOOTH",
"195 640 OFFCURVE",
"182 650 OFFCURVE",
"169 650 CURVE SMOOTH",
"157 650 OFFCURVE",
"143 641 OFFCURVE",
"140 624 CURVE SMOOTH",
"123 528 LINE SMOOTH",
"120 510 OFFCURVE",
"132 500 OFFCURVE",
"145 500 CURVE SMOOTH"
);
},
{
closed = 1;
nodes = (
"266 500 OFFCURVE",
"280 507 OFFCURVE",
"282 521 CURVE SMOOTH",
"299 620 LINE SMOOTH",
"302 640 OFFCURVE",
"290 650 OFFCURVE",
"276 650 CURVE SMOOTH",
"264 650 OFFCURVE",
"252 642 OFFCURVE",
"249 628 CURVE SMOOTH",
"231 528 LINE SMOOTH",
"228 509 OFFCURVE",
"240 500 OFFCURVE",
"254 500 CURVE SMOOTH"
);
}
);
vertWidth = 0;
width = 290;
},
{
layerId = "140DECC1-64C4-40C0-9C07-503DBC3F4160";
paths = (
{
closed = 1;
nodes = (
"190 456 OFFCURVE",
"215 471 OFFCURVE",
"220 498 CURVE SMOOTH",
"237 594 LINE SMOOTH",
"243 628 OFFCURVE",
"219 650 OFFCURVE",
"191 650 CURVE SMOOTH",
"168 650 OFFCURVE",
"142 634 OFFCURVE",
"137 606 CURVE SMOOTH",
"120 510 LINE SMOOTH",
"114 477 OFFCURVE",
"139 456 OFFCURVE",
"167 456 CURVE SMOOTH"
);
},
{
closed = 1;
nodes = (
"348 456 OFFCURVE",
"375 470 OFFCURVE",
"379 496 CURVE SMOOTH",
"396 595 LINE SMOOTH",
"402 629 OFFCURVE",
"376 650 OFFCURVE",
"348 650 CURVE SMOOTH",
"325 650 OFFCURVE",
"301 635 OFFCURVE",
"296 610 CURVE SMOOTH",
"278 510 LINE SMOOTH",
"271 472 OFFCURVE",
"302 456 OFFCURVE",
"326 456 CURVE SMOOTH"
);
}
);
vertWidth = 0;
width = 392;
}
);
leftKerningGroup = quote_left;
note = "";
rightKerningGroup = quote_right;
unicode = 0022;
},
{
glyphname = quotesingle;
layers = (
{
layerId = m01;
paths = (
{
closed = 1;
nodes = (
"158 500 OFFCURVE",
"172 507 OFFCURVE",
"174 521 CURVE SMOOTH",
"191 620 LINE SMOOTH",
"194 640 OFFCURVE",
"182 650 OFFCURVE",
"168 650 CURVE SMOOTH",
"156 650 OFFCURVE",
"144 642 OFFCURVE",
"141 628 CURVE SMOOTH",
"123 528 LINE SMOOTH",
"120 509 OFFCURVE",
"132 500 OFFCURVE",
"146 500 CURVE SMOOTH"
);
}
);
vertWidth = 0;
width = 182;
},
{
layerId = "140DECC1-64C4-40C0-9C07-503DBC3F4160";
paths = (
{
closed = 1;
nodes = (
"190 456 OFFCURVE",
"217 470 OFFCURVE",
"221 496 CURVE SMOOTH",
"238 595 LINE SMOOTH",
"243 629 OFFCURVE",
"218 650 OFFCURVE",
"190 650 CURVE SMOOTH",
"167 650 OFFCURVE",
"144 635 OFFCURVE",
"138 610 CURVE SMOOTH",
"120 510 LINE SMOOTH",
"114 472 OFFCURVE",
"144 456 OFFCURVE",
"168 456 CURVE SMOOTH"
);
}
);
vertWidth = 0;
width = 234;
}
);
leftKerningGroup = quote_left;
note = "";
rightKerningGroup = quote_right;
unicode = 0027;
},
{
glyphname = at;
layers = (
{
layerId = m01;
paths = (
{
closed = 1;
nodes = (
"363 52 OFFCURVE",
"410 126 OFFCURVE",
"437 234 CURVE SMOOTH",
"463 338 OFFCURVE",
"450 406 OFFCURVE",
"383 406 CURVE SMOOTH",
"303 406 OFFCURVE",
"236 332 OFFCURVE",
"209 224 CURVE SMOOTH",
"183 120 OFFCURVE",
"216 52 OFFCURVE",
"283 52 CURVE SMOOTH"
);
},
{
closed = 1;
nodes = (
"254 97 OFFCURVE",
"240 137 OFFCURVE",
"259 215 CURVE SMOOTH",
"280 300 OFFCURVE",
"324 361 OFFCURVE",
"372 361 CURVE SMOOTH",
"412 361 OFFCURVE",
"426 321 OFFCURVE",
"407 243 CURVE SMOOTH",
"386 158 OFFCURVE",
"342 97 OFFCURVE",
"294 97 CURVE SMOOTH"
);
},
{
closed = 1;
nodes = (
"320 -80 OFFCURVE",
"369 -68 OFFCURVE",
"399 -60 CURVE SMOOTH",
"419 -55 OFFCURVE",
"423 -41 OFFCURVE",
"420 -29 CURVE SMOOTH",
"415 -13 OFFCURVE",
"396 -12 OFFCURVE",
"384 -16 CURVE SMOOTH",
"354 -25 OFFCURVE",
"311 -35 OFFCURVE",
"276 -35 CURVE SMOOTH",
"155 -35 OFFCURVE",
"86 77 OFFCURVE",
"120 214 CURVE SMOOTH",
"162 382 OFFCURVE",
"272 481 OFFCURVE",
"402 481 CURVE SMOOTH",
"524 481 OFFCURVE",
"593 385 OFFCURVE",
"561 250 CURVE SMOOTH",
"542 172 OFFCURVE",
"488 97 OFFCURVE",
"448 97 CURVE SMOOTH",
"432 97 OFFCURVE",
"430 131 OFFCURVE",
"444 185 CURVE SMOOTH",
"492 374 LINE SMOOTH",
"496 390 OFFCURVE",
"492 402 OFFCURVE",
"475 402 CURVE SMOOTH",
"456 402 OFFCURVE",
"446 395 OFFCURVE",
"441 377 CURVE SMOOTH",
"395 196 LINE SMOOTH",
"372 107 OFFCURVE",
"392 52 OFFCURVE",
"443 52 CURVE SMOOTH",
"506 52 OFFCURVE",
"585 146 OFFCURVE",
"611 251 CURVE SMOOTH",
"650 409 OFFCURVE",
"561 526 OFFCURVE",
"404 526 CURVE SMOOTH",
"247 526 OFFCURVE",
"117 410 OFFCURVE",
"70 223 CURVE SMOOTH",
"27 49 OFFCURVE",
"119 -80 OFFCURVE",
"279 -80 CURVE SMOOTH"
);
}
);
vertWidth = 0;
width = 668;
},
{
layerId = "140DECC1-64C4-40C0-9C07-503DBC3F4160";
leftMetricsKey = o;
rightMetricsKey = o;
paths = (
{
closed = 1;
nodes = (
"365 49 OFFCURVE",
"396 124 OFFCURVE",
"424 229 CURVE SMOOTH",
"453 337 OFFCURVE",
"457 408 OFFCURVE",
"388 408 CURVE SMOOTH",
"311 408 OFFCURVE",
"239 341 OFFCURVE",
"212 233 CURVE SMOOTH",
"184 119 OFFCURVE",
"219 49 OFFCURVE",
"299 49 CURVE SMOOTH"
);
},
{
closed = 1;
nodes = (
"299 139 OFFCURVE",
"293 167 OFFCURVE",
"305 213 CURVE SMOOTH",
"321 278 OFFCURVE",
"352 318 OFFCURVE",
"386 318 CURVE SMOOTH",
"406 318 OFFCURVE",
"412 292 OFFCURVE",
"401 249 CURVE SMOOTH",
"384 181 OFFCURVE",
"353 139 OFFCURVE",
"320 139 CURVE SMOOTH"
);
},
{
closed = 1;
nodes = (
"324 -120 OFFCURVE",
"382 -111 OFFCURVE",
"430 -98 CURVE SMOOTH",
"467 -88 OFFCURVE",
"484 -64 OFFCURVE",
"475 -33 CURVE SMOOTH",
"466 -4 OFFCURVE",
"436 6 OFFCURVE",
"395 -8 CURVE SMOOTH",
"365 -18 OFFCURVE",
"321 -25 OFFCURVE",
"292 -25 CURVE SMOOTH",
"171 -25 OFFCURVE",
"107 78 OFFCURVE",
"141 215 CURVE SMOOTH",
"184 384 OFFCURVE",
"292 489 OFFCURVE",
"424 489 CURVE SMOOTH",
"541 489 OFFCURVE",
"605 395 OFFCURVE",
"576 268 CURVE SMOOTH",
"558 192 OFFCURVE",
"516 136 OFFCURVE",
"485 136 CURVE SMOOTH",
"470 136 OFFCURVE",
"475 164 OFFCURVE",
"479 179 CURVE SMOOTH",
"523 354 LINE SMOOTH",
"532 390 OFFCURVE",
"517 408 OFFCURVE",
"485 408 CURVE SMOOTH",
"455 408 OFFCURVE",
"439 397 OFFCURVE",
"432 369 CURVE SMOOTH",
"389 200 LINE SMOOTH",
"358 80 OFFCURVE",
"401 49 OFFCURVE",
"453 49 CURVE",
"552 49 OFFCURVE",
"647 137 OFFCURVE",
"676 254 CURVE SMOOTH",
"724 443 OFFCURVE",
"617 584 OFFCURVE",
"427 584 CURVE SMOOTH",
"243 584 OFFCURVE",
"96 453 OFFCURVE",
"43 240 CURVE SMOOTH",
"-8 34 OFFCURVE",
"99 -120 OFFCURVE",
"294 -120 CURVE SMOOTH"
);
}
);
vertWidth = 0;
width = 712;
}
);
note = "";
unicode = 0040;
},
{
glyphname = ampersand;
layers = (
{
layerId = m01;
paths = (
{
closed = 1;
nodes = (
"307 -4 OFFCURVE",
"390 62 OFFCURVE",
"493 224 CURVE SMOOTH",
"503 239 OFFCURVE",
"507 257 OFFCURVE",
"493 267 CURVE SMOOTH",
"478 277 OFFCURVE",
"466 270 OFFCURVE",
"454 254 CURVE",
"360 104 OFFCURVE",
"288 42 OFFCURVE",
"207 42 CURVE SMOOTH",
"147 42 OFFCURVE",
"110 86 OFFCURVE",
"110 140 CURVE SMOOTH",
"110 222 OFFCURVE",
"156 282 OFFCURVE",
"246 336 CURVE SMOOTH",
"292 363 LINE SMOOTH",
"403 428 OFFCURVE",
"455 491 OFFCURVE",
"455 556 CURVE SMOOTH",
"455 614 OFFCURVE",
"411 650 OFFCURVE",
"340 650 CURVE SMOOTH",
"230 650 OFFCURVE",
"162 600 OFFCURVE",
"162 520 CURVE SMOOTH",
"162 488 OFFCURVE",
"187 424 OFFCURVE",
"227 353 CURVE SMOOTH",
"413 22 LINE SMOOTH",
"423 5 OFFCURVE",
"441 -9 OFFCURVE",
"456 1 CURVE SMOOTH",
"470 11 OFFCURVE",
"466 33 OFFCURVE",
"458 47 CURVE",
"270 383 LINE SMOOTH",
"235 447 OFFCURVE",
"212 500 OFFCURVE",
"212 520 CURVE SMOOTH",
"212 572 OFFCURVE",
"258 604 OFFCURVE",
"332 604 CURVE SMOOTH",
"377 604 OFFCURVE",
"405 582 OFFCURVE",
"405 546 CURVE SMOOTH",
"405 500 OFFCURVE",
"347 445 OFFCURVE",
"245 387 CURVE SMOOTH",
"224 375 LINE SMOOTH",
"115 312 OFFCURVE",
"60 238 OFFCURVE",
"60 138 CURVE SMOOTH",
"60 56 OFFCURVE",
"116 -4 OFFCURVE",
"207 -4 CURVE SMOOTH"
);
}
);
vertWidth = 0;
width = 562;
},
{
layerId = "140DECC1-64C4-40C0-9C07-503DBC3F4160";
paths = (
{
closed = 1;
nodes = (
"326 -4 OFFCURVE",
"410 62 OFFCURVE",
"516 222 CURVE SMOOTH",
"533 248 OFFCURVE",
"525 275 OFFCURVE",
"503 288 CURVE SMOOTH",
"479 303 OFFCURVE",
"441 294 OFFCURVE",
"423 269 CURVE SMOOTH",
"337 147 OFFCURVE",
"285 97 OFFCURVE",
"244 97 CURVE SMOOTH",
"198 97 OFFCURVE",
"171 122 OFFCURVE",
"171 172 CURVE SMOOTH",
"171 218 OFFCURVE",
"204 262 OFFCURVE",
"265 301 CURVE SMOOTH",
"301 324 LINE SMOOTH",
"405 390 OFFCURVE",
"477 468 OFFCURVE",
"477 542 CURVE SMOOTH",
"477 623 OFFCURVE",
"406 650 OFFCURVE",
"340 650 CURVE SMOOTH",
"226 650 OFFCURVE",
"141 587 OFFCURVE",
"141 502 CURVE SMOOTH",
"141 441 OFFCURVE",
"185 383 OFFCURVE",
"218 329 CURVE",
"402 24 LINE",
"416 1 OFFCURVE",
"458 -14 OFFCURVE",
"485 7 CURVE SMOOTH",
"514 30 OFFCURVE",
"512 59 OFFCURVE",
"497 83 CURVE SMOOTH",
"306 393 LINE SMOOTH",
"274 445 OFFCURVE",
"250 479 OFFCURVE",
"250 504 CURVE SMOOTH",
"250 529 OFFCURVE",
"285 547 OFFCURVE",
"333 547 CURVE SMOOTH",
"363 547 OFFCURVE",
"373 541 OFFCURVE",
"373 526 CURVE SMOOTH",
"373 504 OFFCURVE",
"335 468 OFFCURVE",
"248 413 CURVE SMOOTH",
"216 393 LINE SMOOTH",
"136 343 OFFCURVE",
"62 254 OFFCURVE",
"62 170 CURVE SMOOTH",
"62 55 OFFCURVE",
"119 -4 OFFCURVE",
"226 -4 CURVE SMOOTH"
);
}
);
vertWidth = 0;
width = 600;
}
);
note = "";
unicode = 0026;
},
{
glyphname = degree;
layers = (
{
layerId = m01;
paths = (
{
closed = 1;
nodes = (
"271 404 OFFCURVE",
"305 469 OFFCURVE",
"312 530 CURVE SMOOTH",
"318 593 OFFCURVE",
"293 654 OFFCURVE",
"231 654 CURVE SMOOTH",
"179 654 OFFCURVE",
"133 612 OFFCURVE",
"124 530 CURVE SMOOTH",
"118 467 OFFCURVE",
"143 404 OFFCURVE",
"205 404 CURVE SMOOTH"
);
},
{
closed = 1;
nodes = (
"177 450 OFFCURVE",
"166 487 OFFCURVE",
"170 528 CURVE SMOOTH",
"176 583 OFFCURVE",
"198 608 OFFCURVE",
"228 608 CURVE SMOOTH",
"265 608 OFFCURVE",
"269 559 OFFCURVE",
"266 531 CURVE SMOOTH",
"260 478 OFFCURVE",
"236 450 OFFCURVE",
"212 450 CURVE SMOOTH"
);
}
);
vertWidth = 0;
width = 319;
},
{
layerId = "140DECC1-64C4-40C0-9C07-503DBC3F4160";
paths = (
{
closed = 1;
nodes = (
"292 372 OFFCURVE",
"331 445 OFFCURVE",
"340 514 CURVE SMOOTH",
"347 585 OFFCURVE",
"318 654 OFFCURVE",
"245 654 CURVE SMOOTH",
"184 654 OFFCURVE",
"131 607 OFFCURVE",
"121 514 CURVE SMOOTH",
"114 443 OFFCURVE",
"143 372 OFFCURVE",
"215 372 CURVE SMOOTH"
);
},
{
closed = 1;
nodes = (
"201 459 OFFCURVE",
"194 485 OFFCURVE",
"197 513 CURVE SMOOTH",
"200 552 OFFCURVE",
"216 569 OFFCURVE",
"237 569 CURVE SMOOTH",
"262 569 OFFCURVE",
"266 536 OFFCURVE",
"263 515 CURVE SMOOTH",
"260 478 OFFCURVE",
"243 459 OFFCURVE",
"225 459 CURVE SMOOTH"
);
}
);
vertWidth = 0;
width = 350;
}
);
note = "";
unicode = 00B0;
},
{
glyphname = bar;
layers = (
{
layerId = m01;
paths = (
{
closed = 1;
nodes = (
"213 690 OFFCURVE",
"202 700 OFFCURVE",
"189 700 CURVE SMOOTH",
"177 700 OFFCURVE",
"162 690 OFFCURVE",
"159 672 CURVE SMOOTH",
"-8 -273 LINE SMOOTH",
"-11 -288 OFFCURVE",
"-2 -300 OFFCURVE",
"16 -300 CURVE SMOOTH",
"38 -300 OFFCURVE",
"41 -285 OFFCURVE",
"43 -275 CURVE SMOOTH",
"209 668 LINE SMOOTH"
);
}
);
vertWidth = 0;
width = 201;
},
{
layerId = "140DECC1-64C4-40C0-9C07-503DBC3F4160";
paths = (
{
closed = 1;
nodes = (
"261 681 OFFCURVE",
"238 702 OFFCURVE",
"210 702 CURVE SMOOTH",
"188 702 OFFCURVE",
"162 685 OFFCURVE",
"157 657 CURVE SMOOTH",
"-4 -250 LINE SMOOTH",
"-10 -278 OFFCURVE",
"12 -302 OFFCURVE",
"44 -302 CURVE SMOOTH",
"78 -302 OFFCURVE",
"90 -281 OFFCURVE",
"95 -260 CURVE",
"255 645 LINE SMOOTH"
);
}
);
vertWidth = 0;
width = 251;
}
);
note = "";
unicode = 007C;
},
{
glyphname = brokenbar;
layers = (
{
layerId = m01;
paths = (
{
closed = 1;
nodes = (
"118 152 OFFCURVE",
"107 162 OFFCURVE",
"95 162 CURVE SMOOTH",
"82 162 OFFCURVE",
"67 152 OFFCURVE",
"64 135 CURVE SMOOTH",
"-8 -273 LINE SMOOTH",
"-11 -288 OFFCURVE",
"-2 -300 OFFCURVE",
"16 -300 CURVE SMOOTH",
"38 -300 OFFCURVE",
"41 -285 OFFCURVE",
"43 -275 CURVE SMOOTH",
"115 135 LINE SMOOTH"
);
},
{
closed = 1;
nodes = (
"213 690 OFFCURVE",
"202 700 OFFCURVE",
"189 700 CURVE SMOOTH",
"177 700 OFFCURVE",
"162 690 OFFCURVE",
"159 672 CURVE SMOOTH",
"87 266 LINE SMOOTH",
"84 249 OFFCURVE",
"95 238 OFFCURVE",
"108 239 CURVE SMOOTH",
"121 239 OFFCURVE",
"135 249 OFFCURVE",
"138 266 CURVE SMOOTH",
"209 668 LINE SMOOTH"
);
}
);
vertWidth = 0;
width = 201;
},
{
layerId = "140DECC1-64C4-40C0-9C07-503DBC3F4160";
paths = (
{
closed = 1;
nodes = (
"165 141 OFFCURVE",
"143 163 OFFCURVE",
"116 163 CURVE SMOOTH",
"93 163 OFFCURVE",
"66 146 OFFCURVE",
"61 119 CURVE SMOOTH",
"-4 -248 LINE SMOOTH",
"-9 -276 OFFCURVE",
"12 -300 OFFCURVE",
"44 -300 CURVE SMOOTH",
"78 -300 OFFCURVE",
"91 -279 OFFCURVE",
"95 -258 CURVE SMOOTH",
"160 111 LINE SMOOTH"
);
},
{
closed = 1;
nodes = (
"260 679 OFFCURVE",
"237 700 OFFCURVE",
"209 700 CURVE SMOOTH",
"187 700 OFFCURVE",
"161 683 OFFCURVE",
"156 655 CURVE SMOOTH",
"91 290 LINE SMOOTH",
"85 259 OFFCURVE",
"109 236 OFFCURVE",
"137 238 CURVE SMOOTH",
"160 239 OFFCURVE",
"185 256 OFFCURVE",
"190 282 CURVE SMOOTH",
"254 643 LINE SMOOTH"
);
}
);
vertWidth = 0;
width = 251;
}
);
note = "";
unicode = 00A6;
},
{
glyphname = dollar;
layers = (
{
layerId = m01;
paths = (
{
closed = 1;
nodes = (
"311 -4 OFFCURVE",
"386 45 OFFCURVE",
"403 141 CURVE SMOOTH",
"420 237 OFFCURVE",
"362 279 OFFCURVE",
"285 325 CURVE SMOOTH",
"206 372 OFFCURVE",
"156 390 OFFCURVE",
"167 447 CURVE SMOOTH",
"176 497 OFFCURVE",
"230 523 OFFCURVE",
"328 523 CURVE SMOOTH",
"369 523 OFFCURVE",
"408 497 OFFCURVE",
"419 462 CURVE SMOOTH",
"423 449 OFFCURVE",
"436 443 OFFCURVE",
"450 447 CURVE SMOOTH",
"464 451 OFFCURVE",
"467 467 OFFCURVE",
"462 485 CURVE SMOOTH",
"450 533 OFFCURVE",
"393 569 OFFCURVE",
"329 569 CURVE SMOOTH",
"204 569 OFFCURVE",
"134 529 OFFCURVE",
"119 451 CURVE SMOOTH",
"104 371 OFFCURVE",
"169 335 OFFCURVE",
"245 289 CURVE SMOOTH",
"329 238 OFFCURVE",
"365 212 OFFCURVE",
"355 148 CURVE SMOOTH",
"343 78 OFFCURVE",
"291 42 OFFCURVE",
"199 42 CURVE SMOOTH",
"146 42 OFFCURVE",
"101 66 OFFCURVE",
"95 99 CURVE SMOOTH",
"92 116 OFFCURVE",
"78 122 OFFCURVE",
"64 118 CURVE SMOOTH",
"48 114 OFFCURVE",
"45 98 OFFCURVE",
"48 82 CURVE SMOOTH",
"57 33 OFFCURVE",
"113 -4 OFFCURVE",
"180 -4 CURVE SMOOTH"
);
},
{
closed = 1;
nodes = (
"348 639 OFFCURVE",
"338 650 OFFCURVE",
"326 650 CURVE SMOOTH",
"315 650 OFFCURVE",
"302 641 OFFCURVE",
"299 622 CURVE SMOOTH",
"180 -52 LINE SMOOTH",
"177 -71 OFFCURVE",
"187 -80 OFFCURVE",
"198 -80 CURVE SMOOTH",
"209 -80 OFFCURVE",
"222 -71 OFFCURVE",
"225 -54 CURVE SMOOTH",
"344 618 LINE SMOOTH"
);
}
);
vertWidth = 0;
width = 482;
},
{
layerId = "140DECC1-64C4-40C0-9C07-503DBC3F4160";
paths = (
{
closed = 1;
nodes = (
"335 -3 OFFCURVE",
"447 33 OFFCURVE",
"468 145 CURVE SMOOTH",
"490 262 OFFCURVE",
"416 303 OFFCURVE",
"351 343 CURVE SMOOTH",
"293 379 OFFCURVE",
"223 400 OFFCURVE",
"231 441 CURVE SMOOTH",
"237 474 OFFCURVE",
"279 479 OFFCURVE",
"340 479 CURVE SMOOTH",
"398 479 OFFCURVE",
"422 467 OFFCURVE",
"429 444 CURVE SMOOTH",
"438 415 OFFCURVE",
"463 404 OFFCURVE",
"493 413 CURVE SMOOTH",
"518 421 OFFCURVE",
"529 442 OFFCURVE",
"524 466 CURVE SMOOTH",
"509 538 OFFCURVE",
"461 568 OFFCURVE",
"362 568 CURVE SMOOTH",
"224 568 OFFCURVE",
"143 532 OFFCURVE",
"128 444 CURVE SMOOTH",
"111 348 OFFCURVE",
"218 303 OFFCURVE",
"281 266 CURVE SMOOTH",
"349 226 OFFCURVE",
"384 204 OFFCURVE",
"373 149 CURVE SMOOTH",
"364 104 OFFCURVE",
"313 93 OFFCURVE",
"242 93 CURVE SMOOTH",
"180 93 OFFCURVE",
"163 102 OFFCURVE",
"156 123 CURVE SMOOTH",
"145 153 OFFCURVE",
"112 162 OFFCURVE",
"87 154 CURVE SMOOTH",
"64 147 OFFCURVE",
"46 125 OFFCURVE",
"51 101 CURVE SMOOTH",
"63 33 OFFCURVE",
"124 -3 OFFCURVE",
"236 -3 CURVE SMOOTH"
);
},
{
closed = 1;
nodes = (
"411 629 OFFCURVE",
"388 650 OFFCURVE",
"362 650 CURVE SMOOTH",
"340 650 OFFCURVE",
"315 635 OFFCURVE",
"310 606 CURVE SMOOTH",
"199 -28 LINE SMOOTH",
"193 -61 OFFCURVE",
"216 -80 OFFCURVE",
"241 -80 CURVE SMOOTH",
"263 -80 OFFCURVE",
"288 -65 OFFCURVE",
"293 -38 CURVE SMOOTH",
"405 594 LINE SMOOTH"
);
}
);
vertWidth = 0;
width = 546;
}
);
note = "";
unicode = 0024;
},
{
glyphname = plus;
layers = (
{
layerId = m01;
leftMetricsKey = n;
rightMetricsKey = n;
paths = (
{
closed = 1;
nodes = (
"211 88 OFFCURVE",
"221 94 OFFCURVE",
"225 110 CURVE SMOOTH",
"280 331 LINE SMOOTH",
"284 349 OFFCURVE",
"273 361 OFFCURVE",
"261 362 CURVE SMOOTH",
"251 363 OFFCURVE",
"241 356 OFFCURVE",
"236 341 CURVE SMOOTH",
"182 120 LINE SMOOTH",
"178 101 OFFCURVE",
"189 89 OFFCURVE",
"201 88 CURVE SMOOTH"
);
},
{
closed = 1;
nodes = (
"344 205 LINE SMOOTH",
"362 205 OFFCURVE",
"371 217 OFFCURVE",
"371 228 CURVE SMOOTH",
"371 239 OFFCURVE",
"362 250 OFFCURVE",
"344 250 CURVE SMOOTH",
"117 250 LINE SMOOTH",
"99 250 OFFCURVE",
"90 239 OFFCURVE",
"90 228 CURVE SMOOTH",
"90 216 OFFCURVE",
"99 205 OFFCURVE",
"117 205 CURVE SMOOTH"
);
}
);
vertWidth = 0;
width = 426;
},
{
layerId = "140DECC1-64C4-40C0-9C07-503DBC3F4160";
leftMetricsKey = n;
rightMetricsKey = n;
paths = (
{
closed = 1;
nodes = (
"213 68 OFFCURVE",
"233 76 OFFCURVE",
"240 105 CURVE SMOOTH",
"294 327 LINE SMOOTH",
"302 362 OFFCURVE",
"278 382 OFFCURVE",
"257 382 CURVE SMOOTH",
"240 382 OFFCURVE",
"218 377 OFFCURVE",
"211 348 CURVE SMOOTH",
"157 125 LINE",
"149 87 OFFCURVE",
"174 68 OFFCURVE",
"195 68 CURVE SMOOTH"
);
},
{
closed = 1;
nodes = (
"337 184 LINE SMOOTH",
"371 184 OFFCURVE",
"383 208 OFFCURVE",
"383 227 CURVE SMOOTH",
"383 247 OFFCURVE",
"371 270 OFFCURVE",
"337 270 CURVE SMOOTH",
"110 270 LINE SMOOTH",
"76 270 OFFCURVE",
"64 247 OFFCURVE",
"64 227 CURVE SMOOTH",
"64 207 OFFCURVE",
"76 184 OFFCURVE",
"110 184 CURVE SMOOTH"
);
}
);
vertWidth = 0;
width = 426;
}
);
note = "";
unicode = 002B;
},
{
glyphname = minus;
layers = (
{
layerId = m01;
leftMetricsKey = n;
rightMetricsKey = n;
paths = (
{
closed = 1;
nodes = (
"346 205 LINE SMOOTH",
"364 205 OFFCURVE",
"373 217 OFFCURVE",
"373 228 CURVE SMOOTH",
"373 239 OFFCURVE",
"364 250 OFFCURVE",
"346 250 CURVE SMOOTH",
"119 250 LINE SMOOTH",
"101 250 OFFCURVE",
"92 239 OFFCURVE",
"92 228 CURVE SMOOTH",
"92 216 OFFCURVE",
"101 205 OFFCURVE",
"119 205 CURVE SMOOTH"
);
}
);
vertWidth = 0;
width = 426;
},
{
layerId = "140DECC1-64C4-40C0-9C07-503DBC3F4160";
leftMetricsKey = n;
rightMetricsKey = n;
paths = (
{
closed = 1;
nodes = (
"337 184 LINE SMOOTH",
"371 184 OFFCURVE",
"383 208 OFFCURVE",
"383 227 CURVE SMOOTH",
"383 247 OFFCURVE",
"371 270 OFFCURVE",
"337 270 CURVE SMOOTH",
"110 270 LINE SMOOTH",
"76 270 OFFCURVE",
"64 247 OFFCURVE",
"64 227 CURVE SMOOTH",
"64 207 OFFCURVE",
"76 184 OFFCURVE",
"110 184 CURVE SMOOTH"
);
}
);
vertWidth = 0;
width = 426;
}
);
note = "";
unicode = 2212;
},
{
glyphname = multiply;
layers = (
{
layerId = m01;
leftMetricsKey = o;
rightMetricsKey = o;
paths = (
{
closed = 1;
nodes = (
"371 327 LINE SMOOTH",
"385 339 OFFCURVE",
"385 352 OFFCURVE",
"376 360 CURVE SMOOTH",
"367 369 OFFCURVE",
"353 370 OFFCURVE",
"339 358 CURVE SMOOTH",
"71 123 LINE SMOOTH",
"59 113 OFFCURVE",
"59 100 OFFCURVE",
"67 91 CURVE SMOOTH",
"76 82 OFFCURVE",
"89 79 OFFCURVE",
"105 93 CURVE SMOOTH"
);
},
{
closed = 1;
nodes = (
"302 79 OFFCURVE",
"315 80 OFFCURVE",
"324 87 CURVE SMOOTH",
"335 95 OFFCURVE",
"338 107 OFFCURVE",
"328 121 CURVE SMOOTH",
"156 353 LINE SMOOTH",
"145 368 OFFCURVE",
"131 370 OFFCURVE",
"122 363 CURVE SMOOTH",
"112 355 OFFCURVE",
"109 340 OFFCURVE",
"118 327 CURVE SMOOTH",
"291 93 LINE SMOOTH"
);
}
);
vertWidth = 0;
width = 426;
},
{
layerId = "140DECC1-64C4-40C0-9C07-503DBC3F4160";
leftMetricsKey = o;
rightMetricsKey = o;
paths = (
{
closed = 1;
nodes = (
"371 300 LINE SMOOTH",
"401 327 OFFCURVE",
"392 348 OFFCURVE",
"376 364 CURVE SMOOTH",
"362 378 OFFCURVE",
"338 385 OFFCURVE",
"313 363 CURVE SMOOTH",
"73 150 LINE SMOOTH",
"50 130 OFFCURVE",
"53 105 OFFCURVE",
"68 89 CURVE SMOOTH",
"83 73 OFFCURVE",
"104 63 OFFCURVE",
"133 88 CURVE SMOOTH"
);
},
{
closed = 1;
nodes = (
"291 65 OFFCURVE",
"316 70 OFFCURVE",
"332 82 CURVE SMOOTH",
"351 96 OFFCURVE",
"359 118 OFFCURVE",
"340 144 CURVE",
"179 354 LINE SMOOTH",
"156 385 OFFCURVE",
"131 379 OFFCURVE",
"116 368 CURVE SMOOTH",
"98 354 OFFCURVE",
"91 327 OFFCURVE",
"108 305 CURVE SMOOTH",
"270 92 LINE SMOOTH"
);
}
);
vertWidth = 0;
width = 426;
}
);
note = "";
unicode = 00D7;
},
{
glyphname = divide;
layers = (
{
layerId = m01;
leftMetricsKey = n;
rightMetricsKey = n;
paths = (
{
closed = 1;
nodes = (
"220 87 OFFCURVE",
"236 103 OFFCURVE",
"236 120 CURVE SMOOTH",
"236 138 OFFCURVE",
"219 152 OFFCURVE",
"202 152 CURVE SMOOTH",
"183 152 OFFCURVE",
"171 136 OFFCURVE",
"171 120 CURVE SMOOTH",
"171 103 OFFCURVE",
"184 87 OFFCURVE",
"202 87 CURVE SMOOTH"
);
},
{
closed = 1;
nodes = (
"344 205 LINE SMOOTH",
"362 205 OFFCURVE",
"371 217 OFFCURVE",
"371 228 CURVE SMOOTH",
"371 239 OFFCURVE",
"362 250 OFFCURVE",
"344 250 CURVE SMOOTH",
"117 250 LINE SMOOTH",
"99 250 OFFCURVE",
"90 239 OFFCURVE",
"90 228 CURVE SMOOTH",
"90 217 OFFCURVE",
"99 205 OFFCURVE",
"117 205 CURVE SMOOTH"
);
},
{
closed = 1;
nodes = (
"274 303 OFFCURVE",
"290 319 OFFCURVE",
"290 336 CURVE SMOOTH",
"290 353 OFFCURVE",
"274 368 OFFCURVE",
"257 368 CURVE SMOOTH",
"239 368 OFFCURVE",
"225 352 OFFCURVE",
"225 336 CURVE SMOOTH",
"225 320 OFFCURVE",
"239 303 OFFCURVE",
"257 303 CURVE SMOOTH"
);
}
);
vertWidth = 0;
width = 426;
},
{
layerId = "140DECC1-64C4-40C0-9C07-503DBC3F4160";
leftMetricsKey = n;
rightMetricsKey = n;
paths = (
{
closed = 1;
nodes = (
"228 48 OFFCURVE",
"255 75 OFFCURVE",
"255 106 CURVE SMOOTH",
"255 135 OFFCURVE",
"228 160 OFFCURVE",
"199 160 CURVE SMOOTH",
"168 160 OFFCURVE",
"144 135 OFFCURVE",
"144 106 CURVE SMOOTH",
"144 75 OFFCURVE",
"168 48 OFFCURVE",
"199 48 CURVE SMOOTH"
);
},
{
closed = 1;
nodes = (
"337 184 LINE SMOOTH",
"371 184 OFFCURVE",
"383 208 OFFCURVE",
"383 227 CURVE SMOOTH",
"383 247 OFFCURVE",
"371 270 OFFCURVE",
"337 270 CURVE SMOOTH",
"110 270 LINE SMOOTH",
"76 270 OFFCURVE",
"64 247 OFFCURVE",
"64 227 CURVE SMOOTH",
"64 207 OFFCURVE",
"76 184 OFFCURVE",
"110 184 CURVE SMOOTH"
);
},
{
closed = 1;
nodes = (
"267 294 OFFCURVE",
"294 321 OFFCURVE",
"294 352 CURVE SMOOTH",
"294 381 OFFCURVE",
"267 406 OFFCURVE",
"238 406 CURVE SMOOTH",
"207 406 OFFCURVE",
"183 381 OFFCURVE",
"183 352 CURVE SMOOTH",
"183 321 OFFCURVE",
"207 294 OFFCURVE",
"238 294 CURVE SMOOTH"
);
}
);
vertWidth = 0;
width = 426;
}
);
note = "";
unicode = 00F7;
},
{
glyphname = equal;
layers = (
{
layerId = m01;
leftMetricsKey = n;
rightMetricsKey = n;
paths = (
{
closed = 1;
nodes = (
"323 129 LINE SMOOTH",
"341 129 OFFCURVE",
"350 141 OFFCURVE",
"350 152 CURVE SMOOTH",
"350 163 OFFCURVE",
"341 174 OFFCURVE",
"323 174 CURVE SMOOTH",
"96 174 LINE SMOOTH",
"78 174 OFFCURVE",
"69 162 OFFCURVE",
"69 151 CURVE SMOOTH",
"69 140 OFFCURVE",
"78 129 OFFCURVE",
"96 129 CURVE SMOOTH"
);
},
{
closed = 1;
nodes = (
"360 280 LINE SMOOTH",
"378 280 OFFCURVE",
"387 292 OFFCURVE",
"387 303 CURVE SMOOTH",
"387 314 OFFCURVE",
"378 325 OFFCURVE",
"360 325 CURVE SMOOTH",
"133 325 LINE SMOOTH",
"115 325 OFFCURVE",
"106 313 OFFCURVE",
"106 302 CURVE SMOOTH",
"106 291 OFFCURVE",
"115 280 OFFCURVE",
"133 280 CURVE SMOOTH"
);
}
);
vertWidth = 0;
width = 426;
},
{
layerId = "140DECC1-64C4-40C0-9C07-503DBC3F4160";
leftMetricsKey = n;
rightMetricsKey = n;
paths = (
{
closed = 1;
nodes = (
"315 120 LINE SMOOTH",
"349 120 OFFCURVE",
"361 144 OFFCURVE",
"361 163 CURVE SMOOTH",
"361 183 OFFCURVE",
"349 206 OFFCURVE",
"315 206 CURVE SMOOTH",
"88 206 LINE SMOOTH",
"54 206 OFFCURVE",
"42 183 OFFCURVE",
"42 163 CURVE SMOOTH",
"42 143 OFFCURVE",
"54 120 OFFCURVE",
"88 120 CURVE SMOOTH"
);
},
{
closed = 1;
nodes = (
"348 251 LINE SMOOTH",
"382 251 OFFCURVE",
"394 275 OFFCURVE",
"394 294 CURVE SMOOTH",
"394 314 OFFCURVE",
"382 337 OFFCURVE",
"348 337 CURVE SMOOTH",
"121 337 LINE SMOOTH",
"87 337 OFFCURVE",
"75 314 OFFCURVE",
"75 294 CURVE SMOOTH",
"75 274 OFFCURVE",
"87 251 OFFCURVE",
"121 251 CURVE SMOOTH"
);
}
);
vertWidth = 0;
width = 426;
}
);
note = "";
unicode = 003D;
},
{
glyphname = notequal;
layers = (
{
layerId = m01;
leftMetricsKey = n;
rightMetricsKey = n;
paths = (
{
closed = 1;
nodes = (
"323 129 LINE SMOOTH",
"341 129 OFFCURVE",
"350 141 OFFCURVE",
"350 152 CURVE SMOOTH",
"350 163 OFFCURVE",
"341 174 OFFCURVE",
"323 174 CURVE SMOOTH",
"96 174 LINE SMOOTH",
"78 174 OFFCURVE",
"69 162 OFFCURVE",
"69 151 CURVE SMOOTH",
"69 140 OFFCURVE",
"78 129 OFFCURVE",
"96 129 CURVE SMOOTH"
);
},
{
closed = 1;
nodes = (
"360 280 LINE SMOOTH",
"378 280 OFFCURVE",
"387 292 OFFCURVE",
"387 303 CURVE SMOOTH",
"387 314 OFFCURVE",
"378 325 OFFCURVE",
"360 325 CURVE SMOOTH",
"133 325 LINE SMOOTH",
"115 325 OFFCURVE",
"106 313 OFFCURVE",
"106 302 CURVE SMOOTH",
"106 291 OFFCURVE",
"115 280 OFFCURVE",
"133 280 CURVE SMOOTH"
);
},
{
closed = 1;
nodes = (
"309 338 LINE SMOOTH",
"323 362 OFFCURVE",
"309 377 OFFCURVE",
"295 377 CURVE SMOOTH",
"285 377 OFFCURVE",
"278 373 OFFCURVE",
"271 362 CURVE SMOOTH",
"132 110 LINE SMOOTH",
"123 92 OFFCURVE",
"130 80 OFFCURVE",
"141 75 CURVE SMOOTH",
"150 71 OFFCURVE",
"164 73 OFFCURVE",
"173 89 CURVE SMOOTH"
);
}
);
vertWidth = 0;
width = 426;
},
{
layerId = "140DECC1-64C4-40C0-9C07-503DBC3F4160";
leftMetricsKey = n;
rightMetricsKey = n;
paths = (
{
closed = 1;
nodes = (
"315 120 LINE SMOOTH",
"349 120 OFFCURVE",
"361 144 OFFCURVE",
"361 163 CURVE SMOOTH",
"361 183 OFFCURVE",
"349 206 OFFCURVE",
"315 206 CURVE SMOOTH",
"88 206 LINE SMOOTH",
"54 206 OFFCURVE",
"42 183 OFFCURVE",
"42 163 CURVE SMOOTH",
"42 143 OFFCURVE",
"54 120 OFFCURVE",
"88 120 CURVE SMOOTH"
);
},
{
closed = 1;
nodes = (
"348 251 LINE SMOOTH",
"382 251 OFFCURVE",
"394 275 OFFCURVE",
"394 294 CURVE SMOOTH",
"394 314 OFFCURVE",
"382 337 OFFCURVE",
"348 337 CURVE SMOOTH",
"121 337 LINE SMOOTH",
"87 337 OFFCURVE",
"75 314 OFFCURVE",
"75 294 CURVE SMOOTH",
"75 274 OFFCURVE",
"87 251 OFFCURVE",
"121 251 CURVE SMOOTH"
);
},
{
closed = 1;
nodes = (
"336 337 LINE SMOOTH",
"370 393 OFFCURVE",
"326 407 OFFCURVE",
"303 407 CURVE SMOOTH",
"286 407 OFFCURVE",
"274 402 OFFCURVE",
"262 383 CURVE SMOOTH",
"96 111 LINE SMOOTH",
"77 80 OFFCURVE",
"96 56 OFFCURVE",
"115 47 CURVE SMOOTH",
"131 40 OFFCURVE",
"158 43 OFFCURVE",
"174 69 CURVE SMOOTH"
);
}
);
vertWidth = 0;
width = 426;
}
);
note = "";
unicode = 2260;
},
{
glyphname = greater;
layers = (
{
guideLines = (
{
name = " [#GqRMvt6B8x]";
position = "{131, 333}";
}
);
layerId = m01;
leftMetricsKey = n;
rightMetricsKey = n;
paths = (
{
closed = 1;
nodes = (
"352 198 LINE SMOOTH",
"360 202 OFFCURVE",
"366 210 OFFCURVE",
"366 218 CURVE SMOOTH",
"366 225 OFFCURVE",
"363 231 OFFCURVE",
"356 237 CURVE SMOOTH",
"187 362 LINE SMOOTH",
"172 373 OFFCURVE",
"159 373 OFFCURVE",
"150 364 CURVE SMOOTH",
"141 353 OFFCURVE",
"143 338 OFFCURVE",
"158 327 CURVE SMOOTH",
"323 205 LINE",
"326 235 LINE",
"108 139 LINE SMOOTH",
"88 130 OFFCURVE",
"84 120 OFFCURVE",
"87 108 CURVE SMOOTH",
"90 98 OFFCURVE",
"101 88 OFFCURVE",
"120 96 CURVE SMOOTH"
);
}
);
vertWidth = 0;
width = 426;
},
{
guideLines = (
{
name = " [#GqRMvt6B8x]";
position = "{131, 333}";
}
);
layerId = "140DECC1-64C4-40C0-9C07-503DBC3F4160";
leftMetricsKey = n;
rightMetricsKey = n;
paths = (
{
closed = 1;
nodes = (
"350 182 LINE SMOOTH",
"366 188 OFFCURVE",
"376 206 OFFCURVE",
"376 221 CURVE SMOOTH",
"376 233 OFFCURVE",
"374 246 OFFCURVE",
"359 255 CURVE SMOOTH",
"190 358 LINE SMOOTH",
"162 375 OFFCURVE",
"143 372 OFFCURVE",
"127 356 CURVE SMOOTH",
"109 338 OFFCURVE",
"108 307 OFFCURVE",
"137 290 CURVE SMOOTH",
"282 205 LINE",
"287 247 LINE",
"101 178 LINE SMOOTH",
"65 165 OFFCURVE",
"65 144 OFFCURVE",
"70 125 CURVE SMOOTH",
"75 106 OFFCURVE",
"92 82 OFFCURVE",
"130 98 CURVE SMOOTH"
);
}
);
vertWidth = 0;
width = 426;
}
);
note = "";
unicode = 003E;
},
{
glyphname = less;
layers = (
{
layerId = m01;
leftMetricsKey = n;
rightMetricsKey = n;
paths = (
{
closed = 1;
nodes = (
"293 91 OFFCURVE",
"306 91 OFFCURVE",
"315 100 CURVE SMOOTH",
"324 111 OFFCURVE",
"322 126 OFFCURVE",
"307 137 CURVE SMOOTH",
"142 259 LINE",
"139 229 LINE",
"357 325 LINE SMOOTH",
"377 334 OFFCURVE",
"381 344 OFFCURVE",
"378 356 CURVE SMOOTH",
"375 366 OFFCURVE",
"364 376 OFFCURVE",
"345 368 CURVE",
"113 266 LINE SMOOTH",
"105 262 OFFCURVE",
"99 254 OFFCURVE",
"99 246 CURVE SMOOTH",
"99 239 OFFCURVE",
"102 233 OFFCURVE",
"109 227 CURVE SMOOTH",
"278 102 LINE SMOOTH"
);
}
);
vertWidth = 0;
width = 426;
},
{
layerId = "140DECC1-64C4-40C0-9C07-503DBC3F4160";
leftMetricsKey = n;
rightMetricsKey = n;
paths = (
{
closed = 1;
nodes = (
"281 93 OFFCURVE",
"308 94 OFFCURVE",
"322 108 CURVE SMOOTH",
"341 126 OFFCURVE",
"341 157 OFFCURVE",
"312 174 CURVE SMOOTH",
"167 259 LINE",
"162 217 LINE",
"348 286 LINE SMOOTH",
"384 299 OFFCURVE",
"384 320 OFFCURVE",
"379 339 CURVE SMOOTH",
"374 358 OFFCURVE",
"357 381 OFFCURVE",
"319 366 CURVE SMOOTH",
"99 282 LINE SMOOTH",
"83 276 OFFCURVE",
"73 258 OFFCURVE",
"73 243 CURVE SMOOTH",
"73 231 OFFCURVE",
"75 218 OFFCURVE",
"90 209 CURVE SMOOTH",
"259 106 LINE SMOOTH"
);
}
);
vertWidth = 0;
width = 426;
}
);
note = "";
unicode = 003C;
},
{
glyphname = greaterequal;
layers = (
{
layerId = m01;
leftMetricsKey = n;
rightMetricsKey = n;
paths = (
{
closed = 1;
nodes = (
"320 129 LINE SMOOTH",
"338 129 OFFCURVE",
"347 140 OFFCURVE",
"347 152 CURVE SMOOTH",
"347 163 OFFCURVE",
"338 174 OFFCURVE",
"320 174 CURVE SMOOTH",
"93 174 LINE SMOOTH",
"75 174 OFFCURVE",
"66 162 OFFCURVE",
"66 151 CURVE SMOOTH",
"66 140 OFFCURVE",
"75 129 OFFCURVE",
"93 129 CURVE SMOOTH"
);
},
{
closed = 1;
nodes = (
"346 234 LINE SMOOTH",
"364 234 OFFCURVE",
"373 245 OFFCURVE",
"373 257 CURVE SMOOTH",
"373 263 OFFCURVE",
"370 270 OFFCURVE",
"364 274 CURVE SMOOTH",
"178 392 LINE SMOOTH",
"162 402 OFFCURVE",
"149 401 OFFCURVE",
"141 391 CURVE SMOOTH",
"133 380 OFFCURVE",
"136 366 OFFCURVE",
"151 356 CURVE SMOOTH",
"297 263 LINE",
"302 279 LINE",
"119 279 LINE SMOOTH",
"101 279 OFFCURVE",
"92 267 OFFCURVE",
"92 256 CURVE SMOOTH",
"92 245 OFFCURVE",
"101 234 OFFCURVE",
"119 234 CURVE SMOOTH"
);
}
);
vertWidth = 0;
width = 426;
},
{
layerId = "140DECC1-64C4-40C0-9C07-503DBC3F4160";
leftMetricsKey = n;
rightMetricsKey = n;
paths = (
{
closed = 1;
nodes = (
"315 106 LINE SMOOTH",
"349 106 OFFCURVE",
"361 130 OFFCURVE",
"361 149 CURVE SMOOTH",
"361 169 OFFCURVE",
"349 192 OFFCURVE",
"315 192 CURVE SMOOTH",
"88 192 LINE SMOOTH",
"54 192 OFFCURVE",
"42 169 OFFCURVE",
"42 149 CURVE SMOOTH",
"42 129 OFFCURVE",
"54 106 OFFCURVE",
"88 106 CURVE SMOOTH"
);
},
{
closed = 1;
nodes = (
"323 221 LINE SMOOTH",
"356 221 OFFCURVE",
"369 244 OFFCURVE",
"369 264 CURVE SMOOTH",
"369 277 OFFCURVE",
"364 290 OFFCURVE",
"351 299 CURVE SMOOTH",
"179 415 LINE SMOOTH",
"150 435 OFFCURVE",
"129 425 OFFCURVE",
"116 409 CURVE",
"102 389 OFFCURVE",
"99 362 OFFCURVE",
"130 345 CURVE SMOOTH",
"229 292 LINE",
"242 307 LINE",
"118 307 LINE SMOOTH",
"84 307 OFFCURVE",
"71 283 OFFCURVE",
"71 264 CURVE",
"71 245 OFFCURVE",
"83 221 OFFCURVE",
"118 221 CURVE SMOOTH"
);
}
);
vertWidth = 0;
width = 426;
}
);
note = "";
unicode = 2265;
},
{
glyphname = lessequal;
layers = (
{
layerId = m01;
leftMetricsKey = n;
rightMetricsKey = n;
paths = (
{
closed = 1;
nodes = (
"320 129 LINE SMOOTH",
"338 129 OFFCURVE",
"347 140 OFFCURVE",
"347 152 CURVE SMOOTH",
"347 163 OFFCURVE",
"338 174 OFFCURVE",
"320 174 CURVE SMOOTH",
"93 174 LINE SMOOTH",
"75 174 OFFCURVE",
"66 162 OFFCURVE",
"66 151 CURVE SMOOTH",
"66 140 OFFCURVE",
"75 129 OFFCURVE",
"93 129 CURVE SMOOTH"
);
},
{
closed = 1;
nodes = (
"346 234 LINE SMOOTH",
"364 234 OFFCURVE",
"373 245 OFFCURVE",
"373 257 CURVE SMOOTH",
"373 268 OFFCURVE",
"364 279 OFFCURVE",
"346 279 CURVE SMOOTH",
"179 279 LINE",
"182 265 LINE",
"358 356 LINE SMOOTH",
"374 364 OFFCURVE",
"376 380 OFFCURVE",
"368 391 CURVE SMOOTH",
"360 401 OFFCURVE",
"348 401 OFFCURVE",
"331 392 CURVE SMOOTH",
"105 276 LINE SMOOTH",
"96 271 OFFCURVE",
"92 264 OFFCURVE",
"92 256 CURVE SMOOTH",
"92 245 OFFCURVE",
"101 234 OFFCURVE",
"119 234 CURVE SMOOTH"
);
}
);
vertWidth = 0;
width = 426;
},
{
layerId = "140DECC1-64C4-40C0-9C07-503DBC3F4160";
leftMetricsKey = n;
rightMetricsKey = n;
paths = (
{
closed = 1;
nodes = (
"306 106 LINE SMOOTH",
"340 106 OFFCURVE",
"352 130 OFFCURVE",
"352 149 CURVE SMOOTH",
"352 169 OFFCURVE",
"340 192 OFFCURVE",
"306 192 CURVE SMOOTH",
"79 192 LINE SMOOTH",
"45 192 OFFCURVE",
"33 169 OFFCURVE",
"33 149 CURVE SMOOTH",
"33 129 OFFCURVE",
"45 106 OFFCURVE",
"79 106 CURVE SMOOTH"
);
},
{
closed = 1;
nodes = (
"314 221 LINE SMOOTH",
"347 221 OFFCURVE",
"360 244 OFFCURVE",
"360 264 CURVE SMOOTH",
"360 283 OFFCURVE",
"348 307 OFFCURVE",
"314 307 CURVE SMOOTH",
"182 307 LINE",
"193 281 LINE",
"335 343 LINE SMOOTH",
"366 356 OFFCURVE",
"366 388 OFFCURVE",
"351 408 CURVE SMOOTH",
"338 425 OFFCURVE",
"319 432 OFFCURVE",
"290 416 CURVE SMOOTH",
"86 302 LINE SMOOTH",
"68 292 OFFCURVE",
"62 278 OFFCURVE",
"62 264 CURVE SMOOTH",
"62 245 OFFCURVE",
"74 221 OFFCURVE",
"108 221 CURVE SMOOTH"
);
}
);
vertWidth = 0;
width = 426;
}
);
note = "";
unicode = 2264;
},
{
glyphname = plusminus;
layers = (
{
layerId = m01;
leftMetricsKey = n;
rightMetricsKey = n;
paths = (
{
closed = 1;
nodes = (
"229 186 OFFCURVE",
"239 192 OFFCURVE",
"243 208 CURVE SMOOTH",
"276 340 LINE SMOOTH",
"281 358 OFFCURVE",
"269 371 OFFCURVE",
"256 371 CURVE",
"247 371 OFFCURVE",
"236 365 OFFCURVE",
"232 350 CURVE SMOOTH",
"200 218 LINE SMOOTH",
"195 199 OFFCURVE",
"207 186 OFFCURVE",
"219 186 CURVE SMOOTH"
);
},
{
closed = 1;
nodes = (
"351 257 LINE SMOOTH",
"369 257 OFFCURVE",
"378 269 OFFCURVE",
"378 280 CURVE SMOOTH",
"378 291 OFFCURVE",
"369 302 OFFCURVE",
"351 302 CURVE SMOOTH",
"124 302 LINE SMOOTH",
"106 302 OFFCURVE",
"97 291 OFFCURVE",
"97 280 CURVE SMOOTH",
"97 268 OFFCURVE",
"106 257 OFFCURVE",
"124 257 CURVE SMOOTH"
);
},
{
closed = 1;
nodes = (
"320 129 LINE SMOOTH",
"338 129 OFFCURVE",
"347 141 OFFCURVE",
"347 152 CURVE SMOOTH",
"347 163 OFFCURVE",
"338 174 OFFCURVE",
"320 174 CURVE SMOOTH",
"93 174 LINE SMOOTH",
"75 174 OFFCURVE",
"66 163 OFFCURVE",
"66 152 CURVE SMOOTH",
"66 140 OFFCURVE",
"75 129 OFFCURVE",
"93 129 CURVE SMOOTH"
);
}
);
vertWidth = 0;
width = 426;
},
{
layerId = "140DECC1-64C4-40C0-9C07-503DBC3F4160";
leftMetricsKey = n;
rightMetricsKey = n;
paths = (
{
closed = 1;
nodes = (
"226 212 OFFCURVE",
"246 220 OFFCURVE",
"253 249 CURVE SMOOTH",
"307 471 LINE SMOOTH",
"315 506 OFFCURVE",
"291 526 OFFCURVE",
"270 526 CURVE SMOOTH",
"253 526 OFFCURVE",
"231 521 OFFCURVE",
"224 492 CURVE SMOOTH",
"170 269 LINE",
"162 231 OFFCURVE",
"187 212 OFFCURVE",
"208 212 CURVE SMOOTH"
);
},
{
closed = 1;
nodes = (
"350 328 LINE SMOOTH",
"384 328 OFFCURVE",
"396 352 OFFCURVE",
"396 371 CURVE SMOOTH",
"396 391 OFFCURVE",
"384 414 OFFCURVE",
"350 414 CURVE SMOOTH",
"123 414 LINE SMOOTH",
"89 414 OFFCURVE",
"77 391 OFFCURVE",
"77 371 CURVE SMOOTH",
"77 351 OFFCURVE",
"89 328 OFFCURVE",
"123 328 CURVE SMOOTH"
);
},
{
closed = 1;
nodes = (
"306 106 LINE SMOOTH",
"340 106 OFFCURVE",
"352 130 OFFCURVE",
"352 149 CURVE SMOOTH",
"352 169 OFFCURVE",
"340 192 OFFCURVE",
"306 192 CURVE SMOOTH",
"79 192 LINE SMOOTH",
"45 192 OFFCURVE",
"33 169 OFFCURVE",
"33 149 CURVE SMOOTH",
"33 129 OFFCURVE",
"45 106 OFFCURVE",
"79 106 CURVE SMOOTH"
);
}
);
vertWidth = 0;
width = 426;
}
);
note = "";
unicode = 00B1;
},
{
glyphname = approxequal;
layers = (
{
layerId = m01;
leftMetricsKey = n;
rightMetricsKey = n;
paths = (
{
closed = 1;
nodes = (
"119 138 OFFCURVE",
"137 145 OFFCURVE",
"150 145 CURVE SMOOTH",
"191 145 OFFCURVE",
"225 117 OFFCURVE",
"263 117 CURVE SMOOTH",
"289 117 OFFCURVE",
"315 127 OFFCURVE",
"333 134 CURVE SMOOTH",
"348 140 OFFCURVE",
"355 151 OFFCURVE",
"350 164 CURVE SMOOTH",
"345 177 OFFCURVE",
"333 181 OFFCURVE",
"317 175 CURVE SMOOTH",
"302 169 OFFCURVE",
"284 162 OFFCURVE",
"271 162 CURVE SMOOTH",
"233 162 OFFCURVE",
"199 190 OFFCURVE",
"158 190 CURVE SMOOTH",
"132 190 OFFCURVE",
"106 180 OFFCURVE",
"88 173 CURVE SMOOTH",
"73 167 OFFCURVE",
"66 156 OFFCURVE",
"71 143 CURVE SMOOTH",
"76 130 OFFCURVE",
"88 126 OFFCURVE",
"104 132 CURVE SMOOTH"
);
},
{
closed = 1;
nodes = (
"157 289 OFFCURVE",
"175 296 OFFCURVE",
"188 296 CURVE SMOOTH",
"229 296 OFFCURVE",
"263 268 OFFCURVE",
"301 268 CURVE SMOOTH",
"327 268 OFFCURVE",
"353 278 OFFCURVE",
"371 285 CURVE SMOOTH",
"386 291 OFFCURVE",
"393 302 OFFCURVE",
"388 315 CURVE SMOOTH",
"383 328 OFFCURVE",
"371 332 OFFCURVE",
"355 326 CURVE SMOOTH",
"340 320 OFFCURVE",
"322 313 OFFCURVE",
"309 313 CURVE SMOOTH",
"271 313 OFFCURVE",
"237 341 OFFCURVE",
"196 341 CURVE SMOOTH",
"170 341 OFFCURVE",
"144 331 OFFCURVE",
"126 324 CURVE SMOOTH",
"111 318 OFFCURVE",
"104 307 OFFCURVE",
"109 294 CURVE SMOOTH",
"114 281 OFFCURVE",
"126 277 OFFCURVE",
"142 283 CURVE SMOOTH"
);
}
);
vertWidth = 0;
width = 426;
},
{
layerId = "140DECC1-64C4-40C0-9C07-503DBC3F4160";
leftMetricsKey = n;
rightMetricsKey = n;
paths = (
{
closed = 1;
nodes = (
"124 124 OFFCURVE",
"136 131 OFFCURVE",
"146 131 CURVE SMOOTH",
"179 131 OFFCURVE",
"214 109 OFFCURVE",
"249 109 CURVE SMOOTH",
"276 109 OFFCURVE",
"303 116 OFFCURVE",
"323 124 CURVE SMOOTH",
"354 137 OFFCURVE",
"362 162 OFFCURVE",
"353 183 CURVE SMOOTH",
"343 205 OFFCURVE",
"322 215 OFFCURVE",
"288 201 CURVE SMOOTH",
"278 197 OFFCURVE",
"265 192 OFFCURVE",
"256 192 CURVE SMOOTH",
"221 192 OFFCURVE",
"190 214 OFFCURVE",
"153 214 CURVE SMOOTH",
"125 214 OFFCURVE",
"98 205 OFFCURVE",
"79 196 CURVE SMOOTH",
"47 181 OFFCURVE",
"38 157 OFFCURVE",
"48 136 CURVE SMOOTH",
"58 114 OFFCURVE",
"80 104 OFFCURVE",
"113 119 CURVE SMOOTH"
);
},
{
closed = 1;
nodes = (
"159 264 OFFCURVE",
"171 271 OFFCURVE",
"181 271 CURVE SMOOTH",
"214 271 OFFCURVE",
"249 249 OFFCURVE",
"284 249 CURVE SMOOTH",
"311 249 OFFCURVE",
"338 256 OFFCURVE",
"358 264 CURVE SMOOTH",
"389 277 OFFCURVE",
"397 302 OFFCURVE",
"388 323 CURVE SMOOTH",
"378 345 OFFCURVE",
"357 355 OFFCURVE",
"323 341 CURVE SMOOTH",
"313 337 OFFCURVE",
"300 332 OFFCURVE",
"291 332 CURVE SMOOTH",
"256 332 OFFCURVE",
"225 354 OFFCURVE",
"188 354 CURVE SMOOTH",
"160 354 OFFCURVE",
"133 345 OFFCURVE",
"114 336 CURVE SMOOTH",
"82 321 OFFCURVE",
"73 297 OFFCURVE",
"83 276 CURVE SMOOTH",
"93 254 OFFCURVE",
"115 244 OFFCURVE",
"148 259 CURVE SMOOTH"
);
}
);
vertWidth = 0;
width = 426;
}
);
note = "";
unicode = 2248;
},
{
glyphname = asciicircum;
layers = (
{
layerId = m01;
leftMetricsKey = N;
rightMetricsKey = N;
paths = (
{
closed = 1;
nodes = (
"298 409 LINE",
"256 413 LINE",
"354 296 LINE SMOOTH",
"365 283 OFFCURVE",
"380 285 OFFCURVE",
"389 293 CURVE SMOOTH",
"399 302 OFFCURVE",
"402 317 OFFCURVE",
"392 329 CURVE SMOOTH",
"299 439 LINE SMOOTH",
"291 449 OFFCURVE",
"274 451 OFFCURVE",
"260 439 CURVE SMOOTH",
"127 328 LINE SMOOTH",
"115 318 OFFCURVE",
"116 304 OFFCURVE",
"124 295 CURVE SMOOTH",
"133 286 OFFCURVE",
"145 281 OFFCURVE",
"161 294 CURVE SMOOTH"
);
}
);
vertWidth = 0;
width = 456;
},
{
layerId = "140DECC1-64C4-40C0-9C07-503DBC3F4160";
leftMetricsKey = N;
rightMetricsKey = N;
paths = (
{
closed = 1;
nodes = (
"275 388 LINE",
"245 390 LINE",
"335 284 LINE SMOOTH",
"353 262 OFFCURVE",
"377 267 OFFCURVE",
"391 279 CURVE SMOOTH",
"406 292 OFFCURVE",
"411 316 OFFCURVE",
"395 335 CURVE SMOOTH",
"295 454 LINE SMOOTH",
"282 469 OFFCURVE",
"259 475 OFFCURVE",
"236 456 CURVE SMOOTH",
"100 342 LINE SMOOTH",
"80 325 OFFCURVE",
"83 302 OFFCURVE",
"96 287 CURVE",
"110 273 OFFCURVE",
"129 264 OFFCURVE",
"153 284 CURVE SMOOTH"
);
}
);
vertWidth = 0;
width = 451;
}
);
note = "";
unicode = 005E;
},
{
glyphname = "infinity";
layers = (
{
layerId = m01;
leftMetricsKey = o;
rightMetricsKey = o;
paths = (
{
closed = 1;
nodes = (
"227 80 OFFCURVE",
"294 128 OFFCURVE",
"357 193 CURVE",
"329 230 LINE",
"273 175 OFFCURVE",
"214 125 OFFCURVE",
"165 125 CURVE SMOOTH",
"125 125 OFFCURVE",
"107 169 OFFCURVE",
"121 227 CURVE SMOOTH",
"136 286 OFFCURVE",
"165 316 OFFCURVE",
"208 316 CURVE SMOOTH",
"242 316 OFFCURVE",
"278 288 OFFCURVE",
"315 233 CURVE SMOOTH",
"351 180 LINE SMOOTH",
"396 114 OFFCURVE",
"444 80 OFFCURVE",
"491 80 CURVE SMOOTH",
"568 80 OFFCURVE",
"617 125 OFFCURVE",
"637 215 CURVE SMOOTH",
"652 281 OFFCURVE",
"631 361 OFFCURVE",
"550 361 CURVE SMOOTH",
"480 361 OFFCURVE",
"413 313 OFFCURVE",
"350 248 CURVE",
"378 211 LINE",
"434 266 OFFCURVE",
"493 316 OFFCURVE",
"542 316 CURVE SMOOTH",
"582 316 OFFCURVE",
"600 272 OFFCURVE",
"586 214 CURVE SMOOTH",
"571 155 OFFCURVE",
"542 125 OFFCURVE",
"499 125 CURVE SMOOTH",
"465 125 OFFCURVE",
"429 153 OFFCURVE",
"392 208 CURVE SMOOTH",
"356 261 LINE SMOOTH",
"311 327 OFFCURVE",
"263 361 OFFCURVE",
"216 361 CURVE SMOOTH",
"139 361 OFFCURVE",
"90 316 OFFCURVE",
"70 226 CURVE SMOOTH",
"55 160 OFFCURVE",
"76 80 OFFCURVE",
"157 80 CURVE SMOOTH"
);
}
);
vertWidth = 0;
width = 699;
},
{
layerId = "140DECC1-64C4-40C0-9C07-503DBC3F4160";
leftMetricsKey = o;
rightMetricsKey = o;
paths = (
{
closed = 1;
nodes = (
"250 70 OFFCURVE",
"322 121 OFFCURVE",
"379 181 CURVE",
"321 246 LINE",
"281 206 OFFCURVE",
"229 157 OFFCURVE",
"193 157 CURVE SMOOTH",
"163 157 OFFCURVE",
"151 181 OFFCURVE",
"161 220 CURVE SMOOTH",
"171 260 OFFCURVE",
"197 284 OFFCURVE",
"229 284 CURVE SMOOTH",
"249 284 OFFCURVE",
"279 258 OFFCURVE",
"306 217 CURVE SMOOTH",
"336 173 LINE SMOOTH",
"380 109 OFFCURVE",
"436 70 OFFCURVE",
"480 70 CURVE SMOOTH",
"566 70 OFFCURVE",
"628 124 OFFCURVE",
"646 211 CURVE SMOOTH",
"671 310 OFFCURVE",
"627 371 OFFCURVE",
"530 371 CURVE SMOOTH",
"467 371 OFFCURVE",
"395 320 OFFCURVE",
"338 260 CURVE",
"396 195 LINE",
"436 235 OFFCURVE",
"488 284 OFFCURVE",
"524 284 CURVE SMOOTH",
"556 284 OFFCURVE",
"566 261 OFFCURVE",
"556 221 CURVE SMOOTH",
"546 181 OFFCURVE",
"522 157 OFFCURVE",
"488 157 CURVE SMOOTH",
"463 157 OFFCURVE",
"433 183 OFFCURVE",
"411 224 CURVE SMOOTH",
"381 278 LINE SMOOTH",
"349 335 OFFCURVE",
"293 371 OFFCURVE",
"235 371 CURVE SMOOTH",
"153 371 OFFCURVE",
"91 317 OFFCURVE",
"71 230 CURVE SMOOTH",
"48 131 OFFCURVE",
"92 70 OFFCURVE",
"187 70 CURVE SMOOTH"
);
}
);
vertWidth = 0;
width = 709;
}
);
note = "";
unicode = 221E;
},
{
glyphname = percent;
layers = (
{
layerId = m01;
paths = (
{
closed = 1;
nodes = (
"229 432 OFFCURVE",
"296 516 OFFCURVE",
"296 594 CURVE SMOOTH",
"296 634 OFFCURVE",
"273 654 OFFCURVE",
"228 654 CURVE SMOOTH",
"162 654 OFFCURVE",
"122 593 OFFCURVE",
"122 495 CURVE SMOOTH",
"122 456 OFFCURVE",
"139 432 OFFCURVE",
"166 432 CURVE SMOOTH"
);
},
{
closed = 1;
nodes = (
"166 471 OFFCURVE",
"161 483 OFFCURVE",
"161 502 CURVE SMOOTH",
"161 571 OFFCURVE",
"186 614 OFFCURVE",
"226 614 CURVE SMOOTH",
"246 614 OFFCURVE",
"256 605 OFFCURVE",
"256 587 CURVE SMOOTH",
"256 531 OFFCURVE",
"213 471 OFFCURVE",
"173 471 CURVE SMOOTH"
);
},
{
closed = 1;
nodes = (
"438 637 OFFCURVE",
"423 650 OFFCURVE",
"408 650 CURVE SMOOTH",
"397 650 OFFCURVE",
"386 644 OFFCURVE",
"379 627 CURVE SMOOTH",
"122 31 LINE SMOOTH",
"114 12 OFFCURVE",
"128 0 OFFCURVE",
"144 0 CURVE SMOOTH",
"155 0 OFFCURVE",
"166 6 OFFCURVE",
"172 20 CURVE SMOOTH",
"429 616 LINE SMOOTH"
);
},
{
closed = 1;
nodes = (
"372 -4 OFFCURVE",
"439 80 OFFCURVE",
"439 158 CURVE SMOOTH",
"439 198 OFFCURVE",
"416 218 OFFCURVE",
"371 218 CURVE SMOOTH",
"305 218 OFFCURVE",
"265 157 OFFCURVE",
"265 59 CURVE SMOOTH",
"265 20 OFFCURVE",
"282 -4 OFFCURVE",
"309 -4 CURVE SMOOTH"
);
},
{
closed = 1;
nodes = (
"309 35 OFFCURVE",
"304 47 OFFCURVE",
"304 66 CURVE SMOOTH",
"304 135 OFFCURVE",
"329 178 OFFCURVE",
"369 178 CURVE SMOOTH",
"389 178 OFFCURVE",
"399 169 OFFCURVE",
"399 151 CURVE SMOOTH",
"399 95 OFFCURVE",
"356 35 OFFCURVE",
"316 35 CURVE SMOOTH"
);
}
